<svg viewBox="0 0 18 20" xmlns="http://www.w3.org/2000/svg">
  <path fill="currentColor" d="M14.0001 9.00003H12.0001V11H14.0001V9.00003Z"/>
  <path fill="currentColor" d="M10 9.00003H8V11H10V9.00003Z"/>
  <path fill="currentColor" d="M6.00008 9.00003H4.00006V11H6.00008V9.00003Z"/>
  <path fill="currentColor" d="M16 2.00001H15.0001V0H13.0001V2.00001H5.00004V0H3.00003V2.00001H2.00004C0.890045 2.00001 0.0100618 2.90001 0.0100618 4.00003L3.05176e-05 18C3.05176e-05 19.1 0.890045 20 2.00004 20H16C17.1001 20 18.0001 19.1 18.0001 18V3.99998C18 2.90001 17.1 2.00001 16 2.00001ZM16 18H2.00004V6.99998H16V18Z"/>
</svg>
