<svg viewBox="0 0 1000 1000" xmlns="http://www.w3.org/2000/svg">
  <path fill="currentColor" d="M413.45+65.0925C288.265+416.657+265.37+485.035+263.31+515.842C262.275+530.005+262.695+532.883+267.645+542.74C271.15+550.138+275.895+555.883+281.675+559.781L290.13+565.74L360.25+566.353C414.076+566.761+429.961+567.587+429.141+569.434C428.526+570.873+387.071+660.2+336.945+768.008C286.83+875.815+244.34+969.867+242.485+976.642C239.8+987.112+239.595+990.397+241.655+994.918C244.135+1000.25+244.955+1000.46+255.265+999.642C267.635+998.612+291.155+987.53+316.315+970.897C339.005+955.703+348.905+947.285+384.375+912.784C401.911+895.743+433.876+865.968+455.531+846.865C628.977+693.058+755.607+564.097+779.537+517.077C789.642+496.954+787.787+479.913+773.972+469.841C760.772+460.188+759.122+459.984+643.007+459.984C582.366+459.984+532.876+459.372+532.876+458.749C532.876+458.137+595.167+358.126+671.467+236.564C747.572+114.787+812.128+11.9083+814.802+7.60212L819.547+4.33036e-06L628.157+4.33036e-06L436.551+4.33036e-06L413.45+65.0925Z"/>
</svg>
