<svg viewBox="0 0 245 255" xmlns="http://www.w3.org/2000/svg">
  <path fill="currentColor" d="M216.129 131.992H210.756V136.976H216.746V138.457H208.977V124.695H216.456V126.176H210.756V130.547H216.129V131.992Z"/>
  <path fill="currentColor" d="M29.3351 138.457L25.8135 124.695H27.7014L29.3351 131.666C29.7345 133.4 30.0975 135.098 30.3517 136.435H30.388C30.6058 135.062 31.0415 133.436 31.5135 131.666L33.3651 124.731H35.2167L36.8867 131.739C37.2861 133.364 37.6492 135.026 37.867 136.471H37.9033C38.1938 134.954 38.5931 133.436 39.0288 131.703L40.8441 124.767H42.6594L38.7383 138.53H36.8867L35.1441 131.341C34.7084 129.571 34.4179 128.235 34.2364 126.862H34.2001C33.946 128.235 33.6555 129.571 33.1472 131.341L31.1867 138.53H29.3351V138.457Z"/>
  <path fill="currentColor" d="M117.195 51.6552V37.8925H119.156L123.585 44.8641C124.602 46.4897 125.4 47.9346 126.054 49.3433L126.09 49.3072C125.909 47.465 125.872 45.8033 125.872 43.636V37.8564H127.543V51.6552H125.727L121.334 44.6474C120.354 43.1303 119.446 41.5409 118.757 40.0599L118.72 40.096C118.829 41.8299 118.865 43.4915 118.865 45.7672V51.6552H117.195Z"/>
  <path fill="currentColor" d="M118.357 223.056C119.156 223.562 120.318 223.959 121.552 223.959C123.367 223.959 124.457 222.984 124.457 221.611C124.457 220.311 123.73 219.589 121.843 218.866C119.592 218.071 118.176 216.915 118.176 214.965C118.176 212.834 119.955 211.208 122.641 211.208C124.057 211.208 125.074 211.533 125.691 211.894L125.183 213.339C124.747 213.086 123.803 212.689 122.569 212.689C120.681 212.689 119.955 213.809 119.955 214.748C119.955 216.049 120.79 216.663 122.714 217.421C125.074 218.324 126.236 219.444 126.236 221.467C126.236 223.598 124.638 225.44 121.371 225.44C120.027 225.44 118.575 225.043 117.849 224.573L118.357 223.056Z"/>
  <path fill="currentColor" d="M126.018 3.35939C125.836 5.49062 124.929 6.61042 123.549 6.50205C122.314 6.39368 121.588 5.16552 121.734 3.10653C121.915 1.01143 122.932 -0.0722447 124.202 0.0361228C125.546 0.108368 126.199 1.37265 126.018 3.35939ZM122.605 3.17878C122.46 4.80429 122.895 5.7796 123.658 5.85184C124.529 5.92409 125.037 4.94878 125.183 3.35939C125.328 1.80612 125.001 0.758572 124.13 0.686328C123.367 0.614083 122.75 1.4449 122.605 3.17878Z"/>
  <path fill="currentColor" d="M159.201 20.2286L159.419 19.759L160.29 19.47C162.396 18.7476 163.413 18.3141 163.848 17.4833C164.103 16.9053 164.103 16.219 163.231 15.8217C162.723 15.5688 162.142 15.6411 161.779 15.7494V15.0992C162.324 14.9547 163.013 14.9547 163.667 15.2798C164.901 15.8578 165.047 16.9415 164.647 17.7723C164.139 18.8198 162.977 19.3255 161.234 19.9396L160.581 20.1564L163.159 21.3484L162.868 21.9986L159.201 20.2286Z"/>
  <path fill="currentColor" d="M168.895 21.1678C167.987 23.1184 166.753 23.8409 165.482 23.2629C164.357 22.7572 164.102 21.3484 164.974 19.4339C165.881 17.5194 167.188 16.8331 168.35 17.3749C169.585 17.9529 169.766 19.3617 168.895 21.1678ZM165.736 19.8313C165.046 21.3123 165.119 22.3598 165.809 22.7211C166.608 23.0823 167.406 22.3598 168.096 20.8788C168.75 19.47 168.822 18.3864 168.024 17.989C167.37 17.6639 166.499 18.278 165.736 19.8313Z"/>
  <path fill="currentColor" d="M197.286 41.0713L198.521 39.8431L196.451 37.748L196.851 37.3507L201.715 36.5198L202.369 37.17L199.573 39.9515L200.191 40.5656L199.719 41.0352L199.101 40.4211L197.867 41.6492L197.286 41.0713ZM198.993 39.3735L200.481 37.8925C200.699 37.6758 200.953 37.4229 201.207 37.2062L201.171 37.17C200.772 37.2784 200.481 37.3868 200.154 37.459L197.54 37.8925L198.993 39.3735Z"/>
  <path fill="currentColor" d="M204.221 43.4192C202.696 44.9363 201.28 45.1892 200.3 44.2139C199.428 43.347 199.646 41.9382 201.135 40.4572C202.659 38.9761 204.112 38.7955 205.019 39.6986C205.963 40.6378 205.637 42.0104 204.221 43.4192ZM201.715 41.0712C200.554 42.2272 200.227 43.2386 200.808 43.7804C201.425 44.3945 202.442 43.961 203.603 42.8412C204.693 41.7576 205.165 40.7461 204.511 40.1321C203.966 39.5902 202.95 39.8431 201.715 41.0712Z"/>
  <path fill="currentColor" d="M229.925 70.6194C229.853 70.4388 229.744 70.2582 229.635 70.0415C228.872 68.9217 227.674 68.6688 226.658 68.9939V69.0301C227.13 69.1384 227.674 69.4635 227.965 70.1137C228.437 71.1252 228.037 72.1727 226.912 72.6784C225.859 73.148 224.552 72.8952 224.007 71.7031C223.426 70.475 224.007 69.2468 225.532 68.5605C226.658 68.0547 227.747 68.0186 228.582 68.3437C229.272 68.5966 229.853 69.1023 230.288 69.7886C230.433 70.0054 230.542 70.186 230.579 70.3305L229.925 70.6194ZM226.512 71.9199C227.347 71.5586 227.602 70.8362 227.275 70.1137C227.057 69.6441 226.549 69.3552 226.04 69.319C225.931 69.319 225.786 69.319 225.641 69.3913C224.697 69.8609 224.189 70.5833 224.588 71.4141C224.915 72.1005 225.677 72.3172 226.512 71.9199Z"/>
  <path fill="currentColor" d="M230.034 76.7241C228.073 77.6272 226.658 77.4105 226.077 76.1101C225.568 74.9903 226.258 73.7621 228.146 72.859C230.07 71.956 231.523 72.3172 232.067 73.4731C232.612 74.7013 231.849 75.8933 230.034 76.7241ZM228.473 73.6537C226.984 74.3401 226.331 75.207 226.658 75.8933C227.021 76.688 228.146 76.6519 229.598 75.9656C231.014 75.3154 231.777 74.5207 231.414 73.726C231.123 73.0397 230.07 72.9313 228.473 73.6537Z"/>
  <path fill="currentColor" d="M240.309 107.681C241.107 107.609 241.725 108.042 242.088 108.801H242.124C242.414 108.078 242.923 107.717 243.467 107.681C244.484 107.609 245.21 108.404 245.319 109.487C245.428 110.715 244.702 111.366 243.903 111.438C243.358 111.474 242.777 111.257 242.342 110.535H242.305C242.051 111.33 241.543 111.871 240.781 111.944C239.691 112.016 238.856 111.149 238.784 109.957C238.675 108.62 239.401 107.753 240.309 107.681ZM240.635 111.077C241.398 111.004 241.725 110.463 241.906 109.596C241.616 108.873 241.107 108.512 240.526 108.584C239.873 108.62 239.365 109.126 239.437 109.957C239.474 110.679 239.982 111.113 240.635 111.077ZM243.612 108.476C242.995 108.512 242.669 109.018 242.56 109.776C242.777 110.318 243.213 110.679 243.794 110.643C244.302 110.607 244.811 110.246 244.738 109.487C244.629 108.765 244.157 108.44 243.612 108.476Z"/>
  <path fill="currentColor" d="M242.705 116.784C240.563 116.965 239.292 116.278 239.183 114.869C239.074 113.641 240.163 112.702 242.269 112.522C244.375 112.341 245.646 113.172 245.718 114.436C245.827 115.773 244.702 116.603 242.705 116.784ZM242.305 113.352C240.672 113.497 239.764 114.075 239.837 114.833C239.909 115.7 240.962 116.025 242.56 115.917C244.121 115.809 245.101 115.303 245.028 114.436C244.992 113.677 244.048 113.244 242.305 113.352Z"/>
  <path fill="currentColor" d="M245.391 149.583L245.101 148.355H245.791L246.154 149.872L245.972 150.558L239.873 148.861L240.091 148.066L245.391 149.583Z"/>
  <path fill="currentColor" d="M241.216 156.013C239.147 155.435 238.203 154.351 238.566 153.015C238.893 151.823 240.236 151.317 242.269 151.859C244.302 152.437 245.21 153.629 244.847 154.857C244.52 156.157 243.14 156.555 241.216 156.013ZM242.051 152.69C240.454 152.256 239.437 152.473 239.219 153.232C239.002 154.062 239.873 154.749 241.434 155.182C242.923 155.58 244.048 155.471 244.266 154.64C244.447 153.918 243.685 153.159 242.051 152.69Z"/>
  <path fill="currentColor" d="M239.873 160.817C237.803 160.239 236.86 159.156 237.223 157.819C237.549 156.627 238.893 156.121 240.926 156.663C242.959 157.241 243.867 158.433 243.503 159.661C243.177 160.962 241.833 161.359 239.873 160.817ZM240.708 157.494C239.11 157.061 238.094 157.313 237.876 158.036C237.658 158.867 238.53 159.553 240.091 159.986C241.579 160.384 242.705 160.275 242.923 159.445C243.104 158.722 242.378 157.964 240.708 157.494Z"/>
  <path fill="currentColor" d="M231.849 190.438L232.031 189.173L232.648 189.426L232.43 190.98L231.995 191.557L226.839 187.873L227.311 187.187L231.849 190.438Z"/>
  <path fill="currentColor" d="M225.496 189.788L225.931 190.076L226.077 191.016C226.403 193.219 226.621 194.303 227.42 194.845C227.928 195.206 228.618 195.314 229.163 194.556C229.489 194.086 229.526 193.544 229.526 193.147L230.179 193.291C230.216 193.869 230.07 194.52 229.671 195.134C228.872 196.253 227.783 196.145 227.057 195.639C226.113 194.953 225.823 193.725 225.568 191.883L225.496 191.196L223.826 193.508L223.245 193.111L225.496 189.788Z"/>
  <path fill="currentColor" d="M222.773 199.107C221.03 197.843 220.522 196.506 221.321 195.387C222.047 194.375 223.463 194.375 225.205 195.567C226.948 196.795 227.347 198.204 226.621 199.252C225.823 200.371 224.407 200.299 222.773 199.107ZM224.697 196.29C223.354 195.35 222.301 195.206 221.829 195.82C221.321 196.542 221.901 197.482 223.209 198.385C224.479 199.288 225.532 199.541 226.077 198.854C226.549 198.24 226.113 197.265 224.697 196.29Z"/>
  <path fill="currentColor" d="M205.056 224.14L205.636 223.02L206.145 223.454L205.419 224.826L204.801 225.224L201.207 220.022L201.897 219.552L205.056 224.14Z"/>
  <path fill="currentColor" d="M197.141 222.84L198.121 224.248L200.554 222.587L200.88 223.056L200.844 227.969L200.082 228.475L197.867 225.224L197.141 225.729L196.778 225.188L197.504 224.682L196.524 223.273L197.141 222.84ZM198.484 224.79L199.682 226.524C199.864 226.813 200.045 227.066 200.227 227.355H200.263C200.227 226.958 200.191 226.632 200.154 226.307L200.227 223.67L198.484 224.79Z"/>
  <path fill="currentColor" d="M193.547 229.197C192.312 227.427 192.312 225.982 193.474 225.224C194.491 224.537 195.834 225.007 197.032 226.741C198.23 228.475 198.121 229.956 197.068 230.678C195.979 231.401 194.672 230.859 193.547 229.197ZM196.342 227.174C195.398 225.802 194.454 225.332 193.837 225.765C193.111 226.271 193.329 227.319 194.273 228.655C195.144 229.956 196.052 230.57 196.778 230.064C197.359 229.667 197.286 228.583 196.342 227.174Z"/>
  <path fill="currentColor" d="M168.35 246.572L169.294 245.705L169.621 246.283L168.459 247.331L167.733 247.511L166.172 241.406L166.971 241.19L168.35 246.572Z"/>
  <path fill="currentColor" d="M161.852 248.414C162.033 248.378 162.251 248.306 162.469 248.234C163.703 247.692 164.175 246.572 164.066 245.525H164.03C163.848 245.994 163.413 246.428 162.723 246.608C161.634 246.897 160.653 246.283 160.363 245.091C160.073 243.971 160.581 242.743 161.852 242.418C163.159 242.093 164.284 242.888 164.683 244.477C164.974 245.669 164.792 246.753 164.357 247.511C163.957 248.125 163.376 248.631 162.614 248.92C162.36 249.028 162.178 249.065 162.033 249.137L161.852 248.414ZM161.198 244.838C161.416 245.705 162.069 246.102 162.832 245.922C163.34 245.813 163.703 245.38 163.848 244.874C163.885 244.766 163.885 244.621 163.848 244.477C163.558 243.466 162.904 242.851 162.033 243.068C161.307 243.249 160.944 243.971 161.198 244.838Z"/>
  <path fill="currentColor" d="M155.788 247.403C155.244 245.308 155.752 243.971 157.096 243.646C158.294 243.357 159.383 244.26 159.927 246.283C160.436 248.342 159.855 249.679 158.584 250.004C157.313 250.293 156.297 249.354 155.788 247.403ZM159.129 246.464C158.729 244.874 158.003 244.08 157.241 244.296C156.406 244.513 156.224 245.597 156.624 247.15C157.023 248.667 157.64 249.534 158.511 249.317C159.238 249.137 159.528 248.125 159.129 246.464Z"/>
  <path fill="currentColor" d="M126.127 255.205L127.288 254.736L127.397 255.386L125.945 255.964L125.219 255.892L125.872 249.606L126.707 249.679L126.127 255.205Z"/>
  <path fill="currentColor" d="M123.476 251.015C123.404 251.81 122.859 252.315 122.06 252.568V252.604C122.714 253.002 122.968 253.58 122.932 254.122C122.823 255.133 121.915 255.711 120.826 255.603C119.592 255.494 119.083 254.663 119.156 253.869C119.229 253.327 119.519 252.785 120.354 252.496V252.46C119.592 252.063 119.156 251.485 119.265 250.69C119.374 249.606 120.39 248.956 121.588 249.101C122.859 249.209 123.549 250.076 123.476 251.015ZM122.097 254.085C122.169 253.471 121.734 253.074 121.008 252.785C120.463 252.93 119.991 253.255 119.918 253.833C119.882 254.338 120.1 254.88 120.862 254.952C121.588 255.025 122.024 254.627 122.097 254.085ZM120.064 250.69C119.991 251.449 120.463 251.882 121.298 252.207C122.06 252.063 122.496 251.629 122.569 251.015C122.678 250.365 122.242 249.787 121.443 249.679C120.681 249.642 120.136 250.04 120.064 250.69Z"/>
  <path fill="currentColor" d="M114.037 251.665C114.255 249.534 115.162 248.45 116.578 248.559C117.813 248.667 118.539 249.931 118.321 251.99C118.103 254.085 117.086 255.169 115.779 255.025C114.472 254.916 113.855 253.688 114.037 251.665ZM117.486 251.918C117.667 250.293 117.232 249.317 116.469 249.245C115.598 249.173 115.09 250.112 114.908 251.738C114.763 253.291 115.053 254.338 115.925 254.411C116.687 254.483 117.304 253.652 117.486 251.918Z"/>
  <path fill="currentColor" d="M87.4609 244.549L87.2431 245.019L86.3354 245.308C84.1934 245.994 83.1768 246.391 82.7774 247.258C82.487 247.836 82.5233 248.486 83.3583 248.92C83.8666 249.173 84.4475 249.101 84.8106 249.028L84.7743 249.678C84.2297 249.823 83.5398 249.787 82.8863 249.462C81.6519 248.884 81.543 247.764 81.9424 246.969C82.4507 245.922 83.6488 245.452 85.3915 244.874L86.045 244.694L83.4672 243.465L83.794 242.815L87.4609 244.549Z"/>
  <path fill="currentColor" d="M77.7672 243.429C78.7112 241.515 79.9456 240.792 81.2163 241.407C82.3417 241.948 82.5596 243.357 81.6882 245.236C80.7443 247.15 79.401 247.8 78.2755 247.222C77.0411 246.608 76.8596 245.236 77.7672 243.429ZM80.8895 244.838C81.6156 243.357 81.5793 242.31 80.8532 241.948C80.0545 241.551 79.2557 242.31 78.5296 243.754C77.8398 245.163 77.7672 246.247 78.5659 246.644C79.2557 246.969 80.1271 246.355 80.8895 244.838Z"/>
  <path fill="currentColor" d="M73.2653 241.226C74.2092 239.311 75.4436 238.589 76.7143 239.203C77.8398 239.745 78.0577 241.154 77.1863 243.032C76.2424 244.946 74.899 245.597 73.7736 245.019C72.5392 244.441 72.3576 243.032 73.2653 241.226ZM76.3876 242.635C77.1137 241.154 77.0774 240.106 76.3513 239.745C75.5526 239.348 74.7538 240.106 74.0277 241.551C73.3379 242.96 73.2653 244.043 74.064 244.441C74.7538 244.766 75.6252 244.188 76.3876 242.635Z"/>
  <path fill="currentColor" d="M50.6467 225.368L50.2836 225.729L49.3397 225.693C47.0887 225.585 45.9996 225.621 45.3097 226.307C44.8378 226.741 44.6199 227.391 45.2734 228.077C45.6728 228.475 46.2174 228.619 46.5804 228.655L46.3263 229.269C45.7454 229.197 45.1282 228.944 44.6199 228.439C43.676 227.463 43.9301 226.416 44.5836 225.765C45.4187 224.971 46.6894 224.899 48.541 224.971L49.2308 225.007L47.2703 222.948L47.7785 222.442L50.6467 225.368Z"/>
  <path fill="currentColor" d="M47.1613 221.756L46.7983 222.117L45.8543 222.081C43.6033 221.973 42.5142 222.009 41.8244 222.695C41.3524 223.129 41.1345 223.779 41.788 224.465C42.1874 224.862 42.732 225.007 43.0951 225.043L42.8409 225.657C42.26 225.585 41.6428 225.332 41.1345 224.826C40.1906 223.851 40.4447 222.803 41.0982 222.153C41.9333 221.359 43.204 221.286 45.0556 221.359L45.7454 221.395L43.7849 219.336L44.2932 218.83L47.1613 221.756Z"/>
  <path fill="currentColor" d="M38.4479 217.385C40.0091 215.904 41.425 215.651 42.4053 216.663C43.2766 217.566 43.0225 218.938 41.4976 220.419C39.9728 221.9 38.4842 222.045 37.5766 221.106C36.6689 220.166 36.9957 218.794 38.4479 217.385ZM40.9167 219.805C42.1148 218.649 42.4416 217.674 41.897 217.096C41.2798 216.482 40.2632 216.879 39.1014 217.999C37.9759 219.083 37.5039 220.058 38.1211 220.708C38.6294 221.25 39.646 220.997 40.9167 219.805Z"/>
  <path fill="currentColor" d="M22.8727 195.061L22.4007 195.278L21.5294 194.917C19.4599 194.05 18.4071 193.725 17.5357 194.086C16.9548 194.339 16.5191 194.881 16.9185 195.748C17.1363 196.253 17.6083 196.579 17.9351 196.759L17.4994 197.265C16.9911 197.012 16.4828 196.542 16.1924 195.892C15.6478 194.664 16.265 193.761 17.1 193.4C18.1892 192.93 19.3873 193.327 21.0937 194.014L21.7109 194.303L20.5491 191.702L21.2026 191.413L22.8727 195.061Z"/>
  <path fill="currentColor" d="M19.7504 188.09L18.1529 188.776L19.351 191.449L18.8427 191.666L14.014 190.727L13.651 189.896L17.2453 188.306L16.8822 187.512L17.4994 187.259L17.8625 188.054L19.4599 187.367L19.7504 188.09ZM17.572 189.065L15.6478 189.932C15.3574 190.076 15.0306 190.185 14.7402 190.293V190.329C15.1758 190.365 15.4663 190.402 15.793 190.438L18.4071 190.98L17.572 189.065Z"/>
  <path fill="currentColor" d="M14.1593 183.394C16.1198 182.527 17.5357 182.78 18.1166 184.044C18.6249 185.164 17.8988 186.392 15.9746 187.259C14.014 188.126 12.5981 187.765 12.0535 186.573C11.5089 185.381 12.3077 184.225 14.1593 183.394ZM15.6115 186.5C17.1363 185.85 17.7899 184.983 17.4631 184.297C17.1 183.502 16.0109 183.538 14.5223 184.189C13.1064 184.803 12.3077 185.597 12.6707 186.392C12.9975 187.078 14.0503 187.187 15.6115 186.5Z"/>
  <path fill="currentColor" d="M7.22489 156.988L6.71661 157.024L6.0268 156.41C4.39303 154.893 3.52169 154.243 2.57774 154.279C1.92423 154.315 1.34334 154.676 1.41595 155.616C1.45226 156.194 1.77901 156.627 2.03315 156.916L1.45226 157.241C1.05289 156.844 0.726141 156.23 0.689835 155.507C0.617223 154.135 1.48856 153.52 2.39621 153.448C3.558 153.376 4.57456 154.171 5.95419 155.399L6.46247 155.868H6.49878L6.31725 153.051L7.04336 153.015L7.22489 156.988Z"/>
  <path fill="currentColor" d="M0.943941 148.788C0.943941 148.969 0.980247 149.186 1.01655 149.439C1.34331 150.775 2.35987 151.389 3.41274 151.498V151.462C2.97707 151.173 2.61401 150.667 2.57771 149.981C2.50509 148.861 3.26752 148.03 4.50192 147.958C5.6637 147.885 6.78919 148.608 6.8618 149.908C6.93441 151.245 5.95415 152.22 4.32039 152.328C3.08599 152.401 2.06942 152.039 1.41592 151.462C0.87133 150.956 0.508271 150.306 0.363048 149.511C0.290436 149.258 0.290436 149.041 0.290436 148.897L0.943941 148.788ZM4.61083 148.788C3.70319 148.861 3.19491 149.403 3.23121 150.197C3.26752 150.703 3.63058 151.173 4.10255 151.353C4.21147 151.389 4.32039 151.425 4.50192 151.425C5.55479 151.353 6.2809 150.811 6.20829 149.908C6.17199 149.186 5.51848 148.752 4.61083 148.788Z"/>
  <path fill="currentColor" d="M3.086 143.081C5.22804 142.937 6.46244 143.659 6.57136 145.068C6.64397 146.296 5.5548 147.199 3.44906 147.344C1.34331 147.488 0.108915 146.657 -2.49641e-06 145.357C-0.0726142 144.02 1.05287 143.189 3.086 143.081ZM3.41275 146.477C5.04651 146.368 5.95416 145.79 5.91785 145.032C5.84524 144.165 4.82868 143.804 3.19491 143.912C1.63376 144.02 0.653503 144.49 0.689809 145.357C0.726115 146.115 1.67007 146.585 3.41275 146.477Z"/>
  <path fill="currentColor" d="M5.73632 115.881L5.22804 115.736L4.79237 114.906C3.77581 112.919 3.19491 112.016 2.28727 111.727C1.67007 111.546 1.01656 111.691 0.726112 112.594C0.580889 113.136 0.726112 113.677 0.871336 114.039L0.21783 114.147C-5.56652e-06 113.641 -0.108923 112.955 0.108912 112.269C0.508277 110.968 1.56115 110.679 2.43249 110.932C3.55797 111.257 4.21148 112.341 5.08282 113.966L5.37326 114.581H5.40957L6.2083 111.871L6.89811 112.088L5.73632 115.881Z"/>
  <path fill="currentColor" d="M5.59111 110.752C4.82869 110.535 4.42932 109.921 4.32041 109.09H4.2841C3.77582 109.668 3.15862 109.812 2.65034 109.668C1.67008 109.379 1.27071 108.367 1.59747 107.32C1.96052 106.128 2.86817 105.767 3.63059 105.983C4.13888 106.128 4.61085 106.561 4.75608 107.392H4.79238C5.30067 106.742 5.99048 106.417 6.71659 106.634C7.76946 106.959 8.20514 108.042 7.87838 109.198C7.47902 110.463 6.49876 111.004 5.59111 110.752ZM2.83187 108.837C3.44907 109.018 3.92104 108.656 4.2841 108.006C4.24779 107.428 3.99365 106.923 3.44907 106.778C2.97709 106.634 2.35989 106.778 2.14205 107.5C1.96052 108.187 2.28728 108.693 2.83187 108.837ZM6.53507 107.464C5.80895 107.248 5.30067 107.645 4.82869 108.404C4.82869 109.162 5.19175 109.704 5.77264 109.848C6.38984 110.065 7.07965 109.74 7.29749 108.982C7.47902 108.259 7.15227 107.645 6.53507 107.464Z"/>
  <path fill="currentColor" d="M6.64397 101.396C8.7134 102.01 9.62105 103.094 9.22169 104.43C8.85863 105.622 7.51531 106.092 5.51849 105.514C3.48536 104.9 2.61402 103.708 2.97708 102.479C3.37644 101.215 4.71976 100.854 6.64397 101.396ZM5.77263 104.719C7.37009 105.189 8.38665 104.972 8.60449 104.213C8.85863 103.383 7.98729 102.696 6.42614 102.227C4.93759 101.793 3.84842 101.865 3.59428 102.732C3.41275 103.455 4.13887 104.249 5.77263 104.719Z"/>
  <path fill="currentColor" d="M17.7535 75.9656C18.0077 75.8572 18.5523 75.5683 18.9153 75.0625C19.5688 74.1956 19.2058 73.5093 18.7701 73.1842C18.044 72.6785 17.2816 73.0758 16.7733 73.7621L16.4828 74.1595L15.9746 73.7621L16.265 73.3648C16.6281 72.8591 16.8459 72.0282 16.2287 71.5948C15.8293 71.3058 15.2847 71.2697 14.8128 71.9199C14.5223 72.3172 14.4134 72.8591 14.4134 73.1842L13.7599 73.0036C13.7599 72.6062 13.9414 71.9199 14.3408 71.378C15.0669 70.3666 16.0109 70.3666 16.6281 70.8362C17.1363 71.2335 17.3542 71.8476 17.1363 72.6423C17.7172 72.1005 18.5886 71.956 19.2784 72.4617C20.0771 73.0758 20.3313 74.2317 19.4236 75.4238C18.9879 76.0017 18.4434 76.3629 18.0803 76.4713L17.7535 75.9656Z"/>
  <path fill="currentColor" d="M21.3115 67.4407C23.0542 68.705 23.5262 70.0777 22.6911 71.1975C21.965 72.1728 20.5128 72.1728 18.8064 70.9446C17.1 69.6803 16.7007 68.2715 17.4631 67.224C18.2618 66.1403 19.6778 66.2486 21.3115 67.4407ZM19.3147 70.2583C20.658 71.2336 21.7109 71.3781 22.1466 70.764C22.6548 70.0777 22.1102 69.1023 20.8032 68.1631C19.5325 67.224 18.4797 66.9711 17.9714 67.6574C17.5357 68.2354 17.9351 69.2107 19.3147 70.2583Z"/>
  <path fill="currentColor" d="M24.2886 63.4311C26.0313 64.6954 26.5033 66.068 25.6682 67.1878C24.9421 68.1631 23.4899 68.1632 21.7835 66.935C20.0771 65.6707 19.6778 64.2619 20.4402 63.2144C21.2389 62.1307 22.6548 62.2391 24.2886 63.4311ZM22.2918 66.2487C23.6351 67.224 24.688 67.3685 25.1236 66.7544C25.6319 66.068 25.0873 65.0927 23.7803 64.1536C22.5096 63.2144 21.4567 62.9615 20.9485 63.6478C20.5128 64.2258 20.9122 65.2011 22.2918 66.2487Z"/>
  <path fill="currentColor" d="M43.5671 43.3108C43.8575 43.3108 44.4747 43.2025 44.9467 42.8774C45.8543 42.2633 45.7817 41.5047 45.455 41.0712C44.9467 40.3488 44.0753 40.4571 43.3855 40.9267L42.9862 41.1796L42.6231 40.6378L43.0225 40.3849C43.5308 40.0598 44.039 39.3374 43.6034 38.7233C43.3129 38.2898 42.8046 38.1092 42.1511 38.5427C41.7155 38.8316 41.4613 39.2651 41.3161 39.5902L40.7715 39.1929C40.9167 38.7955 41.3161 38.2537 41.897 37.8925C42.9499 37.2061 43.8212 37.5312 44.2569 38.1453C44.6199 38.6871 44.5836 39.3735 44.1116 40.0237C44.8378 39.7347 45.7091 39.8792 46.1811 40.6016C46.7257 41.4325 46.5804 42.6245 45.3097 43.4553C44.7288 43.8527 44.0753 43.9972 43.7123 43.9972L43.5671 43.3108Z"/>
  <path fill="currentColor" d="M48.1053 41.5047L47.8148 41.0712L48.0327 40.1682C48.5409 38.0008 48.6862 36.9171 48.1779 36.1224C47.8148 35.5806 47.2339 35.2555 46.4352 35.7973C45.9632 36.1224 45.7091 36.6282 45.6002 36.9894L45.0556 36.6282C45.2008 36.0863 45.6002 35.5084 46.1811 35.111C47.3065 34.3524 48.3231 34.822 48.8314 35.5806C49.4849 36.5559 49.3034 37.8202 48.8677 39.5902L48.6862 40.2404L51.0823 38.6871L51.4817 39.2651L48.1053 41.5047Z"/>
  <path fill="currentColor" d="M54.0231 33.7745C55.2212 35.5806 55.1849 36.9894 54.0231 37.748C53.0066 38.4343 51.6632 37.9286 50.4651 36.1947C49.3034 34.4247 49.4123 32.9437 50.5015 32.2574C51.6269 31.5349 52.9339 32.0767 54.0231 33.7745ZM51.2276 35.7251C52.1352 37.0978 53.0792 37.6035 53.7327 37.17C54.4588 36.7004 54.241 35.6167 53.3696 34.2441C52.4983 32.9437 51.6269 32.3296 50.8645 32.7992C50.211 33.2327 50.2473 34.3163 51.2276 35.7251Z"/>
  <path fill="currentColor" d="M79.0379 21.6374C79.3283 21.7457 79.9092 21.8541 80.4901 21.7096C81.5793 21.4567 81.7245 20.6982 81.6156 20.1925C81.3978 19.3255 80.5264 19.1449 79.7277 19.3255L79.2557 19.4339L79.1105 18.8198L79.5825 18.7114C80.1997 18.5669 80.8895 18.0612 80.7079 17.3388C80.599 16.8331 80.1634 16.4718 79.4009 16.6525C78.8927 16.7608 78.4933 17.0859 78.2755 17.3388L77.9124 16.7969C78.1665 16.4718 78.7474 16.1106 79.4009 15.93C80.599 15.641 81.3251 16.219 81.5067 16.9776C81.6519 17.6278 81.3978 18.2418 80.7079 18.6753V18.7114C81.5067 18.6753 82.2691 19.1088 82.4506 19.9757C82.6685 20.951 82.1239 21.9986 80.6353 22.3598C79.9455 22.5404 79.292 22.4321 78.929 22.3237L79.0379 21.6374Z"/>
  <path fill="currentColor" d="M86.5169 20.9149L86.1175 19.2533L83.2493 19.9396L83.1041 19.3977L84.9194 14.8463L85.8271 14.6296L86.7347 18.4586L87.606 18.2418L87.7513 18.892L86.8799 19.1088L87.2793 20.7704L86.5169 20.9149ZM85.9723 18.5669L85.5003 16.5079C85.4277 16.1828 85.3551 15.8577 85.2825 15.5326H85.2462C85.1372 15.93 85.0646 16.219 84.9557 16.5441L83.9391 19.0004V19.0365L85.9723 18.5669Z"/>
  <path fill="currentColor" d="M92.1443 16.2551C92.6526 18.3502 92.1443 19.6867 90.7647 20.0118C89.5666 20.3008 88.4774 19.3616 87.9691 17.3388C87.4971 15.2798 88.1143 13.9433 89.3487 13.6543C90.692 13.3292 91.7086 14.3045 92.1443 16.2551ZM88.8404 17.1582C89.2035 18.7476 89.9296 19.5423 90.692 19.3616C91.5634 19.1449 91.7086 18.0612 91.3456 16.508C90.9825 14.9908 90.3653 14.0878 89.4939 14.3045C88.7678 14.449 88.4411 15.4604 88.8404 17.1582Z"/>
  <path fill="currentColor" d="M123.004 33.8468C122.605 33.8468 122.278 33.5217 122.278 33.1243V21.7457C122.278 21.3484 122.605 21.0233 123.004 21.0233C123.404 21.0233 123.73 21.3484 123.73 21.7457V33.1243C123.767 33.4855 123.44 33.8468 123.004 33.8468Z"/>
  <path fill="currentColor" d="M157.422 39.8792C157.35 39.8792 157.241 39.8792 157.168 39.8431C156.769 39.6986 156.587 39.2651 156.732 38.9039L160.653 28.2117C160.799 27.8143 161.234 27.6337 161.597 27.7782C161.997 27.9227 162.178 28.3561 162.033 28.7174L158.112 39.3735C158.003 39.6986 157.713 39.8792 157.422 39.8792Z"/>
  <path fill="currentColor" d="M187.701 57.2541C187.52 57.2541 187.375 57.1819 187.229 57.0735C186.903 56.8207 186.866 56.3511 187.121 56.026L194.454 47.3204C194.708 46.9953 195.18 46.9592 195.507 47.2121C195.834 47.4649 195.87 47.9345 195.616 48.2596L188.282 56.9651C188.101 57.1458 187.883 57.2541 187.701 57.2541Z"/>
  <path fill="currentColor" d="M210.138 83.8764C209.884 83.8764 209.63 83.7319 209.485 83.5152C209.267 83.154 209.412 82.7205 209.739 82.5037L219.614 76.8325C219.977 76.6158 220.413 76.7603 220.631 77.0854C220.849 77.4466 220.703 77.8801 220.377 78.0968L210.501 83.768C210.393 83.8403 210.284 83.8764 210.138 83.8764Z"/>
  <path fill="currentColor" d="M222.083 116.531C221.72 116.531 221.43 116.278 221.357 115.917C221.284 115.52 221.538 115.122 221.974 115.05L233.229 113.063C233.628 112.991 234.028 113.244 234.1 113.677C234.173 114.075 233.919 114.472 233.483 114.544L222.228 116.531C222.192 116.531 222.119 116.531 222.083 116.531Z"/>
  <path fill="currentColor" d="M233.338 153.268C233.302 153.268 233.265 153.268 233.193 153.268L221.938 151.281C221.538 151.209 221.248 150.811 221.321 150.414C221.393 150.017 221.793 149.728 222.192 149.8L233.447 151.787C233.846 151.859 234.137 152.256 234.064 152.654C234.028 153.051 233.701 153.268 233.338 153.268Z"/>
  <path fill="currentColor" d="M220.05 189.679C219.941 189.679 219.796 189.643 219.687 189.571L209.775 183.863C209.412 183.647 209.303 183.213 209.521 182.852C209.739 182.491 210.175 182.382 210.538 182.599L220.413 188.27C220.776 188.487 220.885 188.921 220.667 189.282C220.558 189.535 220.304 189.679 220.05 189.679Z"/>
  <path fill="currentColor" d="M195.035 219.3C194.817 219.3 194.599 219.227 194.454 219.047L187.121 210.341C186.866 210.016 186.903 209.547 187.229 209.294C187.556 209.041 188.028 209.077 188.282 209.402L195.616 218.108C195.87 218.433 195.834 218.902 195.507 219.155C195.362 219.263 195.18 219.3 195.035 219.3Z"/>
  <path fill="currentColor" d="M161.343 238.661C161.053 238.661 160.762 238.481 160.654 238.192L156.732 227.499C156.587 227.102 156.805 226.705 157.168 226.56C157.567 226.416 157.967 226.632 158.112 226.994L162.033 237.686C162.178 238.083 161.961 238.481 161.598 238.625C161.489 238.661 161.416 238.661 161.343 238.661Z"/>
  <path fill="currentColor" d="M123.004 245.38C122.605 245.38 122.278 245.055 122.278 244.658V233.279C122.278 232.882 122.605 232.556 123.004 232.556C123.404 232.556 123.73 232.882 123.73 233.279V244.658C123.767 245.055 123.44 245.38 123.004 245.38Z"/>
  <path fill="currentColor" d="M84.7016 238.661C84.6289 238.661 84.52 238.661 84.4474 238.625C84.0481 238.481 83.8665 238.047 84.0117 237.686L87.9328 226.994C88.078 226.596 88.5137 226.416 88.8768 226.56C89.2761 226.705 89.4576 227.138 89.3124 227.499L85.3914 238.192C85.2825 238.481 84.992 238.661 84.7016 238.661Z"/>
  <path fill="currentColor" d="M51.0097 219.3C50.8282 219.3 50.683 219.227 50.5378 219.119C50.211 218.866 50.1747 218.397 50.4288 218.071L57.7626 209.366C58.0168 209.041 58.4887 209.005 58.8155 209.257C59.1422 209.51 59.1785 209.98 58.9244 210.305L51.5906 219.011C51.4454 219.227 51.2276 219.3 51.0097 219.3Z"/>
  <path fill="currentColor" d="M25.995 189.679C25.7409 189.679 25.4867 189.535 25.3415 189.318C25.1237 188.957 25.2689 188.523 25.5956 188.306L35.4708 182.635C35.8339 182.418 36.2696 182.563 36.4874 182.888C36.7053 183.249 36.56 183.683 36.2333 183.899L26.3581 189.571C26.2492 189.643 26.1402 189.679 25.995 189.679Z"/>
  <path fill="currentColor" d="M12.6707 153.268C12.3077 153.268 12.0172 153.015 11.9446 152.654C11.872 152.256 12.1261 151.859 12.5618 151.787L23.8166 149.8C24.216 149.728 24.6154 149.981 24.688 150.414C24.7606 150.811 24.5064 151.209 24.0708 151.281L12.8159 153.268C12.7796 153.268 12.7433 153.268 12.6707 153.268Z"/>
  <path fill="currentColor" d="M23.9256 116.531C23.8893 116.531 23.8529 116.531 23.7803 116.531L12.5255 114.544C12.1261 114.472 11.8357 114.075 11.9083 113.677C11.9809 113.28 12.3803 112.991 12.7797 113.063L24.0345 115.05C24.4338 115.122 24.7243 115.52 24.6517 115.917C24.6154 116.314 24.2886 116.531 23.9256 116.531Z"/>
  <path fill="currentColor" d="M35.9065 83.8764C35.7976 83.8764 35.6523 83.8403 35.5434 83.768L25.6682 78.0968C25.3052 77.8801 25.1962 77.4466 25.4141 77.0854C25.6319 76.7241 26.0676 76.6158 26.4306 76.8325L36.3058 82.5037C36.6689 82.7205 36.7778 83.1539 36.56 83.5152C36.3785 83.7319 36.1606 83.8764 35.9065 83.8764Z"/>
  <path fill="currentColor" d="M58.3435 57.2541C58.1257 57.2541 57.9078 57.1819 57.7626 57.0013L50.4288 48.2958C50.1747 47.9707 50.211 47.5011 50.5378 47.2482C50.8645 46.9954 51.3365 47.0315 51.5906 47.3566L58.9244 56.0621C59.1785 56.3872 59.1422 56.8568 58.8155 57.1096C58.6703 57.1819 58.525 57.2541 58.3435 57.2541Z"/>
  <path fill="currentColor" d="M88.6226 39.8792C88.3322 39.8792 88.0417 39.6986 87.9328 39.4096L84.0118 28.7174C83.8666 28.32 84.0844 27.9227 84.4475 27.7782C84.8468 27.6337 85.2462 27.8504 85.3914 28.2117L89.3124 38.9039C89.4577 39.3013 89.2398 39.6986 88.8768 39.8431C88.7679 39.8431 88.6952 39.8792 88.6226 39.8792Z"/>
  <path fill="currentColor" d="M122.859 31.7155C122.641 31.7155 122.496 31.5349 122.496 31.3543V24.0214C122.496 23.8047 122.678 23.6602 122.859 23.6602C123.041 23.6602 123.222 23.8408 123.222 24.0214V31.3182C123.222 31.5349 123.077 31.7155 122.859 31.7155Z"/>
  <path fill="currentColor" d="M126.417 31.7516C126.199 31.7516 126.054 31.571 126.054 31.3543L126.308 24.0575C126.308 23.8408 126.526 23.6963 126.707 23.6963C126.925 23.6963 127.071 23.8769 127.071 24.0937L126.816 31.4265C126.78 31.6071 126.635 31.7516 126.417 31.7516Z"/>
  <path fill="currentColor" d="M130.011 31.9323C129.975 31.9323 129.975 31.9323 130.011 31.9323C129.793 31.9323 129.612 31.7517 129.648 31.5349L130.157 24.2382C130.157 24.0214 130.338 23.8769 130.556 23.9131C130.774 23.9131 130.919 24.0937 130.883 24.3104L130.374 31.6072C130.374 31.7878 130.193 31.9323 130.011 31.9323Z"/>
  <path fill="currentColor" d="M133.569 32.2573H133.533C133.315 32.2212 133.17 32.0406 133.206 31.86L133.969 24.5633C134.005 24.3465 134.186 24.202 134.368 24.2382C134.586 24.2743 134.731 24.4549 134.695 24.6355L133.932 31.8961C133.896 32.1129 133.751 32.2573 133.569 32.2573Z"/>
  <path fill="currentColor" d="M137.091 32.6908H137.055C136.837 32.6547 136.728 32.4741 136.728 32.2573L137.744 25.0328C137.781 24.8161 137.962 24.7077 138.18 24.7077C138.398 24.7439 138.507 24.9245 138.507 25.1412L137.49 32.3657C137.454 32.5463 137.272 32.6908 137.091 32.6908Z"/>
  <path fill="currentColor" d="M140.649 33.2327C140.613 33.2327 140.613 33.2327 140.576 33.2327C140.359 33.1965 140.25 33.0159 140.286 32.7992L141.557 25.6108C141.593 25.3941 141.774 25.2857 141.992 25.3218C142.21 25.358 142.319 25.5386 142.283 25.7553L141.012 32.9437C140.976 33.0882 140.83 33.2327 140.649 33.2327Z"/>
  <path fill="currentColor" d="M144.134 33.919C144.098 33.919 144.098 33.919 144.062 33.919C143.844 33.8828 143.735 33.6661 143.771 33.4855L145.296 26.3332C145.332 26.1165 145.55 26.0081 145.732 26.0443C145.95 26.0804 146.059 26.2971 146.022 26.4777L144.497 33.5939C144.461 33.7745 144.316 33.919 144.134 33.919Z"/>
  <path fill="currentColor" d="M147.62 34.7137C147.583 34.7137 147.547 34.7137 147.547 34.7137C147.366 34.6776 147.22 34.4608 147.293 34.2802L149.072 27.2002C149.108 27.0196 149.326 26.8751 149.508 26.9473C149.689 26.9835 149.834 27.2002 149.762 27.3808L147.983 34.4608C147.946 34.5692 147.801 34.7137 147.62 34.7137Z"/>
  <path fill="currentColor" d="M151.069 35.6167C151.032 35.6167 150.996 35.6167 150.96 35.6167C150.778 35.5445 150.633 35.3639 150.706 35.1472L152.739 28.1394C152.811 27.9588 152.993 27.8504 153.211 27.8865C153.392 27.9588 153.538 28.1394 153.465 28.3561L151.432 35.3639C151.396 35.5084 151.25 35.6167 151.069 35.6167Z"/>
  <path fill="currentColor" d="M154.518 36.6643C154.481 36.6643 154.445 36.6643 154.409 36.6643C154.227 36.592 154.118 36.3753 154.155 36.1947L156.442 29.2592C156.515 29.0786 156.732 28.9702 156.914 29.0063C157.096 29.0786 157.204 29.2953 157.168 29.4759L154.881 36.4114C154.808 36.5559 154.663 36.6643 154.518 36.6643Z"/>
  <path fill="currentColor" d="M157.894 37.7841C157.858 37.7841 157.822 37.7841 157.785 37.748C157.604 37.6757 157.495 37.459 157.567 37.2784L160.073 30.4151C160.145 30.2345 160.363 30.1261 160.545 30.1984C160.726 30.2706 160.835 30.4874 160.762 30.668L158.257 37.5312C158.185 37.7119 158.039 37.7841 157.894 37.7841Z"/>
  <path fill="currentColor" d="M161.234 39.0845C161.198 39.0845 161.125 39.0845 161.089 39.0484C160.908 38.9761 160.799 38.7594 160.871 38.5788L163.631 31.7878C163.703 31.6072 163.921 31.4988 164.103 31.571C164.284 31.6433 164.393 31.86 164.32 32.0406L161.561 38.8316C161.489 38.9761 161.38 39.0845 161.234 39.0845Z"/>
  <path fill="currentColor" d="M164.502 40.4572C164.466 40.4572 164.393 40.4572 164.357 40.4211C164.175 40.3488 164.103 40.1321 164.175 39.9515L167.152 33.2688C167.225 33.0882 167.443 33.016 167.624 33.0882C167.806 33.1604 167.878 33.3772 167.806 33.5578L164.829 40.2404C164.792 40.3849 164.647 40.4572 164.502 40.4572Z"/>
  <path fill="currentColor" d="M167.733 41.9382C167.697 41.9382 167.624 41.9382 167.588 41.9021C167.406 41.8298 167.334 41.5769 167.406 41.3963L170.638 34.822C170.71 34.6414 170.964 34.5692 171.146 34.6414C171.328 34.7137 171.4 34.9665 171.328 35.1471L168.096 41.7214C168.024 41.8659 167.878 41.9382 167.733 41.9382Z"/>
  <path fill="currentColor" d="M170.928 43.5637C170.855 43.5637 170.819 43.5637 170.747 43.5276C170.565 43.4192 170.492 43.2025 170.601 43.0219L174.05 36.5559C174.159 36.3753 174.377 36.3031 174.559 36.4115C174.74 36.5198 174.813 36.7366 174.704 36.9172L171.255 43.3831C171.182 43.4915 171.073 43.5637 170.928 43.5637Z"/>
  <path fill="currentColor" d="M174.05 45.2615C173.978 45.2615 173.941 45.2615 173.869 45.2254C173.687 45.117 173.615 44.9003 173.724 44.7196L177.391 38.3982C177.499 38.2176 177.717 38.1453 177.899 38.2537C178.08 38.3621 178.153 38.5788 178.044 38.7594L174.377 45.0809C174.305 45.2254 174.196 45.2615 174.05 45.2615Z"/>
  <path fill="currentColor" d="M177.136 47.1037C177.064 47.1037 176.991 47.1037 176.955 47.0315C176.773 46.9231 176.737 46.7064 176.846 46.5258L180.731 40.3127C180.84 40.1321 181.057 40.096 181.239 40.2043C181.42 40.3127 181.457 40.5294 181.348 40.71L177.463 46.9231C177.391 47.0315 177.245 47.1037 177.136 47.1037Z"/>
  <path fill="currentColor" d="M180.114 49.0543C180.041 49.0543 179.968 49.0182 179.896 48.982C179.714 48.8737 179.678 48.6208 179.787 48.4763L183.889 42.4078C183.998 42.2271 184.252 42.191 184.398 42.2994C184.579 42.4078 184.615 42.6606 184.506 42.8051L180.44 48.8737C180.368 48.982 180.259 49.0543 180.114 49.0543Z"/>
  <path fill="currentColor" d="M183.054 51.0772C182.982 51.0772 182.909 51.0411 182.836 51.005C182.655 50.8966 182.619 50.6437 182.764 50.4992L187.084 44.5752C187.193 44.3945 187.447 44.3584 187.592 44.5029C187.774 44.6113 187.81 44.8641 187.665 45.0086L183.345 50.9327C183.272 51.005 183.163 51.0772 183.054 51.0772Z"/>
  <path fill="currentColor" d="M185.922 53.2084C185.85 53.2084 185.777 53.1723 185.705 53.1362C185.559 53.0278 185.523 52.7749 185.632 52.6304L190.17 46.887C190.279 46.7425 190.533 46.7064 190.678 46.8147C190.824 46.9231 190.86 47.1759 190.751 47.3204L186.213 53.0639C186.14 53.1723 186.031 53.2084 185.922 53.2084Z"/>
  <path fill="currentColor" d="M188.682 55.448C188.609 55.448 188.5 55.4119 188.428 55.3757C188.282 55.2312 188.246 55.0145 188.391 54.87L193.111 49.271C193.256 49.1265 193.474 49.0904 193.619 49.2349C193.765 49.3794 193.801 49.5961 193.656 49.7406L188.936 55.3396C188.9 55.4119 188.791 55.448 188.682 55.448Z"/>
  <path fill="currentColor" d="M191.405 57.7598C191.332 57.7598 191.223 57.7237 191.15 57.6515C191.005 57.507 190.969 57.2902 191.114 57.1458L196.015 51.7274C196.161 51.5829 196.378 51.5468 196.524 51.6913C196.669 51.8357 196.705 52.0525 196.56 52.197L191.659 57.6153C191.586 57.7237 191.514 57.7598 191.405 57.7598Z"/>
  <path fill="currentColor" d="M194.019 60.18C193.91 60.18 193.837 60.1439 193.764 60.0717C193.619 59.9272 193.619 59.7104 193.764 59.566L198.884 54.3282C199.029 54.1837 199.247 54.1837 199.392 54.3282C199.537 54.4727 199.537 54.6894 199.392 54.8339L194.273 60.0717C194.2 60.1439 194.128 60.18 194.019 60.18Z"/>
  <path fill="currentColor" d="M196.56 62.7086C196.451 62.7086 196.379 62.6725 196.306 62.6002C196.161 62.4558 196.161 62.2029 196.306 62.0945L201.57 57.0013C201.715 56.8568 201.97 56.8568 202.079 57.0013C202.224 57.1457 202.224 57.3986 202.079 57.507L196.814 62.6002C196.742 62.6725 196.633 62.7086 196.56 62.7086Z"/>
  <path fill="currentColor" d="M198.993 65.3094C198.884 65.3094 198.775 65.2733 198.702 65.201C198.557 65.0566 198.593 64.8037 198.738 64.6953L204.184 59.8188C204.33 59.6743 204.584 59.7105 204.693 59.8549C204.838 59.9994 204.801 60.2523 204.656 60.3607L199.21 65.2372C199.174 65.2733 199.065 65.3094 198.993 65.3094Z"/>
  <path fill="currentColor" d="M201.316 67.9825C201.207 67.9825 201.098 67.9464 201.026 67.838C200.88 67.6935 200.917 67.4407 201.062 67.3323L206.689 62.6364C206.835 62.4919 207.089 62.528 207.198 62.6725C207.343 62.817 207.307 63.0698 207.161 63.1782L201.534 67.8741C201.498 67.9464 201.425 67.9825 201.316 67.9825Z"/>
  <path fill="currentColor" d="M203.603 70.7278C203.495 70.7278 203.386 70.6916 203.313 70.5833C203.204 70.4388 203.204 70.1859 203.386 70.0776L209.158 65.5623C209.303 65.4539 209.558 65.4539 209.666 65.6345C209.775 65.779 209.775 66.0319 209.594 66.1402L203.821 70.6555C203.749 70.6916 203.676 70.7278 203.603 70.7278Z"/>
  <path fill="currentColor" d="M205.745 73.5814C205.637 73.5814 205.528 73.5453 205.455 73.437C205.346 73.2563 205.382 73.0396 205.528 72.9312L211.482 68.6327C211.663 68.5243 211.881 68.5604 211.99 68.7049C212.099 68.8855 212.063 69.1023 211.917 69.2106L205.963 73.5092C205.891 73.5453 205.818 73.5814 205.745 73.5814Z"/>
  <path fill="currentColor" d="M207.779 76.4713C207.67 76.4713 207.524 76.399 207.488 76.2906C207.379 76.11 207.415 75.8933 207.597 75.7849L213.696 71.7031C213.878 71.5947 214.096 71.6309 214.205 71.8115C214.314 71.9921 214.277 72.2088 214.096 72.3172L207.996 76.399C207.924 76.4713 207.851 76.4713 207.779 76.4713Z"/>
  <path fill="currentColor" d="M209.739 79.4694C209.63 79.4694 209.485 79.3972 209.412 79.2888C209.303 79.1082 209.34 78.8915 209.521 78.7831L215.766 74.918C215.947 74.8096 216.165 74.8458 216.274 75.0264C216.383 75.207 216.347 75.4237 216.165 75.5321L209.921 79.3972C209.884 79.4333 209.812 79.4694 209.739 79.4694Z"/>
  <path fill="currentColor" d="M211.591 82.5038C211.445 82.5038 211.337 82.4315 211.264 82.3231C211.155 82.1425 211.228 81.9258 211.409 81.8174L217.763 78.169C217.944 78.0607 218.162 78.1329 218.271 78.3135C218.38 78.4941 218.307 78.7109 218.126 78.8192L211.772 82.4676C211.7 82.4676 211.663 82.5038 211.591 82.5038Z"/>
  <path fill="currentColor" d="M213.333 85.6103C213.188 85.6103 213.079 85.538 213.007 85.4296C212.898 85.249 212.97 85.0323 213.152 84.9239L219.651 81.4923C219.832 81.3839 220.05 81.4562 220.159 81.6368C220.268 81.8174 220.195 82.0341 220.014 82.1425L213.515 85.5741C213.442 85.6102 213.37 85.6103 213.333 85.6103Z"/>
  <path fill="currentColor" d="M214.967 88.789C214.822 88.789 214.713 88.7168 214.64 88.5723C214.568 88.3917 214.64 88.1749 214.822 88.0666L221.429 84.8517C221.611 84.7794 221.829 84.8517 221.938 85.0323C222.01 85.2129 221.938 85.4296 221.756 85.538L215.149 88.7529C215.076 88.7529 215.003 88.789 214.967 88.789Z"/>
  <path fill="currentColor" d="M216.456 92.0039C216.31 92.0039 216.165 91.9316 216.129 91.7872C216.056 91.6065 216.129 91.3898 216.31 91.3176L223.027 88.3555C223.209 88.2833 223.426 88.3555 223.499 88.5361C223.572 88.7168 223.499 88.9335 223.317 89.0057L216.601 91.9678C216.565 91.9678 216.528 92.0039 216.456 92.0039Z"/>
  <path fill="currentColor" d="M217.872 95.255C217.726 95.255 217.581 95.1827 217.545 95.0382C217.472 94.8576 217.545 94.6409 217.763 94.5686L224.588 91.8234C224.77 91.7511 224.988 91.8234 225.06 92.0401C225.133 92.2207 225.06 92.4374 224.842 92.5097L218.017 95.255C217.981 95.255 217.908 95.255 217.872 95.255Z"/>
  <path fill="currentColor" d="M219.142 98.5782C218.997 98.5782 218.852 98.4699 218.779 98.3254C218.707 98.1448 218.816 97.928 218.997 97.8558L225.895 95.3633C226.077 95.2911 226.295 95.3995 226.367 95.5801C226.44 95.7607 226.331 95.9774 226.149 96.0497L219.251 98.5421C219.251 98.5782 219.215 98.5782 219.142 98.5782Z"/>
  <path fill="currentColor" d="M220.34 101.938C220.195 101.938 220.05 101.829 219.977 101.685C219.905 101.504 220.014 101.287 220.231 101.215L227.202 98.9394C227.384 98.8672 227.602 98.9756 227.674 99.1923C227.747 99.3729 227.638 99.5896 227.42 99.6619L220.449 101.938C220.413 101.938 220.377 101.938 220.34 101.938Z"/>
  <path fill="currentColor" d="M221.357 105.333C221.212 105.333 221.03 105.225 220.994 105.08C220.921 104.9 221.067 104.683 221.248 104.611L228.291 102.588C228.473 102.516 228.691 102.66 228.763 102.841C228.836 103.021 228.691 103.238 228.509 103.31L221.466 105.333C221.43 105.333 221.393 105.333 221.357 105.333Z"/>
  <path fill="currentColor" d="M222.301 108.765C222.119 108.765 221.974 108.656 221.938 108.476C221.902 108.295 222.01 108.078 222.192 108.042L229.308 106.272C229.489 106.236 229.707 106.345 229.744 106.525C229.78 106.706 229.671 106.923 229.489 106.959L222.374 108.729C222.374 108.765 222.337 108.765 222.301 108.765Z"/>
  <path fill="currentColor" d="M223.1 112.233C222.918 112.233 222.773 112.124 222.737 111.944C222.7 111.727 222.809 111.546 223.027 111.51L230.216 109.993C230.433 109.957 230.615 110.065 230.651 110.282C230.688 110.499 230.579 110.679 230.361 110.715L223.172 112.233C223.172 112.233 223.136 112.233 223.1 112.233Z"/>
  <path fill="currentColor" d="M223.789 115.736C223.608 115.736 223.463 115.628 223.426 115.447C223.39 115.231 223.535 115.05 223.717 115.014L230.942 113.75C231.16 113.714 231.341 113.858 231.377 114.039C231.414 114.255 231.268 114.436 231.087 114.472L223.862 115.736C223.826 115.736 223.826 115.736 223.789 115.736Z"/>
  <path fill="currentColor" d="M224.37 119.24C224.189 119.24 224.044 119.096 224.007 118.915C223.971 118.698 224.116 118.518 224.334 118.482L231.595 117.47C231.777 117.434 231.995 117.579 232.031 117.795C232.067 118.012 231.922 118.193 231.704 118.229L224.443 119.24C224.407 119.24 224.37 119.24 224.37 119.24Z"/>
  <path fill="currentColor" d="M224.806 122.744C224.625 122.744 224.443 122.6 224.443 122.419C224.407 122.202 224.552 122.022 224.77 122.022L232.067 121.263C232.249 121.227 232.466 121.371 232.466 121.588C232.503 121.805 232.358 121.986 232.14 121.986L224.842 122.744H224.806Z"/>
  <path fill="currentColor" d="M225.133 126.284C224.951 126.284 224.77 126.14 224.77 125.923C224.77 125.706 224.915 125.526 225.096 125.526L232.43 125.02C232.612 125.02 232.83 125.164 232.83 125.345C232.83 125.562 232.684 125.742 232.503 125.742L225.133 126.284Z"/>
  <path fill="currentColor" d="M225.314 129.86C225.133 129.86 224.951 129.716 224.951 129.499C224.951 129.282 225.096 129.138 225.314 129.102L232.648 128.849C232.83 128.849 233.011 128.993 233.047 129.21C233.047 129.427 232.902 129.571 232.684 129.607L225.314 129.86Z"/>
  <path fill="currentColor" d="M232.721 133.4H225.387C225.169 133.4 225.024 133.22 225.024 133.039C225.024 132.858 225.205 132.678 225.387 132.678H232.721C232.939 132.678 233.084 132.858 233.084 133.039C233.084 133.22 232.939 133.4 232.721 133.4Z"/>
  <path fill="currentColor" d="M232.648 137.229L225.278 136.976C225.06 136.976 224.915 136.796 224.915 136.579C224.915 136.362 225.133 136.182 225.314 136.218L232.648 136.471C232.866 136.471 233.011 136.651 233.011 136.868C233.047 137.049 232.866 137.229 232.648 137.229Z"/>
  <path fill="currentColor" d="M232.466 141.022L225.133 140.516C224.915 140.516 224.77 140.336 224.806 140.119C224.806 139.902 224.987 139.758 225.205 139.794L232.539 140.3C232.757 140.3 232.902 140.48 232.866 140.697C232.83 140.878 232.648 141.022 232.466 141.022Z"/>
  <path fill="currentColor" d="M232.14 144.815H232.103L224.806 144.056C224.588 144.02 224.443 143.84 224.479 143.659C224.516 143.442 224.697 143.298 224.879 143.334L232.176 144.093C232.394 144.129 232.539 144.309 232.503 144.49C232.503 144.671 232.321 144.815 232.14 144.815Z"/>
  <path fill="currentColor" d="M231.668 148.608H231.632L224.37 147.596C224.152 147.56 224.044 147.38 224.044 147.163C224.08 146.946 224.261 146.838 224.479 146.838L231.74 147.849C231.958 147.885 232.067 148.066 232.067 148.283C232.031 148.463 231.849 148.608 231.668 148.608Z"/>
  <path fill="currentColor" d="M231.087 152.365C231.051 152.365 231.051 152.365 231.014 152.365L223.789 151.1C223.572 151.064 223.463 150.884 223.499 150.667C223.535 150.45 223.717 150.342 223.935 150.378L231.16 151.642C231.377 151.678 231.486 151.859 231.45 152.076C231.414 152.22 231.268 152.365 231.087 152.365Z"/>
  <path fill="currentColor" d="M230.361 156.085C230.324 156.085 230.324 156.085 230.288 156.085L223.1 154.568C222.882 154.532 222.773 154.315 222.809 154.135C222.845 153.918 223.063 153.81 223.245 153.846L230.433 155.363C230.651 155.399 230.76 155.616 230.724 155.796C230.688 155.977 230.542 156.085 230.361 156.085Z"/>
  <path fill="currentColor" d="M229.489 159.806C229.453 159.806 229.417 159.806 229.417 159.806L222.301 158.036C222.119 158 221.974 157.783 222.047 157.602C222.083 157.422 222.301 157.277 222.482 157.35L229.598 159.12C229.78 159.156 229.925 159.372 229.853 159.553C229.816 159.698 229.671 159.806 229.489 159.806Z"/>
  <path fill="currentColor" d="M228.509 163.49C228.473 163.49 228.437 163.49 228.4 163.49L221.357 161.467C221.175 161.395 221.03 161.215 221.103 160.998C221.175 160.817 221.357 160.673 221.575 160.745L228.618 162.768C228.8 162.84 228.945 163.021 228.872 163.237C228.836 163.382 228.691 163.49 228.509 163.49Z"/>
  <path fill="currentColor" d="M227.42 167.139C227.384 167.139 227.347 167.139 227.311 167.139L220.34 164.863C220.159 164.791 220.05 164.574 220.086 164.393C220.159 164.213 220.377 164.104 220.558 164.14L227.529 166.416C227.71 166.488 227.819 166.705 227.783 166.886C227.71 167.03 227.565 167.139 227.42 167.139Z"/>
  <path fill="currentColor" d="M226.149 170.751C226.113 170.751 226.077 170.751 226.04 170.715L219.142 168.222C218.961 168.15 218.852 167.933 218.925 167.753C218.997 167.572 219.215 167.464 219.396 167.536L226.295 170.028C226.476 170.101 226.585 170.317 226.512 170.498C226.476 170.643 226.331 170.751 226.149 170.751Z"/>
  <path fill="currentColor" d="M224.806 174.291C224.77 174.291 224.697 174.291 224.661 174.255L217.835 171.509C217.654 171.437 217.545 171.221 217.617 171.04C217.69 170.859 217.908 170.751 218.089 170.823L224.915 173.568C225.096 173.641 225.205 173.857 225.133 174.038C225.096 174.219 224.951 174.291 224.806 174.291Z"/>
  <path fill="currentColor" d="M223.317 177.831C223.281 177.831 223.209 177.831 223.172 177.795L216.456 174.833C216.274 174.761 216.201 174.544 216.274 174.363C216.347 174.183 216.565 174.074 216.746 174.183L223.463 177.145C223.644 177.217 223.717 177.434 223.644 177.614C223.572 177.723 223.463 177.831 223.317 177.831Z"/>
  <path fill="currentColor" d="M221.684 181.263C221.647 181.263 221.575 181.263 221.538 181.226L214.931 178.012C214.749 177.939 214.677 177.686 214.749 177.506C214.822 177.325 215.076 177.253 215.258 177.325L221.865 180.54C222.047 180.612 222.119 180.865 222.047 181.046C221.974 181.19 221.829 181.263 221.684 181.263Z"/>
  <path fill="currentColor" d="M219.941 184.658C219.868 184.658 219.832 184.658 219.759 184.622L213.261 181.19C213.079 181.082 213.007 180.865 213.116 180.685C213.224 180.504 213.442 180.432 213.624 180.54L220.123 183.972C220.304 184.08 220.377 184.297 220.268 184.477C220.231 184.586 220.086 184.658 219.941 184.658Z"/>
  <path fill="currentColor" d="M218.089 188.017C218.017 188.017 217.981 188.017 217.908 187.981L211.554 184.333C211.373 184.225 211.3 184.008 211.409 183.827C211.518 183.647 211.736 183.574 211.917 183.683L218.271 187.331C218.452 187.439 218.525 187.656 218.416 187.837C218.344 187.945 218.235 188.017 218.089 188.017Z"/>
  <path fill="currentColor" d="M216.129 191.268C216.056 191.268 215.984 191.268 215.947 191.196L209.703 187.331C209.521 187.223 209.485 187.006 209.594 186.825C209.703 186.645 209.921 186.609 210.102 186.717L216.347 190.582C216.528 190.691 216.565 190.907 216.456 191.088C216.383 191.196 216.274 191.268 216.129 191.268Z"/>
  <path fill="currentColor" d="M214.059 194.483C213.987 194.483 213.914 194.447 213.842 194.411L207.742 190.329C207.561 190.221 207.524 189.968 207.633 189.824C207.742 189.643 207.996 189.607 208.142 189.715L214.241 193.797C214.422 193.905 214.459 194.158 214.35 194.303C214.277 194.411 214.168 194.483 214.059 194.483Z"/>
  <path fill="currentColor" d="M211.881 197.59C211.809 197.59 211.736 197.554 211.663 197.518L205.709 193.219C205.528 193.111 205.491 192.858 205.637 192.713C205.745 192.533 206 192.497 206.145 192.641L212.099 196.94C212.281 197.048 212.317 197.301 212.172 197.445C212.099 197.554 211.99 197.59 211.881 197.59Z"/>
  <path fill="currentColor" d="M209.558 200.624C209.485 200.624 209.412 200.588 209.34 200.552L203.567 196.037C203.422 195.928 203.386 195.675 203.494 195.531C203.603 195.386 203.858 195.35 204.003 195.459L209.775 199.974C209.921 200.082 209.957 200.335 209.848 200.48C209.775 200.588 209.666 200.624 209.558 200.624Z"/>
  <path fill="currentColor" d="M207.161 203.622C207.089 203.622 206.98 203.586 206.907 203.55L201.28 198.854C201.135 198.71 201.098 198.493 201.243 198.349C201.389 198.204 201.607 198.168 201.752 198.312L207.379 203.008C207.524 203.153 207.561 203.37 207.415 203.514C207.379 203.55 207.27 203.622 207.161 203.622Z"/>
  <path fill="currentColor" d="M204.656 206.476C204.584 206.476 204.475 206.44 204.402 206.368L198.956 201.491C198.811 201.347 198.775 201.13 198.92 200.985C199.065 200.841 199.283 200.841 199.428 200.949L204.874 205.826C205.019 205.97 205.056 206.187 204.91 206.332C204.838 206.44 204.765 206.476 204.656 206.476Z"/>
  <path fill="currentColor" d="M202.042 209.257C201.933 209.257 201.861 209.221 201.788 209.149L196.487 204.092C196.342 203.947 196.342 203.731 196.487 203.586C196.633 203.442 196.85 203.442 196.996 203.586L202.26 208.68C202.405 208.824 202.405 209.041 202.26 209.185C202.224 209.221 202.151 209.257 202.042 209.257Z"/>
  <path fill="currentColor" d="M199.356 211.967C199.247 211.967 199.174 211.931 199.101 211.858L193.982 206.621C193.837 206.476 193.837 206.223 193.982 206.115C194.128 206.006 194.382 205.97 194.491 206.115L199.61 211.389C199.755 211.533 199.755 211.786 199.61 211.894C199.537 211.931 199.428 211.967 199.356 211.967Z"/>
  <path fill="currentColor" d="M196.56 214.568C196.451 214.568 196.342 214.531 196.27 214.459L191.368 209.041C191.223 208.896 191.259 208.643 191.405 208.535C191.55 208.391 191.804 208.427 191.913 208.571L196.814 213.99C196.959 214.134 196.923 214.387 196.778 214.495C196.705 214.531 196.633 214.568 196.56 214.568Z"/>
  <path fill="currentColor" d="M193.656 217.096C193.547 217.096 193.438 217.06 193.365 216.952L188.645 211.353C188.5 211.208 188.536 210.955 188.682 210.847C188.827 210.702 189.081 210.739 189.19 210.883L193.91 216.482C194.055 216.626 194.019 216.879 193.873 216.988C193.837 217.06 193.728 217.096 193.656 217.096Z"/>
  <path fill="currentColor" d="M190.679 219.48C190.57 219.48 190.461 219.444 190.388 219.336L185.886 213.592C185.777 213.448 185.777 213.195 185.959 213.086C186.104 212.978 186.358 212.978 186.467 213.159L191.005 218.902C191.114 219.047 191.114 219.3 190.933 219.408C190.86 219.444 190.751 219.48 190.679 219.48Z"/>
  <path fill="currentColor" d="M187.629 221.792C187.52 221.792 187.411 221.756 187.338 221.647L183.018 215.723C182.909 215.543 182.945 215.326 183.091 215.218C183.272 215.109 183.49 215.146 183.599 215.29L187.919 221.214C188.028 221.395 187.992 221.611 187.847 221.72C187.774 221.756 187.701 221.792 187.629 221.792Z"/>
  <path fill="currentColor" d="M184.507 223.959C184.398 223.959 184.252 223.887 184.216 223.815L180.077 217.746C179.968 217.566 180.005 217.349 180.186 217.241C180.368 217.132 180.586 217.168 180.694 217.349L184.797 223.417C184.906 223.598 184.87 223.815 184.688 223.923C184.652 223.959 184.579 223.959 184.507 223.959Z"/>
  <path fill="currentColor" d="M181.275 226.054C181.166 226.054 181.021 225.982 180.948 225.874L177.064 219.661C176.955 219.48 176.991 219.263 177.173 219.155C177.354 219.047 177.572 219.083 177.681 219.263L181.566 225.476C181.675 225.657 181.638 225.874 181.457 225.982C181.42 226.018 181.348 226.054 181.275 226.054Z"/>
  <path fill="currentColor" d="M178.008 228.005C177.862 228.005 177.754 227.933 177.681 227.824L174.014 221.503C173.905 221.322 173.978 221.106 174.159 220.997C174.341 220.889 174.559 220.961 174.668 221.142L178.334 227.463C178.443 227.644 178.371 227.861 178.189 227.969C178.117 228.005 178.08 228.005 178.008 228.005Z"/>
  <path fill="currentColor" d="M174.668 229.847C174.522 229.847 174.413 229.775 174.341 229.667L170.892 223.201C170.783 223.02 170.855 222.803 171.037 222.695C171.218 222.587 171.436 222.659 171.545 222.84L174.994 229.305C175.103 229.486 175.031 229.703 174.849 229.811C174.776 229.847 174.704 229.847 174.668 229.847Z"/>
  <path fill="currentColor" d="M171.255 231.617C171.11 231.617 171.001 231.545 170.928 231.401L167.697 224.826C167.624 224.646 167.697 224.429 167.878 224.321C168.06 224.212 168.278 224.321 168.387 224.501L171.618 231.075C171.69 231.256 171.618 231.473 171.436 231.581C171.364 231.581 171.291 231.617 171.255 231.617Z"/>
  <path fill="currentColor" d="M167.769 233.207C167.624 233.207 167.479 233.134 167.443 232.99L164.466 226.307C164.393 226.127 164.466 225.91 164.647 225.838C164.829 225.765 165.047 225.838 165.119 226.018L168.096 232.701C168.169 232.882 168.096 233.098 167.915 233.171C167.878 233.207 167.842 233.207 167.769 233.207Z"/>
  <path fill="currentColor" d="M164.248 234.724C164.103 234.724 163.957 234.652 163.921 234.507L161.162 227.716C161.089 227.535 161.162 227.319 161.38 227.246C161.561 227.174 161.779 227.246 161.852 227.463L164.611 234.254C164.683 234.435 164.611 234.652 164.393 234.724C164.357 234.688 164.32 234.724 164.248 234.724Z"/>
  <path fill="currentColor" d="M160.69 236.096C160.545 236.096 160.399 235.988 160.327 235.844L157.822 228.98C157.749 228.8 157.858 228.583 158.04 228.511C158.221 228.439 158.439 228.547 158.511 228.728L161.017 235.591C161.089 235.771 160.98 235.988 160.799 236.06C160.762 236.06 160.726 236.096 160.69 236.096Z"/>
  <path fill="currentColor" d="M157.059 237.325C156.914 237.325 156.769 237.216 156.696 237.072L154.409 230.136C154.336 229.956 154.445 229.739 154.663 229.667C154.845 229.594 155.062 229.703 155.135 229.92L157.422 236.855C157.495 237.036 157.386 237.252 157.168 237.325C157.132 237.325 157.096 237.325 157.059 237.325Z"/>
  <path fill="currentColor" d="M153.392 238.444C153.247 238.444 153.066 238.336 153.029 238.192L150.996 231.184C150.924 231.003 151.069 230.787 151.25 230.714C151.468 230.642 151.65 230.787 151.722 230.967L153.755 237.975C153.828 238.155 153.683 238.372 153.501 238.444C153.465 238.444 153.429 238.444 153.392 238.444Z"/>
  <path fill="currentColor" d="M149.725 239.42C149.544 239.42 149.399 239.311 149.362 239.131L147.583 232.051C147.547 231.87 147.656 231.653 147.838 231.617C148.019 231.581 148.237 231.69 148.273 231.87L150.052 238.95C150.089 239.131 149.98 239.348 149.798 239.384C149.762 239.42 149.725 239.42 149.725 239.42Z"/>
  <path fill="currentColor" d="M145.986 240.287C145.804 240.287 145.659 240.178 145.623 239.998L144.098 232.845C144.062 232.629 144.171 232.448 144.388 232.412C144.606 232.376 144.788 232.484 144.824 232.701L146.349 239.853C146.385 240.07 146.276 240.251 146.059 240.287C146.022 240.287 146.022 240.287 145.986 240.287Z"/>
  <path fill="currentColor" d="M142.21 241.045C142.029 241.045 141.883 240.937 141.847 240.756L140.576 233.568C140.54 233.351 140.685 233.171 140.867 233.134C141.085 233.098 141.266 233.243 141.303 233.423L142.573 240.612C142.61 240.829 142.464 241.009 142.283 241.045C142.246 241.045 142.246 241.045 142.21 241.045Z"/>
  <path fill="currentColor" d="M138.434 241.623C138.253 241.623 138.108 241.479 138.071 241.298L137.055 234.074C137.018 233.857 137.164 233.676 137.381 233.64C137.563 233.604 137.781 233.748 137.817 233.965L138.834 241.19C138.87 241.407 138.725 241.587 138.507 241.623C138.471 241.623 138.471 241.623 138.434 241.623Z"/>
  <path fill="currentColor" d="M134.622 242.093C134.441 242.093 134.259 241.948 134.259 241.768L133.497 234.507C133.46 234.29 133.606 234.11 133.823 234.11C134.041 234.074 134.223 234.218 134.223 234.435L134.985 241.695C135.022 241.912 134.876 242.093 134.658 242.093C134.658 242.093 134.658 242.093 134.622 242.093Z"/>
  <path fill="currentColor" d="M130.81 242.454C130.629 242.454 130.447 242.31 130.447 242.093L129.939 234.796C129.939 234.579 130.084 234.399 130.265 234.399C130.483 234.363 130.665 234.543 130.665 234.724L131.173 242.021C131.209 242.237 131.064 242.418 130.81 242.454C130.846 242.454 130.846 242.454 130.81 242.454Z"/>
  <path fill="currentColor" d="M126.998 242.635C126.816 242.635 126.635 242.49 126.635 242.273L126.381 234.977C126.381 234.76 126.526 234.615 126.744 234.579C126.925 234.579 127.107 234.724 127.143 234.941L127.397 242.237C127.397 242.454 127.216 242.635 126.998 242.635Z"/>
  <path fill="currentColor" d="M123.186 242.707C122.968 242.707 122.823 242.526 122.823 242.346V235.049C122.823 234.832 123.004 234.688 123.186 234.688C123.367 234.688 123.549 234.868 123.549 235.049V242.346C123.549 242.562 123.367 242.707 123.186 242.707Z"/>
  <path fill="currentColor" d="M119.337 242.671C119.12 242.671 118.974 242.49 118.974 242.273L119.228 234.977C119.228 234.76 119.41 234.615 119.628 234.615C119.846 234.615 119.991 234.796 119.991 235.013L119.737 242.31C119.7 242.49 119.555 242.671 119.337 242.671Z"/>
  <path fill="currentColor" d="M115.525 242.454C115.525 242.454 115.489 242.454 115.525 242.454C115.307 242.454 115.126 242.273 115.162 242.057L115.671 234.76C115.671 234.543 115.852 234.399 116.07 234.435C116.288 234.435 116.433 234.615 116.397 234.832L115.888 242.129C115.888 242.31 115.707 242.454 115.525 242.454Z"/>
  <path fill="currentColor" d="M111.713 242.129H111.677C111.459 242.093 111.314 241.912 111.35 241.732L112.113 234.471C112.149 234.254 112.33 234.11 112.512 234.146C112.73 234.182 112.875 234.363 112.839 234.543L112.076 241.804C112.04 241.984 111.895 242.129 111.713 242.129Z"/>
  <path fill="currentColor" d="M107.901 241.659H107.865C107.647 241.623 107.538 241.443 107.538 241.226L108.555 234.001C108.591 233.785 108.772 233.676 108.99 233.676C109.208 233.712 109.317 233.893 109.317 234.11L108.3 241.334C108.228 241.551 108.083 241.659 107.901 241.659Z"/>
  <path fill="currentColor" d="M104.125 241.081C104.089 241.081 104.089 241.081 104.053 241.081C103.835 241.045 103.726 240.865 103.762 240.648L105.033 233.46C105.069 233.243 105.251 233.134 105.469 233.171C105.686 233.207 105.795 233.387 105.759 233.604L104.488 240.792C104.452 240.973 104.307 241.081 104.125 241.081Z"/>
  <path fill="currentColor" d="M100.349 240.359C100.313 240.359 100.313 240.359 100.277 240.359C100.059 240.323 99.9501 240.106 99.9864 239.926L101.511 232.773C101.548 232.556 101.765 232.448 101.947 232.484C102.165 232.52 102.274 232.737 102.237 232.918L100.712 240.07C100.676 240.251 100.531 240.359 100.349 240.359Z"/>
  <path fill="currentColor" d="M96.6099 239.528C96.5736 239.528 96.5373 239.528 96.5373 239.528C96.3558 239.492 96.2105 239.275 96.2832 239.095L98.0622 232.015C98.0985 231.834 98.3163 231.69 98.4978 231.762C98.6794 231.798 98.8246 232.015 98.752 232.195L96.973 239.275C96.9367 239.384 96.7914 239.528 96.6099 239.528Z"/>
  <path fill="currentColor" d="M92.943 238.517C92.9067 238.517 92.8704 238.517 92.8341 238.517C92.6526 238.444 92.5074 238.264 92.58 238.047L94.6131 231.039C94.6857 230.859 94.8672 230.714 95.0851 230.787C95.2666 230.859 95.4118 231.039 95.3392 231.256L93.3061 238.264C93.2335 238.408 93.0882 238.517 92.943 238.517Z"/>
  <path fill="currentColor" d="M89.2761 237.433C89.2398 237.433 89.2035 237.433 89.1672 237.433C88.9857 237.361 88.8768 237.144 88.9131 236.963L91.2004 230.028C91.273 229.847 91.4545 229.739 91.6723 229.775C91.8539 229.847 91.9628 230.064 91.9265 230.245L89.6392 237.18C89.5666 237.325 89.4214 237.433 89.2761 237.433Z"/>
  <path fill="currentColor" d="M85.6455 236.169C85.6092 236.169 85.5729 236.169 85.5366 236.133C85.3551 236.06 85.2461 235.844 85.3188 235.663L87.8239 228.8C87.8965 228.619 88.1143 228.511 88.2959 228.583C88.4774 228.655 88.5863 228.872 88.5137 229.053L86.0086 235.916C85.936 236.096 85.7907 236.169 85.6455 236.169Z"/>
  <path fill="currentColor" d="M82.0512 234.832C82.0149 234.832 81.9423 234.832 81.906 234.796C81.7245 234.724 81.6156 234.507 81.6882 234.326L84.4474 227.536C84.52 227.355 84.7379 227.247 84.9194 227.319C85.1009 227.391 85.2098 227.608 85.1372 227.788L82.378 234.579C82.3417 234.724 82.1965 234.832 82.0512 234.832Z"/>
  <path fill="currentColor" d="M78.5296 233.351C78.4933 233.351 78.4207 233.351 78.3844 233.315C78.2029 233.243 78.1302 233.026 78.2029 232.845L81.1799 226.163C81.2525 225.982 81.4704 225.91 81.6519 225.982C81.8334 226.054 81.906 226.271 81.8334 226.452L78.8564 233.134C78.82 233.243 78.6748 233.351 78.5296 233.351Z"/>
  <path fill="currentColor" d="M75.0806 231.726C75.0442 231.726 74.9716 231.726 74.9353 231.69C74.7538 231.617 74.6812 231.364 74.7538 231.184L77.985 224.61C78.0577 224.429 78.3118 224.357 78.4933 224.429C78.6749 224.501 78.7475 224.754 78.6749 224.935L75.4436 231.509C75.3347 231.653 75.1895 231.726 75.0806 231.726Z"/>
  <path fill="currentColor" d="M71.6315 230.028C71.5589 230.028 71.5226 230.028 71.45 229.992C71.2684 229.883 71.1958 229.667 71.3047 229.486L74.7538 223.02C74.8627 222.84 75.0806 222.767 75.2621 222.876C75.4436 222.984 75.5162 223.201 75.4073 223.381L71.9583 229.847C71.9219 229.956 71.7767 230.028 71.6315 230.028Z"/>
  <path fill="currentColor" d="M68.2914 228.186C68.2188 228.186 68.1825 228.186 68.1099 228.15C67.9283 228.041 67.8557 227.824 67.9646 227.644L71.6315 221.322C71.7404 221.142 71.9583 221.07 72.1398 221.178C72.3213 221.286 72.3939 221.503 72.285 221.684L68.6181 227.969C68.5455 228.113 68.4366 228.186 68.2914 228.186Z"/>
  <path fill="currentColor" d="M65.0238 226.199C64.9512 226.199 64.8786 226.199 64.8423 226.127C64.6608 226.018 64.6245 225.802 64.7334 225.621L68.6181 219.408C68.727 219.227 68.9448 219.191 69.1263 219.299C69.3079 219.408 69.3442 219.625 69.2353 219.805L65.3506 226.018C65.2416 226.163 65.1327 226.199 65.0238 226.199Z"/>
  <path fill="currentColor" d="M61.7926 224.14C61.72 224.14 61.6474 224.104 61.5748 224.068C61.3933 223.959 61.357 223.706 61.4659 223.562L65.5684 217.493C65.6773 217.313 65.9315 217.277 66.0767 217.385C66.2582 217.493 66.2945 217.746 66.1856 217.891L62.0831 223.959C62.0468 224.068 61.9015 224.14 61.7926 224.14Z"/>
  <path fill="currentColor" d="M58.6703 221.973C58.5977 221.973 58.5251 221.936 58.4525 221.9C58.2709 221.792 58.2346 221.539 58.3799 221.395L62.7002 215.471C62.8092 215.29 63.0633 215.254 63.2085 215.398C63.3901 215.507 63.4264 215.76 63.2811 215.904L58.9607 221.792C58.8881 221.9 58.7792 221.973 58.6703 221.973Z"/>
  <path fill="currentColor" d="M55.5843 219.661C55.5117 219.661 55.4391 219.625 55.3664 219.589C55.2212 219.48 55.1849 219.227 55.2938 219.083L59.8321 213.339C59.941 213.195 60.1951 213.159 60.3404 213.267C60.4856 213.375 60.5219 213.628 60.413 213.773L55.8747 219.516C55.8021 219.625 55.6932 219.661 55.5843 219.661Z"/>
  <path fill="currentColor" d="M52.6072 217.277C52.5346 217.277 52.4257 217.241 52.3531 217.204C52.2078 217.06 52.1715 216.843 52.3168 216.699L57.0365 211.1C57.1818 210.955 57.3996 210.919 57.5448 211.064C57.69 211.208 57.7263 211.425 57.5811 211.569L52.8614 217.168C52.8251 217.241 52.7161 217.277 52.6072 217.277Z"/>
  <path fill="currentColor" d="M49.739 214.784C49.6664 214.784 49.5575 214.748 49.4849 214.676C49.3397 214.531 49.3033 214.315 49.4486 214.17L54.3499 208.752C54.4951 208.607 54.7129 208.571 54.8582 208.716C55.0034 208.86 55.0397 209.077 54.8945 209.221L49.9932 214.64C49.9205 214.748 49.8116 214.784 49.739 214.784Z"/>
  <path fill="currentColor" d="M46.9072 212.183C46.7982 212.183 46.7256 212.147 46.653 212.075C46.5078 211.931 46.5078 211.714 46.653 211.569L51.7359 206.332C51.8811 206.187 52.0989 206.187 52.2441 206.332C52.3894 206.476 52.3894 206.693 52.2441 206.837L47.1613 212.075C47.125 212.147 47.0161 212.183 46.9072 212.183Z"/>
  <path fill="currentColor" d="M44.2206 209.51C44.1116 209.51 44.039 209.474 43.9664 209.402C43.8212 209.258 43.8212 209.005 43.9664 208.896L49.2308 203.839C49.376 203.695 49.6301 203.695 49.7391 203.839C49.8843 203.984 49.8843 204.236 49.7391 204.345L44.4747 209.402C44.4021 209.474 44.2932 209.51 44.2206 209.51Z"/>
  <path fill="currentColor" d="M41.6065 206.729C41.4976 206.729 41.3887 206.693 41.3161 206.621C41.1709 206.476 41.2072 206.223 41.3524 206.115L46.7983 201.238C46.9435 201.094 47.1976 201.13 47.3065 201.274C47.4518 201.419 47.4155 201.672 47.2702 201.78L41.8244 206.657C41.7517 206.693 41.6791 206.729 41.6065 206.729Z"/>
  <path fill="currentColor" d="M39.0651 203.839C38.9562 203.839 38.8473 203.803 38.7746 203.695C38.6294 203.55 38.6657 203.297 38.8109 203.189L44.4384 198.493C44.5836 198.349 44.8377 198.385 44.9466 198.529C45.0919 198.674 45.0556 198.926 44.9103 199.035L39.2829 203.731C39.2466 203.803 39.174 203.839 39.0651 203.839Z"/>
  <path fill="currentColor" d="M36.6689 200.877C36.56 200.877 36.4511 200.841 36.3785 200.733C36.2696 200.588 36.2696 200.335 36.4511 200.227L42.2237 195.712C42.369 195.603 42.6231 195.603 42.732 195.784C42.8409 195.928 42.8409 196.181 42.6594 196.29L36.8868 200.805C36.8141 200.877 36.7415 200.877 36.6689 200.877Z"/>
  <path fill="currentColor" d="M34.3454 197.843C34.2364 197.843 34.1275 197.807 34.0549 197.698C33.946 197.518 33.9823 197.301 34.1275 197.193L40.0817 192.894C40.2632 192.786 40.4811 192.822 40.59 192.966C40.6989 193.147 40.6626 193.364 40.5174 193.472L34.5632 197.77C34.4906 197.807 34.418 197.843 34.3454 197.843Z"/>
  <path fill="currentColor" d="M32.167 194.736C32.0581 194.736 31.9128 194.664 31.8765 194.592C31.7676 194.411 31.8039 194.194 31.9855 194.086L38.0848 190.004C38.2664 189.896 38.4842 189.932 38.5931 190.113C38.702 190.293 38.6657 190.51 38.4842 190.618L32.3848 194.7C32.3122 194.7 32.2396 194.736 32.167 194.736Z"/>
  <path fill="currentColor" d="M30.0612 191.521C29.9523 191.521 29.8071 191.449 29.7345 191.341C29.6256 191.16 29.6619 190.943 29.8434 190.835L36.088 186.97C36.2696 186.862 36.4874 186.898 36.5963 187.078C36.7052 187.259 36.6689 187.476 36.4874 187.584L30.2428 191.449C30.2065 191.521 30.1339 191.521 30.0612 191.521Z"/>
  <path fill="currentColor" d="M28.1007 188.27C27.9555 188.27 27.8466 188.198 27.774 188.09C27.6651 187.909 27.7377 187.692 27.9192 187.584L34.2727 183.936C34.4543 183.827 34.6721 183.9 34.781 184.08C34.8899 184.261 34.8173 184.477 34.6358 184.586L28.2823 188.234C28.2096 188.27 28.137 188.27 28.1007 188.27Z"/>
  <path fill="currentColor" d="M26.2128 184.947C26.0676 184.947 25.9587 184.875 25.8861 184.766C25.7772 184.586 25.8498 184.369 26.0313 184.261L32.5301 180.829C32.7116 180.721 32.9294 180.793 33.0384 180.974C33.1473 181.154 33.0747 181.371 32.8931 181.479L26.3944 184.911C26.3581 184.947 26.2855 184.947 26.2128 184.947Z"/>
  <path fill="currentColor" d="M24.4701 181.552C24.3249 181.552 24.216 181.479 24.1434 181.335C24.0708 181.154 24.1434 180.937 24.3249 180.829L30.9326 177.614C31.1141 177.506 31.3319 177.614 31.4409 177.795C31.5135 177.975 31.4409 178.192 31.2593 178.301L24.6517 181.515C24.5791 181.552 24.5428 181.552 24.4701 181.552Z"/>
  <path fill="currentColor" d="M22.8727 178.084C22.7275 178.084 22.5823 178.012 22.5459 177.867C22.4733 177.686 22.5459 177.47 22.7275 177.397L29.4441 174.435C29.6256 174.363 29.8434 174.435 29.916 174.616C29.9886 174.797 29.916 175.013 29.7345 175.086L23.0179 178.084C22.9453 178.084 22.909 178.084 22.8727 178.084Z"/>
  <path fill="currentColor" d="M21.3478 174.58C21.2026 174.58 21.0574 174.508 21.0211 174.363C20.9485 174.183 21.0211 173.966 21.2389 173.894L28.0644 171.148C28.246 171.076 28.4638 171.148 28.5364 171.365C28.609 171.546 28.5364 171.762 28.3186 171.835L21.4931 174.58C21.4568 174.58 21.3841 174.58 21.3478 174.58Z"/>
  <path fill="currentColor" d="M19.9682 171.04C19.823 171.04 19.6778 170.932 19.6052 170.787C19.5326 170.606 19.6415 170.39 19.823 170.317L26.7211 167.825C26.9027 167.753 27.1205 167.861 27.1931 168.042C27.2657 168.222 27.1568 168.439 26.9753 168.511L20.0771 171.004C20.0771 171.04 20.0045 171.04 19.9682 171.04Z"/>
  <path fill="currentColor" d="M18.7338 167.428C18.5886 167.428 18.4434 167.319 18.3708 167.175C18.2981 166.994 18.4071 166.777 18.6249 166.705L25.5956 164.43C25.7772 164.357 25.995 164.466 26.0676 164.682C26.1402 164.863 26.0313 165.08 25.8135 165.152L18.8427 167.428C18.8064 167.428 18.7701 167.428 18.7338 167.428Z"/>
  <path fill="currentColor" d="M17.6084 163.815C17.4631 163.815 17.2816 163.707 17.2453 163.563C17.1727 163.382 17.3179 163.165 17.4994 163.093L24.5428 161.07C24.7243 160.998 24.9422 161.142 25.0148 161.323C25.0874 161.504 24.9421 161.72 24.7606 161.793L17.7173 163.815C17.681 163.779 17.6447 163.815 17.6084 163.815Z"/>
  <path fill="currentColor" d="M16.5918 160.131C16.4103 160.131 16.265 160.023 16.2287 159.842C16.1924 159.661 16.3013 159.445 16.4829 159.408L23.5988 157.638C23.7803 157.602 23.9982 157.711 24.0345 157.891C24.0708 158.072 23.9619 158.289 23.7803 158.325L16.7007 160.095C16.6644 160.131 16.6281 160.131 16.5918 160.131Z"/>
  <path fill="currentColor" d="M15.7204 156.41C15.5389 156.41 15.3937 156.302 15.3574 156.121C15.3211 155.905 15.43 155.724 15.6478 155.688L22.8364 154.171C23.0542 154.135 23.2358 154.243 23.2721 154.46C23.3084 154.676 23.1995 154.857 22.9816 154.893L15.8294 156.41C15.7931 156.41 15.7568 156.41 15.7204 156.41Z"/>
  <path fill="currentColor" d="M14.9943 152.654C14.8128 152.654 14.6676 152.545 14.6313 152.365C14.595 152.148 14.7402 151.967 14.9217 151.931L22.1466 150.667C22.3281 150.631 22.5459 150.775 22.5823 150.956C22.6186 151.173 22.4733 151.353 22.2918 151.389L15.0669 152.654C15.0306 152.654 15.0306 152.654 14.9943 152.654Z"/>
  <path fill="currentColor" d="M14.4134 148.897C14.2319 148.897 14.0867 148.752 14.0503 148.572C14.014 148.355 14.1593 148.174 14.3771 148.138L21.6383 147.127C21.8561 147.091 22.0376 147.235 22.0739 147.452C22.1103 147.669 21.965 147.849 21.7472 147.885L14.486 148.897C14.4134 148.897 14.4134 148.897 14.4134 148.897Z"/>
  <path fill="currentColor" d="M13.9414 145.14C13.7599 145.14 13.5784 144.996 13.5784 144.815C13.5421 144.598 13.6873 144.418 13.9051 144.418L21.2026 143.659C21.3841 143.623 21.602 143.767 21.602 143.984C21.6383 144.201 21.4931 144.382 21.2752 144.382L13.9777 145.14C13.9414 145.14 13.9414 145.14 13.9414 145.14Z"/>
  <path fill="currentColor" d="M13.5784 141.347C13.3969 141.347 13.2153 141.203 13.2153 140.986C13.2153 140.769 13.3606 140.589 13.5421 140.589L20.8759 140.083C21.0574 140.083 21.2752 140.227 21.2752 140.408C21.2752 140.625 21.13 140.805 20.9485 140.805L13.5784 141.347C13.6147 141.347 13.5784 141.347 13.5784 141.347Z"/>
  <path fill="currentColor" d="M13.3606 137.518C13.179 137.518 12.9975 137.374 12.9975 137.157C12.9975 136.94 13.1427 136.796 13.3606 136.76L20.6943 136.543C20.8759 136.543 21.0574 136.687 21.0937 136.904C21.0937 137.121 20.9485 137.265 20.7306 137.302L13.3606 137.518C13.3969 137.518 13.3969 137.518 13.3606 137.518Z"/>
  <path fill="currentColor" d="M20.658 133.725H13.3242C13.1064 133.725 12.9612 133.545 12.9612 133.364C12.9612 133.147 13.1427 133.003 13.3242 133.003H20.658C20.8759 133.003 21.0211 133.184 21.0211 133.364C21.0211 133.545 20.8396 133.725 20.658 133.725Z"/>
  <path fill="currentColor" d="M20.6943 130.149L13.3242 129.896C13.1064 129.896 12.9612 129.716 12.9612 129.499C12.9612 129.282 13.179 129.138 13.3606 129.138L20.6943 129.391C20.9122 129.391 21.0574 129.571 21.0574 129.788C21.0574 130.005 20.9122 130.149 20.6943 130.149Z"/>
  <path fill="currentColor" d="M20.8759 126.609L13.5421 126.104C13.3242 126.104 13.179 125.923 13.2153 125.706C13.2153 125.489 13.3969 125.345 13.6147 125.381L20.9485 125.887C21.1663 125.887 21.3115 126.067 21.2752 126.284C21.2389 126.465 21.0937 126.609 20.8759 126.609Z"/>
  <path fill="currentColor" d="M21.2026 123.069H21.1663L13.8688 122.311C13.651 122.275 13.5058 122.094 13.5421 121.913C13.5784 121.697 13.7599 121.552 13.9414 121.588L21.2389 122.347C21.4568 122.383 21.602 122.564 21.5657 122.744C21.5294 122.925 21.3842 123.069 21.2026 123.069Z"/>
  <path fill="currentColor" d="M21.6383 119.529H21.602L14.3408 118.518C14.123 118.482 14.0141 118.301 14.0141 118.084C14.0504 117.868 14.2319 117.759 14.4497 117.759L21.7109 118.771C21.9287 118.807 22.0377 118.987 22.0377 119.204C21.9651 119.421 21.8198 119.529 21.6383 119.529Z"/>
  <path fill="currentColor" d="M22.1829 116.025C22.1466 116.025 22.1466 116.025 22.1103 116.025L14.8854 114.761C14.6676 114.725 14.5587 114.544 14.595 114.328C14.6313 114.111 14.8128 114.003 15.0306 114.039L22.2555 115.303C22.4733 115.339 22.5823 115.52 22.546 115.736C22.5097 115.917 22.3644 116.025 22.1829 116.025Z"/>
  <path fill="currentColor" d="M22.8727 112.521C22.8364 112.521 22.8364 112.521 22.8001 112.521L15.6115 111.004C15.3937 110.968 15.2848 110.752 15.3211 110.571C15.3574 110.354 15.5752 110.246 15.7567 110.282L22.9453 111.799C23.1631 111.835 23.272 112.052 23.2357 112.233C23.1631 112.413 23.0179 112.521 22.8727 112.521Z"/>
  <path fill="currentColor" d="M23.6714 109.09C23.6351 109.09 23.5988 109.09 23.5988 109.09L16.4466 107.284C16.265 107.248 16.1198 107.031 16.1924 106.85C16.2287 106.67 16.4466 106.525 16.6281 106.597L23.744 108.367C23.9256 108.404 24.0708 108.62 23.9982 108.801C23.9619 108.945 23.8166 109.09 23.6714 109.09Z"/>
  <path fill="currentColor" d="M24.5791 105.622C24.5428 105.622 24.5065 105.622 24.4702 105.622L17.4268 103.599C17.2453 103.527 17.1001 103.346 17.1727 103.13C17.2453 102.949 17.4268 102.805 17.6447 102.877L24.688 104.9C24.8695 104.972 25.0147 105.152 24.9421 105.369C24.8695 105.514 24.7243 105.622 24.5791 105.622Z"/>
  <path fill="currentColor" d="M25.5957 102.227C25.5594 102.227 25.523 102.227 25.4867 102.227L18.516 99.9509C18.3345 99.8786 18.2256 99.6619 18.2619 99.4813C18.3345 99.3007 18.5523 99.1923 18.7338 99.2284L25.7046 101.504C25.8861 101.576 25.995 101.793 25.9587 101.974C25.9224 102.154 25.7772 102.227 25.5957 102.227Z"/>
  <path fill="currentColor" d="M26.7574 98.8672C26.7211 98.8672 26.6848 98.8672 26.6485 98.8311L19.7504 96.3386C19.5689 96.2664 19.4599 96.0496 19.5325 95.869C19.6052 95.6884 19.823 95.5801 20.0045 95.6523L26.9026 98.1447C27.0842 98.217 27.1931 98.4337 27.1205 98.6143C27.0479 98.7949 26.9389 98.8672 26.7574 98.8672Z"/>
  <path fill="currentColor" d="M28.0282 95.5439C27.9919 95.5439 27.9192 95.5439 27.8829 95.5078L21.0574 92.7625C20.8759 92.6902 20.767 92.4735 20.8396 92.2929C20.9122 92.1123 21.13 92.0039 21.3116 92.0762L28.1371 94.8214C28.3186 94.8937 28.4275 95.1104 28.3549 95.291C28.3186 95.4716 28.2097 95.5439 28.0282 95.5439Z"/>
  <path fill="currentColor" d="M29.4441 92.2929C29.4077 92.2929 29.3351 92.2929 29.2988 92.2568L22.5822 89.2947C22.4007 89.2225 22.3281 89.0058 22.4007 88.8251C22.4733 88.6445 22.6912 88.5723 22.8727 88.6445L29.5893 91.6066C29.7708 91.6788 29.8434 91.8956 29.7708 92.0762C29.6982 92.1845 29.5893 92.2929 29.4441 92.2929Z"/>
  <path fill="currentColor" d="M30.9326 89.0419C30.8963 89.0419 30.8237 89.0419 30.7874 89.0058L24.1797 85.7909C23.9982 85.7186 23.9256 85.4658 23.9982 85.2851C24.0708 85.1045 24.3249 85.0323 24.5065 85.1045L31.1141 88.3195C31.2957 88.3917 31.3683 88.6446 31.2957 88.8252C31.2231 88.9697 31.0778 89.0419 30.9326 89.0419Z"/>
  <path fill="currentColor" d="M32.5664 85.8993C32.4937 85.8993 32.4574 85.8993 32.3848 85.8631L25.8861 82.4315C25.7046 82.3231 25.6319 82.1064 25.7409 81.9258C25.8498 81.7451 26.0676 81.6729 26.2491 81.7813L32.7479 85.2129C32.9294 85.3213 33.002 85.538 32.8931 85.7187C32.8205 85.827 32.6753 85.8993 32.5664 85.8993Z"/>
  <path fill="currentColor" d="M34.2727 82.7566C34.2001 82.7566 34.1638 82.7566 34.0912 82.7205L27.7377 79.0721C27.5561 78.9637 27.4835 78.747 27.5924 78.5664C27.7014 78.3858 27.9192 78.3135 28.1007 78.4219L34.4543 82.0702C34.6358 82.1786 34.7084 82.3954 34.5995 82.576C34.5269 82.7205 34.4179 82.7566 34.2727 82.7566Z"/>
  <path fill="currentColor" d="M36.1244 79.7223C36.0517 79.7223 35.9791 79.7223 35.9428 79.65L29.6982 75.7849C29.5167 75.6766 29.4804 75.4598 29.5893 75.2792C29.6982 75.0986 29.916 75.0625 30.0976 75.1709L36.3422 79.036C36.5237 79.1443 36.56 79.3611 36.4511 79.5417C36.3785 79.65 36.2333 79.7223 36.1244 79.7223Z"/>
  <path fill="currentColor" d="M38.0486 76.7241C37.976 76.7241 37.9033 76.688 37.8307 76.6519L31.7313 72.57C31.5498 72.4617 31.5135 72.2088 31.6224 72.0643C31.7313 71.8837 31.9855 71.8476 32.1307 71.9559L38.2301 76.0378C38.4116 76.1462 38.4479 76.399 38.339 76.5435C38.3027 76.688 38.1938 76.7241 38.0486 76.7241Z"/>
  <path fill="currentColor" d="M40.118 73.8343C40.0454 73.8343 39.9728 73.7982 39.9001 73.7621L33.946 69.4635C33.7645 69.3551 33.7281 69.1023 33.8734 68.9578C33.9823 68.7772 34.2364 68.7411 34.3816 68.8855L40.3358 73.1841C40.5173 73.2925 40.5536 73.5453 40.4084 73.6898C40.3358 73.7621 40.2269 73.8343 40.118 73.8343Z"/>
  <path fill="currentColor" d="M42.26 70.9806C42.1874 70.9806 42.1148 70.9445 42.0422 70.9084L36.2696 66.3931C36.1243 66.2847 36.088 66.0318 36.1969 65.8874C36.3059 65.7429 36.56 65.7067 36.7052 65.8151L42.4779 70.3304C42.6231 70.4388 42.6594 70.6917 42.5505 70.8361C42.4779 70.9445 42.369 70.9806 42.26 70.9806Z"/>
  <path fill="currentColor" d="M44.511 68.1992C44.4384 68.1992 44.3295 68.1631 44.2568 68.127L38.6294 63.4311C38.4842 63.2866 38.4479 63.0698 38.5931 62.9253C38.7384 62.7809 38.9562 62.7447 39.1014 62.8892L44.7288 67.5851C44.874 67.7296 44.9104 67.9464 44.7651 68.0909C44.6925 68.1631 44.6199 68.1992 44.511 68.1992Z"/>
  <path fill="currentColor" d="M46.8346 65.5262C46.762 65.5262 46.6531 65.4901 46.5804 65.4178L41.1346 60.5413C40.9893 60.3968 40.953 60.18 41.0983 60.0355C41.2435 59.8911 41.4613 59.8549 41.6065 59.9994L47.0524 64.876C47.1976 65.0205 47.234 65.2372 47.0887 65.3817C47.0524 65.49 46.9435 65.5262 46.8346 65.5262Z"/>
  <path fill="currentColor" d="M49.267 62.9253C49.1581 62.9253 49.0855 62.8892 49.0129 62.817L43.7486 57.7237C43.6033 57.5792 43.6033 57.3625 43.7486 57.218C43.8938 57.0735 44.1116 57.0735 44.2568 57.218L49.5212 62.3113C49.6664 62.4557 49.6664 62.6725 49.5212 62.817C49.4486 62.8892 49.376 62.9253 49.267 62.9253Z"/>
  <path fill="currentColor" d="M51.8085 60.3967C51.6996 60.3967 51.6269 60.3606 51.5543 60.2884L46.4352 55.0506C46.29 54.9061 46.29 54.6533 46.4352 54.5449C46.5804 54.4004 46.8346 54.4004 46.9435 54.5449L52.0626 59.7827C52.2078 59.9272 52.2078 60.18 52.0626 60.2884C51.99 60.3606 51.8811 60.3967 51.8085 60.3967Z"/>
  <path fill="currentColor" d="M54.3862 57.9765C54.2773 57.9765 54.1684 57.9404 54.0958 57.8682L49.1945 52.4498C49.0493 52.3053 49.0856 52.0525 49.2308 51.9441C49.376 51.7996 49.6301 51.8357 49.7391 51.9802L54.6404 57.3986C54.7856 57.5431 54.7493 57.7959 54.604 57.9043C54.5677 57.9404 54.4951 57.9765 54.3862 57.9765Z"/>
  <path fill="currentColor" d="M57.1092 55.6286C57.0002 55.6286 56.8913 55.5925 56.8187 55.4841L52.0989 49.8851C51.9537 49.7407 51.99 49.4878 52.1352 49.3794C52.2805 49.2349 52.5346 49.2711 52.6435 49.4156L57.3633 55.0145C57.5085 55.159 57.4722 55.4119 57.327 55.5202C57.2544 55.6286 57.1818 55.6286 57.1092 55.6286Z"/>
  <path fill="currentColor" d="M59.8684 53.389C59.7595 53.389 59.6505 53.3529 59.5779 53.2445L55.0397 47.501C54.9308 47.3565 54.9308 47.1037 55.1123 46.9953C55.2575 46.8869 55.5117 46.8869 55.6206 47.0676L60.1588 52.811C60.2677 52.9555 60.2677 53.2084 60.0862 53.3168C60.0136 53.389 59.941 53.389 59.8684 53.389Z"/>
  <path fill="currentColor" d="M62.7366 51.2578C62.6277 51.2578 62.5187 51.2217 62.4461 51.1133L58.0894 45.1892C57.9805 45.0086 58.0168 44.7919 58.162 44.6835C58.3435 44.5751 58.5614 44.6112 58.6703 44.7557L62.9907 50.6798C63.0996 50.8604 63.0633 51.0772 62.9181 51.1855C62.8818 51.2217 62.8092 51.2578 62.7366 51.2578Z"/>
  <path fill="currentColor" d="M65.641 49.1988C65.5321 49.1988 65.3869 49.1266 65.3506 49.0182L61.2117 42.9857C61.1028 42.8051 61.1391 42.5884 61.3206 42.48C61.5022 42.3717 61.72 42.4078 61.8289 42.5884L65.9314 48.657C66.0404 48.8376 66.0041 49.0543 65.8225 49.1627C65.7862 49.1988 65.7136 49.1988 65.641 49.1988Z"/>
  <path fill="currentColor" d="M68.6544 47.2843C68.5455 47.2843 68.4003 47.2121 68.3276 47.1037L64.4429 40.8906C64.334 40.71 64.3703 40.4933 64.5518 40.3849C64.7334 40.2766 64.9512 40.3127 65.0601 40.4933L68.9448 46.7063C69.0538 46.887 69.0175 47.1037 68.8359 47.2121C68.7633 47.2482 68.6907 47.2843 68.6544 47.2843Z"/>
  <path fill="currentColor" d="M71.7041 45.4421C71.5589 45.4421 71.45 45.3698 71.3773 45.2615L67.7105 38.94C67.6015 38.7594 67.6741 38.5427 67.8557 38.4343C68.0372 38.3259 68.255 38.3982 68.364 38.5788L72.0308 44.9002C72.1398 45.0808 72.0672 45.2976 71.8856 45.4059C71.813 45.4059 71.7767 45.4421 71.7041 45.4421Z"/>
  <path fill="currentColor" d="M74.8264 43.7082C74.6812 43.7082 74.5723 43.6359 74.4996 43.5276L71.0506 37.0616C70.9417 36.881 71.0143 36.6643 71.1958 36.5559C71.3773 36.4476 71.5952 36.5198 71.7041 36.7004L75.1532 43.1663C75.2621 43.347 75.1895 43.5637 75.0079 43.6721C74.9353 43.7082 74.8627 43.7082 74.8264 43.7082Z"/>
  <path fill="currentColor" d="M77.985 42.0827C77.8398 42.0827 77.7309 42.0104 77.6583 41.8659L74.427 35.2916C74.3544 35.111 74.427 34.8943 74.6085 34.7859C74.7901 34.7137 75.0079 34.7859 75.1168 34.9665L78.3481 41.5408C78.4207 41.7214 78.3481 41.9382 78.1665 42.0466C78.0939 42.0827 78.0576 42.0827 77.985 42.0827Z"/>
  <path fill="currentColor" d="M81.2526 40.5655C81.1073 40.5655 80.9621 40.4933 80.9258 40.3488L77.9487 33.6661C77.8761 33.4855 77.9487 33.2688 78.1302 33.1965C78.3118 33.1243 78.5296 33.1965 78.6022 33.3772L81.5793 40.0598C81.6519 40.2404 81.5793 40.4572 81.3978 40.5294C81.3252 40.5655 81.2889 40.5655 81.2526 40.5655Z"/>
  <path fill="currentColor" d="M84.5201 39.1928C84.3748 39.1928 84.2296 39.1206 84.1933 38.9761L81.4341 32.1851C81.3614 32.0045 81.4341 31.7878 81.6519 31.7155C81.8334 31.6433 82.0513 31.7155 82.1239 31.9322L84.8831 38.7233C84.9557 38.9039 84.8831 39.1206 84.6653 39.1928C84.629 39.1928 84.5564 39.1928 84.5201 39.1928Z"/>
  <path fill="currentColor" d="M87.8602 37.8924C87.715 37.8924 87.5698 37.7841 87.4971 37.6396L84.9921 30.7763C84.9194 30.5957 85.0284 30.379 85.2099 30.3067C85.3914 30.2345 85.6092 30.3428 85.6819 30.5235L88.187 37.3867C88.2596 37.5673 88.1507 37.7841 87.9691 37.8563C87.9328 37.8924 87.8965 37.8924 87.8602 37.8924Z"/>
  <path fill="currentColor" d="M91.2367 36.7365C91.0914 36.7365 90.9462 36.6282 90.8736 36.4837L88.5863 29.5482C88.5137 29.3676 88.6226 29.1508 88.8405 29.0786C89.022 29.0063 89.2398 29.1147 89.3124 29.3315L91.5997 36.267C91.6723 36.4476 91.5634 36.6643 91.3456 36.7365C91.3093 36.7365 91.273 36.7365 91.2367 36.7365Z"/>
  <path fill="currentColor" d="M94.6494 35.689C94.5042 35.689 94.3227 35.5806 94.2864 35.4361L92.2532 28.4283C92.1806 28.2477 92.3259 28.031 92.5074 27.9588C92.6889 27.8865 92.9067 28.031 92.9794 28.2116L95.0125 35.2194C95.0851 35.4 94.9399 35.6167 94.7583 35.689C94.722 35.689 94.6857 35.689 94.6494 35.689Z"/>
  <path fill="currentColor" d="M98.0984 34.7859C97.9169 34.7859 97.7717 34.6776 97.7354 34.497L95.9564 27.417C95.9201 27.2363 96.029 27.0196 96.2105 26.9835C96.3921 26.9474 96.6099 27.0557 96.6462 27.2363L98.4252 34.3163C98.4615 34.497 98.3526 34.7137 98.171 34.7498C98.171 34.7859 98.1347 34.7859 98.0984 34.7859Z"/>
  <path fill="currentColor" d="M101.584 33.9551C101.402 33.9551 101.257 33.8468 101.221 33.6662L99.6959 26.5139C99.6596 26.2972 99.7685 26.1165 99.9864 26.0804C100.204 26.0443 100.386 26.1527 100.422 26.3694L101.947 33.5217C101.983 33.7384 101.874 33.919 101.656 33.9551C101.62 33.9551 101.62 33.9551 101.584 33.9551Z"/>
  <path fill="currentColor" d="M105.069 33.2688C104.888 33.2688 104.742 33.1604 104.706 32.9798L103.435 25.7914C103.399 25.5747 103.544 25.3941 103.726 25.358C103.944 25.3218 104.125 25.4663 104.162 25.6469L105.432 32.8353C105.469 33.052 105.323 33.2326 105.142 33.2688C105.142 33.2688 105.106 33.2688 105.069 33.2688Z"/>
  <path fill="currentColor" d="M108.627 32.7269C108.446 32.7269 108.3 32.5824 108.264 32.4018L107.248 25.1773C107.211 24.9606 107.356 24.78 107.574 24.7439C107.792 24.7078 107.974 24.8522 108.01 25.069L109.027 32.2935C109.063 32.5102 108.918 32.6908 108.7 32.7269C108.663 32.7269 108.627 32.7269 108.627 32.7269Z"/>
  <path fill="currentColor" d="M112.149 32.2935C111.967 32.2935 111.786 32.149 111.786 31.9684L111.023 24.7077C110.987 24.491 111.132 24.3104 111.35 24.3104C111.532 24.2743 111.749 24.4188 111.749 24.6355L112.512 31.8961C112.548 32.1129 112.403 32.2935 112.185 32.2935C112.185 32.2935 112.185 32.2935 112.149 32.2935Z"/>
  <path fill="currentColor" d="M115.707 31.9684C115.525 31.9684 115.344 31.8239 115.344 31.6072L114.835 24.3104C114.835 24.0937 114.981 23.9131 115.162 23.9131C115.38 23.9131 115.562 24.0576 115.562 24.2382L116.07 31.5349C116.106 31.7878 115.961 31.9684 115.707 31.9684C115.743 31.9684 115.743 31.9684 115.707 31.9684Z"/>
  <path fill="currentColor" d="M119.301 31.7877C119.12 31.7877 118.938 31.6433 118.938 31.4265L118.684 24.1298C118.684 23.9131 118.829 23.7686 119.047 23.7324C119.228 23.6963 119.41 23.8769 119.446 24.0937L119.7 31.3904C119.664 31.6071 119.519 31.7877 119.301 31.7877Z"/>
  <path fill="currentColor" d="M123.367 65.2733L123.73 195.314L123.367 65.2733Z"/>
  <path fill="currentColor" d="M123.731 65.2729L123.005 65.2749L123.366 195.316L124.092 195.314L123.731 65.2729Z"/>
  <path fill="currentColor" d="M188.9 130.836L58.1983 131.197L188.9 130.836Z"/>
  <path fill="currentColor" d="M188.899 130.467L58.1978 130.844L58.1999 131.567L188.901 131.189L188.899 130.467Z"/>
</svg>
