<svg viewBox="0 0 245 245" xmlns="http://www.w3.org/2000/svg">
  <path fill="currentColor" d="M216.129+122.992L210.756+122.992L210.756+127.976L216.746+127.976L216.746+129.457L208.977+129.457L208.977+115.695L216.456+115.695L216.456+117.176L210.756+117.176L210.756+121.547L216.129+121.547L216.129+122.992Z" />
  <path fill="currentColor" d="M29.3351+129.457L25.8135+115.695L27.7014+115.695L29.3351+122.666C29.7345+124.4+30.0975+126.098+30.3517+127.435L30.388+127.435C30.6058+126.062+31.0415+124.436+31.5135+122.666L33.3651+115.731L35.2167+115.731L36.8867+122.739C37.2861+124.364+37.6492+126.026+37.867+127.471L37.9033+127.471C38.1938+125.954+38.5931+124.436+39.0288+122.703L40.8441+115.767L42.6594+115.767L38.7383+129.53L36.8867+129.53L35.1441+122.341C34.7084+120.571+34.4179+119.235+34.2364+117.862L34.2001+117.862C33.946+119.235+33.6555+120.571+33.1472+122.341L31.1867+129.53L29.3351+129.53L29.3351+129.457Z" />
  <path fill="currentColor" d="M117.195+42.6552L117.195+28.8925L119.156+28.8925L123.585+35.8641C124.602+37.4897+125.4+38.9346+126.054+40.3433L126.09+40.3072C125.909+38.465+125.872+36.8033+125.872+34.636L125.872+28.8564L127.543+28.8564L127.543+42.6552L125.727+42.6552L121.334+35.6474C120.354+34.1303+119.446+32.5409+118.757+31.0599L118.72+31.096C118.829+32.8299+118.865+34.4915+118.865+36.7672L118.865+42.6552L117.195+42.6552Z" />
  <path fill="currentColor" d="M118.357+214.056C119.156+214.562+120.318+214.959+121.552+214.959C123.367+214.959+124.457+213.984+124.457+212.611C124.457+211.311+123.73+210.589+121.843+209.866C119.592+209.071+118.176+207.915+118.176+205.965C118.176+203.834+119.955+202.208+122.641+202.208C124.057+202.208+125.074+202.533+125.691+202.894L125.183+204.339C124.747+204.086+123.803+203.689+122.569+203.689C120.681+203.689+119.955+204.809+119.955+205.748C119.955+207.049+120.79+207.663+122.714+208.421C125.074+209.324+126.236+210.444+126.236+212.467C126.236+214.598+124.638+216.44+121.371+216.44C120.027+216.44+118.575+216.043+117.849+215.573L118.357+214.056Z" />
  <path fill="currentColor" d="M125.019+4.21649C124.98+6.35511+124.15+7.53296+122.766+7.51697C121.526+7.49129+120.72+6.31433+120.728+4.25019C120.769+2.14768+121.711+0.998529+122.985+1.02187C124.331+1.00423+125.067+2.22209+125.019+4.21649ZM121.602+4.26413C121.566+5.8957+122.065+6.83979+122.831+6.86093C123.705+6.87487+124.147+5.86782+124.186+4.27223C124.227+2.71274+123.831+1.68936+122.957+1.67543C122.191+1.65428+121.631+2.52444+121.602+4.26413Z" />
  <path fill="currentColor" d="M159.201+11.2286L159.419+10.759L160.29+10.47C162.396+9.7476+163.413+9.3141+163.848+8.4833C164.103+7.9053+164.103+7.219+163.231+6.8217C162.723+6.5688+162.142+6.6411+161.779+6.7494L161.779+6.0992C162.324+5.9547+163.013+5.9547+163.667+6.2798C164.901+6.8578+165.047+7.9415+164.647+8.7723C164.139+9.8198+162.977+10.3255+161.234+10.9396L160.581+11.1564L163.159+12.3484L162.868+12.9986L159.201+11.2286Z" />
  <path fill="currentColor" d="M168.895+12.1678C167.987+14.1184+166.753+14.8409+165.482+14.2629C164.357+13.7572+164.102+12.3484+164.974+10.4339C165.881+8.5194+167.188+7.8331+168.35+8.3749C169.585+8.9529+169.766+10.3617+168.895+12.1678ZM165.736+10.8313C165.046+12.3123+165.119+13.3598+165.809+13.7211C166.608+14.0823+167.406+13.3598+168.096+11.8788C168.75+10.47+168.822+9.3864+168.024+8.989C167.37+8.6639+166.499+9.278+165.736+10.8313Z" />
  <path fill="currentColor" d="M197.286+32.0713L198.521+30.8431L196.451+28.748L196.851+28.3507L201.715+27.5198L202.369+28.17L199.573+30.9515L200.191+31.5656L199.719+32.0352L199.101+31.4211L197.867+32.6492L197.286+32.0713ZM198.993+30.3735L200.481+28.8925C200.699+28.6758+200.953+28.4229+201.207+28.2062L201.171+28.17C200.772+28.2784+200.481+28.3868+200.154+28.459L197.54+28.8925L198.993+30.3735Z" />
  <path fill="currentColor" d="M204.221+34.4192C202.696+35.9363+201.28+36.1892+200.3+35.2139C199.428+34.347+199.646+32.9382+201.135+31.4572C202.659+29.9761+204.112+29.7955+205.019+30.6986C205.963+31.6378+205.637+33.0104+204.221+34.4192ZM201.715+32.0712C200.554+33.2272+200.227+34.2386+200.808+34.7804C201.425+35.3945+202.442+34.961+203.603+33.8412C204.693+32.7576+205.165+31.7461+204.511+31.1321C203.966+30.5902+202.95+30.8431+201.715+32.0712Z" />
  <path fill="currentColor" d="M229.925+61.6194C229.853+61.4388+229.744+61.2582+229.635+61.0415C228.872+59.9217+227.674+59.6688+226.658+59.9939L226.658+60.0301C227.13+60.1384+227.674+60.4635+227.965+61.1137C228.437+62.1252+228.037+63.1727+226.912+63.6784C225.859+64.148+224.552+63.8952+224.007+62.7031C223.426+61.475+224.007+60.2468+225.532+59.5605C226.658+59.0547+227.747+59.0186+228.582+59.3437C229.272+59.5966+229.853+60.1023+230.288+60.7886C230.433+61.0054+230.542+61.186+230.579+61.3305L229.925+61.6194ZM226.512+62.9199C227.347+62.5586+227.602+61.8362+227.275+61.1137C227.057+60.6441+226.549+60.3552+226.04+60.319C225.931+60.319+225.786+60.319+225.641+60.3913C224.697+60.8609+224.189+61.5833+224.588+62.4141C224.915+63.1005+225.677+63.3172+226.512+62.9199Z" />
  <path fill="currentColor" d="M230.034+67.7241C228.073+68.6272+226.658+68.4105+226.077+67.1101C225.568+65.9903+226.258+64.7621+228.146+63.859C230.07+62.956+231.523+63.3172+232.067+64.4731C232.612+65.7013+231.849+66.8933+230.034+67.7241ZM228.473+64.6537C226.984+65.3401+226.331+66.207+226.658+66.8933C227.021+67.688+228.146+67.6519+229.598+66.9656C231.014+66.3154+231.777+65.5207+231.414+64.726C231.123+64.0397+230.07+63.9313+228.473+64.6537Z" />
  <path fill="currentColor" d="M240.309+98.681C241.107+98.609+241.725+99.042+242.088+99.801L242.124+99.801C242.414+99.078+242.923+98.717+243.467+98.681C244.484+98.609+245.21+99.404+245.319+100.487C245.428+101.715+244.702+102.366+243.903+102.438C243.358+102.474+242.777+102.257+242.342+101.535L242.305+101.535C242.051+102.33+241.543+102.871+240.781+102.944C239.691+103.016+238.856+102.149+238.784+100.957C238.675+99.62+239.401+98.753+240.309+98.681ZM240.635+102.077C241.398+102.004+241.725+101.463+241.906+100.596C241.616+99.873+241.107+99.512+240.526+99.584C239.873+99.62+239.365+100.126+239.437+100.957C239.474+101.679+239.982+102.113+240.635+102.077ZM243.612+99.476C242.995+99.512+242.669+100.018+242.56+100.776C242.777+101.318+243.213+101.679+243.794+101.643C244.302+101.607+244.811+101.246+244.738+100.487C244.629+99.765+244.157+99.44+243.612+99.476Z" />
  <path fill="currentColor" d="M242.705+107.784C240.563+107.965+239.292+107.278+239.183+105.869C239.074+104.641+240.163+103.702+242.269+103.522C244.375+103.341+245.646+104.172+245.718+105.436C245.827+106.773+244.702+107.603+242.705+107.784ZM242.305+104.352C240.672+104.497+239.764+105.075+239.837+105.833C239.909+106.7+240.962+107.025+242.56+106.917C244.121+106.809+245.101+106.303+245.028+105.436C244.992+104.677+244.048+104.244+242.305+104.352Z" />
  <path fill="currentColor" d="M245.391+140.583L245.101+139.355L245.791+139.355L246.154+140.872L245.972+141.558L239.873+139.861L240.091+139.066L245.391+140.583Z" />
  <path fill="currentColor" d="M241.216+147.013C239.147+146.435+238.203+145.351+238.566+144.015C238.893+142.823+240.236+142.317+242.269+142.859C244.302+143.437+245.21+144.629+244.847+145.857C244.52+147.157+243.14+147.555+241.216+147.013ZM242.051+143.69C240.454+143.256+239.437+143.473+239.219+144.232C239.002+145.062+239.873+145.749+241.434+146.182C242.923+146.58+244.048+146.471+244.266+145.64C244.447+144.918+243.685+144.159+242.051+143.69Z" />
  <path fill="currentColor" d="M239.873+151.817C237.803+151.239+236.86+150.156+237.223+148.819C237.549+147.627+238.893+147.121+240.926+147.663C242.959+148.241+243.867+149.433+243.503+150.661C243.177+151.962+241.833+152.359+239.873+151.817ZM240.708+148.494C239.11+148.061+238.094+148.313+237.876+149.036C237.658+149.867+238.53+150.553+240.091+150.986C241.579+151.384+242.705+151.275+242.923+150.445C243.104+149.722+242.378+148.964+240.708+148.494Z" />
  <path fill="currentColor" d="M231.849+181.438L232.031+180.173L232.648+180.426L232.43+181.98L231.995+182.557L226.839+178.873L227.311+178.187L231.849+181.438Z" />
  <path fill="currentColor" d="M225.496+180.788L225.931+181.076L226.077+182.016C226.403+184.219+226.621+185.303+227.42+185.845C227.928+186.206+228.618+186.314+229.163+185.556C229.489+185.086+229.526+184.544+229.526+184.147L230.179+184.291C230.216+184.869+230.07+185.52+229.671+186.134C228.872+187.253+227.783+187.145+227.057+186.639C226.113+185.953+225.823+184.725+225.568+182.883L225.496+182.196L223.826+184.508L223.245+184.111L225.496+180.788Z" />
  <path fill="currentColor" d="M222.773+190.107C221.03+188.843+220.522+187.506+221.321+186.387C222.047+185.375+223.463+185.375+225.205+186.567C226.948+187.795+227.347+189.204+226.621+190.252C225.823+191.371+224.407+191.299+222.773+190.107ZM224.697+187.29C223.354+186.35+222.301+186.206+221.829+186.82C221.321+187.542+221.901+188.482+223.209+189.385C224.479+190.288+225.532+190.541+226.077+189.854C226.549+189.24+226.113+188.265+224.697+187.29Z" />
  <path fill="currentColor" d="M205.056+215.14L205.636+214.02L206.145+214.454L205.419+215.826L204.801+216.224L201.207+211.022L201.897+210.552L205.056+215.14Z" />
  <path fill="currentColor" d="M197.141+213.84L198.121+215.248L200.554+213.587L200.88+214.056L200.844+218.969L200.082+219.475L197.867+216.224L197.141+216.729L196.778+216.188L197.504+215.682L196.524+214.273L197.141+213.84ZM198.484+215.79L199.682+217.524C199.864+217.813+200.045+218.066+200.227+218.355L200.263+218.355C200.227+217.958+200.191+217.632+200.154+217.307L200.227+214.67L198.484+215.79Z" />
  <path fill="currentColor" d="M193.547+220.197C192.312+218.427+192.312+216.982+193.474+216.224C194.491+215.537+195.834+216.007+197.032+217.741C198.23+219.475+198.121+220.956+197.068+221.678C195.979+222.401+194.672+221.859+193.547+220.197ZM196.342+218.174C195.398+216.802+194.454+216.332+193.837+216.765C193.111+217.271+193.329+218.319+194.273+219.655C195.144+220.956+196.052+221.57+196.778+221.064C197.359+220.667+197.286+219.583+196.342+218.174Z" />
  <path fill="currentColor" d="M168.35+237.572L169.294+236.705L169.621+237.283L168.459+238.331L167.733+238.511L166.172+232.406L166.971+232.19L168.35+237.572Z" />
  <path fill="currentColor" d="M161.852+239.414C162.033+239.378+162.251+239.306+162.469+239.234C163.703+238.692+164.175+237.572+164.066+236.525L164.03+236.525C163.848+236.994+163.413+237.428+162.723+237.608C161.634+237.897+160.653+237.283+160.363+236.091C160.073+234.971+160.581+233.743+161.852+233.418C163.159+233.093+164.284+233.888+164.683+235.477C164.974+236.669+164.792+237.753+164.357+238.511C163.957+239.125+163.376+239.631+162.614+239.92C162.36+240.028+162.178+240.065+162.033+240.137L161.852+239.414ZM161.198+235.838C161.416+236.705+162.069+237.102+162.832+236.922C163.34+236.813+163.703+236.38+163.848+235.874C163.885+235.766+163.885+235.621+163.848+235.477C163.558+234.466+162.904+233.851+162.033+234.068C161.307+234.249+160.944+234.971+161.198+235.838Z" />
  <path fill="currentColor" d="M155.788+238.403C155.244+236.308+155.752+234.971+157.096+234.646C158.294+234.357+159.383+235.26+159.927+237.283C160.436+239.342+159.855+240.679+158.584+241.004C157.313+241.293+156.297+240.354+155.788+238.403ZM159.129+237.464C158.729+235.874+158.003+235.08+157.241+235.296C156.406+235.513+156.224+236.597+156.624+238.15C157.023+239.667+157.64+240.534+158.511+240.317C159.238+240.137+159.528+239.125+159.129+237.464Z" />
  <path fill="currentColor" d="M126.127+246.205L127.288+245.736L127.397+246.386L125.945+246.964L125.219+246.892L125.872+240.606L126.707+240.679L126.127+246.205Z" />
  <path fill="currentColor" d="M123.476+242.015C123.404+242.81+122.859+243.315+122.06+243.568L122.06+243.604C122.714+244.002+122.968+244.58+122.932+245.122C122.823+246.133+121.915+246.711+120.826+246.603C119.592+246.494+119.083+245.663+119.156+244.869C119.229+244.327+119.519+243.785+120.354+243.496L120.354+243.46C119.592+243.063+119.156+242.485+119.265+241.69C119.374+240.606+120.39+239.956+121.588+240.101C122.859+240.209+123.549+241.076+123.476+242.015ZM122.097+245.085C122.169+244.471+121.734+244.074+121.008+243.785C120.463+243.93+119.991+244.255+119.918+244.833C119.882+245.338+120.1+245.88+120.862+245.952C121.588+246.025+122.024+245.627+122.097+245.085ZM120.064+241.69C119.991+242.449+120.463+242.882+121.298+243.207C122.06+243.063+122.496+242.629+122.569+242.015C122.678+241.365+122.242+240.787+121.443+240.679C120.681+240.642+120.136+241.04+120.064+241.69Z" />
  <path fill="currentColor" d="M114.037+242.665C114.255+240.534+115.162+239.45+116.578+239.559C117.813+239.667+118.539+240.931+118.321+242.99C118.103+245.085+117.086+246.169+115.779+246.025C114.472+245.916+113.855+244.688+114.037+242.665ZM117.486+242.918C117.667+241.293+117.232+240.317+116.469+240.245C115.598+240.173+115.09+241.112+114.908+242.738C114.763+244.291+115.053+245.338+115.925+245.411C116.687+245.483+117.304+244.652+117.486+242.918Z" />
  <path fill="currentColor" d="M87.4609+235.549L87.2431+236.019L86.3354+236.308C84.1934+236.994+83.1768+237.391+82.7774+238.258C82.487+238.836+82.5233+239.486+83.3583+239.92C83.8666+240.173+84.4475+240.101+84.8106+240.028L84.7743+240.678C84.2297+240.823+83.5398+240.787+82.8863+240.462C81.6519+239.884+81.543+238.764+81.9424+237.969C82.4507+236.922+83.6488+236.452+85.3915+235.874L86.045+235.694L83.4672+234.465L83.794+233.815L87.4609+235.549Z" />
  <path fill="currentColor" d="M77.7672+234.429C78.7112+232.515+79.9456+231.792+81.2163+232.407C82.3417+232.948+82.5596+234.357+81.6882+236.236C80.7443+238.15+79.401+238.8+78.2755+238.222C77.0411+237.608+76.8596+236.236+77.7672+234.429ZM80.8895+235.838C81.6156+234.357+81.5793+233.31+80.8532+232.948C80.0545+232.551+79.2557+233.31+78.5296+234.754C77.8398+236.163+77.7672+237.247+78.5659+237.644C79.2557+237.969+80.1271+237.355+80.8895+235.838Z" />
  <path fill="currentColor" d="M73.2653+232.226C74.2092+230.311+75.4436+229.589+76.7143+230.203C77.8398+230.745+78.0577+232.154+77.1863+234.032C76.2424+235.946+74.899+236.597+73.7736+236.019C72.5392+235.441+72.3576+234.032+73.2653+232.226ZM76.3876+233.635C77.1137+232.154+77.0774+231.106+76.3513+230.745C75.5526+230.348+74.7538+231.106+74.0277+232.551C73.3379+233.96+73.2653+235.043+74.064+235.441C74.7538+235.766+75.6252+235.188+76.3876+233.635Z" />
  <path fill="currentColor" d="M50.6467+216.368L50.2836+216.729L49.3397+216.693C47.0887+216.585+45.9996+216.621+45.3097+217.307C44.8378+217.741+44.6199+218.391+45.2734+219.077C45.6728+219.475+46.2174+219.619+46.5804+219.655L46.3263+220.269C45.7454+220.197+45.1282+219.944+44.6199+219.439C43.676+218.463+43.9301+217.416+44.5836+216.765C45.4187+215.971+46.6894+215.899+48.541+215.971L49.2308+216.007L47.2703+213.948L47.7785+213.442L50.6467+216.368Z" />
  <path fill="currentColor" d="M47.1613+212.756L46.7983+213.117L45.8543+213.081C43.6033+212.973+42.5142+213.009+41.8244+213.695C41.3524+214.129+41.1345+214.779+41.788+215.465C42.1874+215.862+42.732+216.007+43.0951+216.043L42.8409+216.657C42.26+216.585+41.6428+216.332+41.1345+215.826C40.1906+214.851+40.4447+213.803+41.0982+213.153C41.9333+212.359+43.204+212.286+45.0556+212.359L45.7454+212.395L43.7849+210.336L44.2932+209.83L47.1613+212.756Z" />
  <path fill="currentColor" d="M38.4479+208.385C40.0091+206.904+41.425+206.651+42.4053+207.663C43.2766+208.566+43.0225+209.938+41.4976+211.419C39.9728+212.9+38.4842+213.045+37.5766+212.106C36.6689+211.166+36.9957+209.794+38.4479+208.385ZM40.9167+210.805C42.1148+209.649+42.4416+208.674+41.897+208.096C41.2798+207.482+40.2632+207.879+39.1014+208.999C37.9759+210.083+37.5039+211.058+38.1211+211.708C38.6294+212.25+39.646+211.997+40.9167+210.805Z" />
  <path fill="currentColor" d="M22.8727+186.061L22.4007+186.278L21.5294+185.917C19.4599+185.05+18.4071+184.725+17.5357+185.086C16.9548+185.339+16.5191+185.881+16.9185+186.748C17.1363+187.253+17.6083+187.579+17.9351+187.759L17.4994+188.265C16.9911+188.012+16.4828+187.542+16.1924+186.892C15.6478+185.664+16.265+184.761+17.1+184.4C18.1892+183.93+19.3873+184.327+21.0937+185.014L21.7109+185.303L20.5491+182.702L21.2026+182.413L22.8727+186.061Z" />
  <path fill="currentColor" d="M19.7504+179.09L18.1529+179.776L19.351+182.449L18.8427+182.666L14.014+181.727L13.651+180.896L17.2453+179.306L16.8822+178.512L17.4994+178.259L17.8625+179.054L19.4599+178.367L19.7504+179.09ZM17.572+180.065L15.6478+180.932C15.3574+181.076+15.0306+181.185+14.7402+181.293L14.7402+181.329C15.1758+181.365+15.4663+181.402+15.793+181.438L18.4071+181.98L17.572+180.065Z" />
  <path fill="currentColor" d="M14.1593+174.394C16.1198+173.527+17.5357+173.78+18.1166+175.044C18.6249+176.164+17.8988+177.392+15.9746+178.259C14.014+179.126+12.5981+178.765+12.0535+177.573C11.5089+176.381+12.3077+175.225+14.1593+174.394ZM15.6115+177.5C17.1363+176.85+17.7899+175.983+17.4631+175.297C17.1+174.502+16.0109+174.538+14.5223+175.189C13.1064+175.803+12.3077+176.597+12.6707+177.392C12.9975+178.078+14.0503+178.187+15.6115+177.5Z" />
  <path fill="currentColor" d="M7.22489+147.988L6.71661+148.024L6.0268+147.41C4.39303+145.893+3.52169+145.243+2.57774+145.279C1.92423+145.315+1.34334+145.676+1.41595+146.616C1.45226+147.194+1.77901+147.627+2.03315+147.916L1.45226+148.241C1.05289+147.844+0.726141+147.23+0.689835+146.507C0.617223+145.135+1.48856+144.52+2.39621+144.448C3.558+144.376+4.57456+145.171+5.95419+146.399L6.46247+146.868L6.49878+146.868L6.31725+144.051L7.04336+144.015L7.22489+147.988Z" />
  <path fill="currentColor" d="M0.943941+139.788C0.943941+139.969+0.980247+140.186+1.01655+140.439C1.34331+141.775+2.35987+142.389+3.41274+142.498L3.41274+142.462C2.97707+142.173+2.61401+141.667+2.57771+140.981C2.50509+139.861+3.26752+139.03+4.50192+138.958C5.6637+138.885+6.78919+139.608+6.8618+140.908C6.93441+142.245+5.95415+143.22+4.32039+143.328C3.08599+143.401+2.06942+143.039+1.41592+142.462C0.87133+141.956+0.508271+141.306+0.363048+140.511C0.290436+140.258+0.290436+140.041+0.290436+139.897L0.943941+139.788ZM4.61083+139.788C3.70319+139.861+3.19491+140.403+3.23121+141.197C3.26752+141.703+3.63058+142.173+4.10255+142.353C4.21147+142.389+4.32039+142.425+4.50192+142.425C5.55479+142.353+6.2809+141.811+6.20829+140.908C6.17199+140.186+5.51848+139.752+4.61083+139.788Z" />
  <path fill="currentColor" d="M3.086+134.081C5.22804+133.937+6.46244+134.659+6.57136+136.068C6.64397+137.296+5.5548+138.199+3.44906+138.344C1.34331+138.488+0.108915+137.657-2.49641e-06+136.357C-0.0726142+135.02+1.05287+134.189+3.086+134.081ZM3.41275+137.477C5.04651+137.368+5.95416+136.79+5.91785+136.032C5.84524+135.165+4.82868+134.804+3.19491+134.912C1.63376+135.02+0.653503+135.49+0.689809+136.357C0.726115+137.115+1.67007+137.585+3.41275+137.477Z" />
  <path fill="currentColor" d="M5.73632+106.881L5.22804+106.736L4.79237+105.906C3.77581+103.919+3.19491+103.016+2.28727+102.727C1.67007+102.546+1.01656+102.691+0.726112+103.594C0.580889+104.136+0.726112+104.677+0.871336+105.039L0.21783+105.147C-5.56652e-06+104.641-0.108923+103.955+0.108912+103.269C0.508277+101.968+1.56115+101.679+2.43249+101.932C3.55797+102.257+4.21148+103.341+5.08282+104.966L5.37326+105.581L5.40957+105.581L6.2083+102.871L6.89811+103.088L5.73632+106.881Z" />
  <path fill="currentColor" d="M5.59111+101.752C4.82869+101.535+4.42932+100.921+4.32041+100.09L4.2841+100.09C3.77582+100.668+3.15862+100.812+2.65034+100.668C1.67008+100.379+1.27071+99.367+1.59747+98.32C1.96052+97.128+2.86817+96.767+3.63059+96.983C4.13888+97.128+4.61085+97.561+4.75608+98.392L4.79238+98.392C5.30067+97.742+5.99048+97.417+6.71659+97.634C7.76946+97.959+8.20514+99.042+7.87838+100.198C7.47902+101.463+6.49876+102.004+5.59111+101.752ZM2.83187+99.837C3.44907+100.018+3.92104+99.656+4.2841+99.006C4.24779+98.428+3.99365+97.923+3.44907+97.778C2.97709+97.634+2.35989+97.778+2.14205+98.5C1.96052+99.187+2.28728+99.693+2.83187+99.837ZM6.53507+98.464C5.80895+98.248+5.30067+98.645+4.82869+99.404C4.82869+100.162+5.19175+100.704+5.77264+100.848C6.38984+101.065+7.07965+100.74+7.29749+99.982C7.47902+99.259+7.15227+98.645+6.53507+98.464Z" />
  <path fill="currentColor" d="M6.64397+92.396C8.7134+93.01+9.62105+94.094+9.22169+95.43C8.85863+96.622+7.51531+97.092+5.51849+96.514C3.48536+95.9+2.61402+94.708+2.97708+93.479C3.37644+92.215+4.71976+91.854+6.64397+92.396ZM5.77263+95.719C7.37009+96.189+8.38665+95.972+8.60449+95.213C8.85863+94.383+7.98729+93.696+6.42614+93.227C4.93759+92.793+3.84842+92.865+3.59428+93.732C3.41275+94.455+4.13887+95.249+5.77263+95.719Z" />
  <path fill="currentColor" d="M17.7535+66.9656C18.0077+66.8572+18.5523+66.5683+18.9153+66.0625C19.5688+65.1956+19.2058+64.5093+18.7701+64.1842C18.044+63.6785+17.2816+64.0758+16.7733+64.7621L16.4828+65.1595L15.9746+64.7621L16.265+64.3648C16.6281+63.8591+16.8459+63.0282+16.2287+62.5948C15.8293+62.3058+15.2847+62.2697+14.8128+62.9199C14.5223+63.3172+14.4134+63.8591+14.4134+64.1842L13.7599+64.0036C13.7599+63.6062+13.9414+62.9199+14.3408+62.378C15.0669+61.3666+16.0109+61.3666+16.6281+61.8362C17.1363+62.2335+17.3542+62.8476+17.1363+63.6423C17.7172+63.1005+18.5886+62.956+19.2784+63.4617C20.0771+64.0758+20.3313+65.2317+19.4236+66.4238C18.9879+67.0017+18.4434+67.3629+18.0803+67.4713L17.7535+66.9656Z" />
  <path fill="currentColor" d="M21.3115+58.4407C23.0542+59.705+23.5262+61.0777+22.6911+62.1975C21.965+63.1728+20.5128+63.1728+18.8064+61.9446C17.1+60.6803+16.7007+59.2715+17.4631+58.224C18.2618+57.1403+19.6778+57.2486+21.3115+58.4407ZM19.3147+61.2583C20.658+62.2336+21.7109+62.3781+22.1466+61.764C22.6548+61.0777+22.1102+60.1023+20.8032+59.1631C19.5325+58.224+18.4797+57.9711+17.9714+58.6574C17.5357+59.2354+17.9351+60.2107+19.3147+61.2583Z" />
  <path fill="currentColor" d="M24.2886+54.4311C26.0313+55.6954+26.5033+57.068+25.6682+58.1878C24.9421+59.1631+23.4899+59.1632+21.7835+57.935C20.0771+56.6707+19.6778+55.2619+20.4402+54.2144C21.2389+53.1307+22.6548+53.2391+24.2886+54.4311ZM22.2918+57.2487C23.6351+58.224+24.688+58.3685+25.1236+57.7544C25.6319+57.068+25.0873+56.0927+23.7803+55.1536C22.5096+54.2144+21.4567+53.9615+20.9485+54.6478C20.5128+55.2258+20.9122+56.2011+22.2918+57.2487Z" />
  <path fill="currentColor" d="M43.5671+34.3108C43.8575+34.3108+44.4747+34.2025+44.9467+33.8774C45.8543+33.2633+45.7817+32.5047+45.455+32.0712C44.9467+31.3488+44.0753+31.4571+43.3855+31.9267L42.9862+32.1796L42.6231+31.6378L43.0225+31.3849C43.5308+31.0598+44.039+30.3374+43.6034+29.7233C43.3129+29.2898+42.8046+29.1092+42.1511+29.5427C41.7155+29.8316+41.4613+30.2651+41.3161+30.5902L40.7715+30.1929C40.9167+29.7955+41.3161+29.2537+41.897+28.8925C42.9499+28.2061+43.8212+28.5312+44.2569+29.1453C44.6199+29.6871+44.5836+30.3735+44.1116+31.0237C44.8378+30.7347+45.7091+30.8792+46.1811+31.6016C46.7257+32.4325+46.5804+33.6245+45.3097+34.4553C44.7288+34.8527+44.0753+34.9972+43.7123+34.9972L43.5671+34.3108Z" />
  <path fill="currentColor" d="M48.1053+32.5047L47.8148+32.0712L48.0327+31.1682C48.5409+29.0008+48.6862+27.9171+48.1779+27.1224C47.8148+26.5806+47.2339+26.2555+46.4352+26.7973C45.9632+27.1224+45.7091+27.6282+45.6002+27.9894L45.0556+27.6282C45.2008+27.0863+45.6002+26.5084+46.1811+26.111C47.3065+25.3524+48.3231+25.822+48.8314+26.5806C49.4849+27.5559+49.3034+28.8202+48.8677+30.5902L48.6862+31.2404L51.0823+29.6871L51.4817+30.2651L48.1053+32.5047Z" />
  <path fill="currentColor" d="M54.0231+24.7745C55.2212+26.5806+55.1849+27.9894+54.0231+28.748C53.0066+29.4343+51.6632+28.9286+50.4651+27.1947C49.3034+25.4247+49.4123+23.9437+50.5015+23.2574C51.6269+22.5349+52.9339+23.0767+54.0231+24.7745ZM51.2276+26.7251C52.1352+28.0978+53.0792+28.6035+53.7327+28.17C54.4588+27.7004+54.241+26.6167+53.3696+25.2441C52.4983+23.9437+51.6269+23.3296+50.8645+23.7992C50.211+24.2327+50.2473+25.3163+51.2276+26.7251Z" />
  <path fill="currentColor" d="M79.0379+12.6374C79.3283+12.7457+79.9092+12.8541+80.4901+12.7096C81.5793+12.4567+81.7245+11.6982+81.6156+11.1925C81.3978+10.3255+80.5264+10.1449+79.7277+10.3255L79.2557+10.4339L79.1105+9.8198L79.5825+9.7114C80.1997+9.5669+80.8895+9.0612+80.7079+8.3388C80.599+7.8331+80.1634+7.4718+79.4009+7.6525C78.8927+7.7608+78.4933+8.0859+78.2755+8.3388L77.9124+7.7969C78.1665+7.4718+78.7474+7.1106+79.4009+6.93C80.599+6.641+81.3251+7.219+81.5067+7.9776C81.6519+8.6278+81.3978+9.2418+80.7079+9.6753L80.7079+9.7114C81.5067+9.6753+82.2691+10.1088+82.4506+10.9757C82.6685+11.951+82.1239+12.9986+80.6353+13.3598C79.9455+13.5404+79.292+13.4321+78.929+13.3237L79.0379+12.6374Z" />
  <path fill="currentColor" d="M86.5169+11.9149L86.1175+10.2533L83.2493+10.9396L83.1041+10.3977L84.9194+5.8463L85.8271+5.6296L86.7347+9.4586L87.606+9.2418L87.7513+9.892L86.8799+10.1088L87.2793+11.7704L86.5169+11.9149ZM85.9723+9.5669L85.5003+7.5079C85.4277+7.1828+85.3551+6.8577+85.2825+6.5326L85.2462+6.5326C85.1372+6.93+85.0646+7.219+84.9557+7.5441L83.9391+10.0004L83.9391+10.0365L85.9723+9.5669Z" />
  <path fill="currentColor" d="M92.1443+7.2551C92.6526+9.3502+92.1443+10.6867+90.7647+11.0118C89.5666+11.3008+88.4774+10.3616+87.9691+8.3388C87.4971+6.2798+88.1143+4.9433+89.3487+4.6543C90.692+4.3292+91.7086+5.3045+92.1443+7.2551ZM88.8404+8.1582C89.2035+9.7476+89.9296+10.5423+90.692+10.3616C91.5634+10.1449+91.7086+9.0612+91.3456+7.508C90.9825+5.9908+90.3653+5.0878+89.4939+5.3045C88.7678+5.449+88.4411+6.4604+88.8404+8.1582Z" />
  <path fill="currentColor" d="M123.004+24.8468C122.605+24.8468+122.278+24.5217+122.278+24.1243L122.278+12.7457C122.278+12.3484+122.605+12.0233+123.004+12.0233C123.404+12.0233+123.73+12.3484+123.73+12.7457L123.73+24.1243C123.767+24.4855+123.44+24.8468+123.004+24.8468Z" />
  <path fill="currentColor" d="M157.422+30.8792C157.35+30.8792+157.241+30.8792+157.168+30.8431C156.769+30.6986+156.587+30.2651+156.732+29.9039L160.653+19.2117C160.799+18.8143+161.234+18.6337+161.597+18.7782C161.997+18.9227+162.178+19.3561+162.033+19.7174L158.112+30.3735C158.003+30.6986+157.713+30.8792+157.422+30.8792Z" />
  <path fill="currentColor" d="M187.701+48.2541C187.52+48.2541+187.375+48.1819+187.229+48.0735C186.903+47.8207+186.866+47.3511+187.121+47.026L194.454+38.3204C194.708+37.9953+195.18+37.9592+195.507+38.2121C195.834+38.4649+195.87+38.9345+195.616+39.2596L188.282+47.9651C188.101+48.1458+187.883+48.2541+187.701+48.2541Z" />
  <path fill="currentColor" d="M210.138+74.8764C209.884+74.8764+209.63+74.7319+209.485+74.5152C209.267+74.154+209.412+73.7205+209.739+73.5037L219.614+67.8325C219.977+67.6158+220.413+67.7603+220.631+68.0854C220.849+68.4466+220.703+68.8801+220.377+69.0968L210.501+74.768C210.393+74.8403+210.284+74.8764+210.138+74.8764Z" />
  <path fill="currentColor" d="M222.083+107.531C221.72+107.531+221.43+107.278+221.357+106.917C221.284+106.52+221.538+106.122+221.974+106.05L233.229+104.063C233.628+103.991+234.028+104.244+234.1+104.677C234.173+105.075+233.919+105.472+233.483+105.544L222.228+107.531C222.192+107.531+222.119+107.531+222.083+107.531Z" />
  <path fill="currentColor" d="M233.338+144.268C233.302+144.268+233.265+144.268+233.193+144.268L221.938+142.281C221.538+142.209+221.248+141.811+221.321+141.414C221.393+141.017+221.793+140.728+222.192+140.8L233.447+142.787C233.846+142.859+234.137+143.256+234.064+143.654C234.028+144.051+233.701+144.268+233.338+144.268Z" />
  <path fill="currentColor" d="M220.05+180.679C219.941+180.679+219.796+180.643+219.687+180.571L209.775+174.863C209.412+174.647+209.303+174.213+209.521+173.852C209.739+173.491+210.175+173.382+210.538+173.599L220.413+179.27C220.776+179.487+220.885+179.921+220.667+180.282C220.558+180.535+220.304+180.679+220.05+180.679Z" />
  <path fill="currentColor" d="M195.035+210.3C194.817+210.3+194.599+210.227+194.454+210.047L187.121+201.341C186.866+201.016+186.903+200.547+187.229+200.294C187.556+200.041+188.028+200.077+188.282+200.402L195.616+209.108C195.87+209.433+195.834+209.902+195.507+210.155C195.362+210.263+195.18+210.3+195.035+210.3Z" />
  <path fill="currentColor" d="M161.343+229.661C161.053+229.661+160.762+229.481+160.654+229.192L156.732+218.499C156.587+218.102+156.805+217.705+157.168+217.56C157.567+217.416+157.967+217.632+158.112+217.994L162.033+228.686C162.178+229.083+161.961+229.481+161.598+229.625C161.489+229.661+161.416+229.661+161.343+229.661Z" />
  <path fill="currentColor" d="M123.004+236.38C122.605+236.38+122.278+236.055+122.278+235.658L122.278+224.279C122.278+223.882+122.605+223.556+123.004+223.556C123.404+223.556+123.73+223.882+123.73+224.279L123.73+235.658C123.767+236.055+123.44+236.38+123.004+236.38Z" />
  <path fill="currentColor" d="M84.7016+229.661C84.6289+229.661+84.52+229.661+84.4474+229.625C84.0481+229.481+83.8665+229.047+84.0117+228.686L87.9328+217.994C88.078+217.596+88.5137+217.416+88.8768+217.56C89.2761+217.705+89.4576+218.138+89.3124+218.499L85.3914+229.192C85.2825+229.481+84.992+229.661+84.7016+229.661Z" />
  <path fill="currentColor" d="M51.0097+210.3C50.8282+210.3+50.683+210.227+50.5378+210.119C50.211+209.866+50.1747+209.397+50.4288+209.071L57.7626+200.366C58.0168+200.041+58.4887+200.005+58.8155+200.257C59.1422+200.51+59.1785+200.98+58.9244+201.305L51.5906+210.011C51.4454+210.227+51.2276+210.3+51.0097+210.3Z" />
  <path fill="currentColor" d="M25.995+180.679C25.7409+180.679+25.4867+180.535+25.3415+180.318C25.1237+179.957+25.2689+179.523+25.5956+179.306L35.4708+173.635C35.8339+173.418+36.2696+173.563+36.4874+173.888C36.7053+174.249+36.56+174.683+36.2333+174.899L26.3581+180.571C26.2492+180.643+26.1402+180.679+25.995+180.679Z" />
  <path fill="currentColor" d="M12.6707+144.268C12.3077+144.268+12.0172+144.015+11.9446+143.654C11.872+143.256+12.1261+142.859+12.5618+142.787L23.8166+140.8C24.216+140.728+24.6154+140.981+24.688+141.414C24.7606+141.811+24.5064+142.209+24.0708+142.281L12.8159+144.268C12.7796+144.268+12.7433+144.268+12.6707+144.268Z" />
  <path fill="currentColor" d="M23.9256+107.531C23.8893+107.531+23.8529+107.531+23.7803+107.531L12.5255+105.544C12.1261+105.472+11.8357+105.075+11.9083+104.677C11.9809+104.28+12.3803+103.991+12.7797+104.063L24.0345+106.05C24.4338+106.122+24.7243+106.52+24.6517+106.917C24.6154+107.314+24.2886+107.531+23.9256+107.531Z" />
  <path fill="currentColor" d="M35.9065+74.8764C35.7976+74.8764+35.6523+74.8403+35.5434+74.768L25.6682+69.0968C25.3052+68.8801+25.1962+68.4466+25.4141+68.0854C25.6319+67.7241+26.0676+67.6158+26.4306+67.8325L36.3058+73.5037C36.6689+73.7205+36.7778+74.1539+36.56+74.5152C36.3785+74.7319+36.1606+74.8764+35.9065+74.8764Z" />
  <path fill="currentColor" d="M58.3435+48.2541C58.1257+48.2541+57.9078+48.1819+57.7626+48.0013L50.4288+39.2958C50.1747+38.9707+50.211+38.5011+50.5378+38.2482C50.8645+37.9954+51.3365+38.0315+51.5906+38.3566L58.9244+47.0621C59.1785+47.3872+59.1422+47.8568+58.8155+48.1096C58.6703+48.1819+58.525+48.2541+58.3435+48.2541Z" />
  <path fill="currentColor" d="M88.6226+30.8792C88.3322+30.8792+88.0417+30.6986+87.9328+30.4096L84.0118+19.7174C83.8666+19.32+84.0844+18.9227+84.4475+18.7782C84.8468+18.6337+85.2462+18.8504+85.3914+19.2117L89.3124+29.9039C89.4577+30.3013+89.2398+30.6986+88.8768+30.8431C88.7679+30.8431+88.6952+30.8792+88.6226+30.8792Z" />
  <path fill="currentColor" d="M122.859+22.7155C122.641+22.7155+122.496+22.5349+122.496+22.3543L122.496+15.0214C122.496+14.8047+122.678+14.6602+122.859+14.6602C123.041+14.6602+123.222+14.8408+123.222+15.0214L123.222+22.3182C123.222+22.5349+123.077+22.7155+122.859+22.7155Z" />
  <path fill="currentColor" d="M126.417+22.7516C126.199+22.7516+126.054+22.571+126.054+22.3543L126.308+15.0575C126.308+14.8408+126.526+14.6963+126.707+14.6963C126.925+14.6963+127.071+14.8769+127.071+15.0937L126.816+22.4265C126.78+22.6071+126.635+22.7516+126.417+22.7516Z" />
  <path fill="currentColor" d="M130.011+22.9323C129.975+22.9323+129.975+22.9323+130.011+22.9323C129.793+22.9323+129.612+22.7517+129.648+22.5349L130.157+15.2382C130.157+15.0214+130.338+14.8769+130.556+14.9131C130.774+14.9131+130.919+15.0937+130.883+15.3104L130.374+22.6072C130.374+22.7878+130.193+22.9323+130.011+22.9323Z" />
  <path fill="currentColor" d="M133.569+23.2573L133.533+23.2573C133.315+23.2212+133.17+23.0406+133.206+22.86L133.969+15.5633C134.005+15.3465+134.186+15.202+134.368+15.2382C134.586+15.2743+134.731+15.4549+134.695+15.6355L133.932+22.8961C133.896+23.1129+133.751+23.2573+133.569+23.2573Z" />
  <path fill="currentColor" d="M137.091+23.6908L137.055+23.6908C136.837+23.6547+136.728+23.4741+136.728+23.2573L137.744+16.0328C137.781+15.8161+137.962+15.7077+138.18+15.7077C138.398+15.7439+138.507+15.9245+138.507+16.1412L137.49+23.3657C137.454+23.5463+137.272+23.6908+137.091+23.6908Z" />
  <path fill="currentColor" d="M140.649+24.2327C140.613+24.2327+140.613+24.2327+140.576+24.2327C140.359+24.1965+140.25+24.0159+140.286+23.7992L141.557+16.6108C141.593+16.3941+141.774+16.2857+141.992+16.3218C142.21+16.358+142.319+16.5386+142.283+16.7553L141.012+23.9437C140.976+24.0882+140.83+24.2327+140.649+24.2327Z" />
  <path fill="currentColor" d="M144.134+24.919C144.098+24.919+144.098+24.919+144.062+24.919C143.844+24.8828+143.735+24.6661+143.771+24.4855L145.296+17.3332C145.332+17.1165+145.55+17.0081+145.732+17.0443C145.95+17.0804+146.059+17.2971+146.022+17.4777L144.497+24.5939C144.461+24.7745+144.316+24.919+144.134+24.919Z" />
  <path fill="currentColor" d="M147.62+25.7137C147.583+25.7137+147.547+25.7137+147.547+25.7137C147.366+25.6776+147.22+25.4608+147.293+25.2802L149.072+18.2002C149.108+18.0196+149.326+17.8751+149.508+17.9473C149.689+17.9835+149.834+18.2002+149.762+18.3808L147.983+25.4608C147.946+25.5692+147.801+25.7137+147.62+25.7137Z" />
  <path fill="currentColor" d="M151.069+26.6167C151.032+26.6167+150.996+26.6167+150.96+26.6167C150.778+26.5445+150.633+26.3639+150.706+26.1472L152.739+19.1394C152.811+18.9588+152.993+18.8504+153.211+18.8865C153.392+18.9588+153.538+19.1394+153.465+19.3561L151.432+26.3639C151.396+26.5084+151.25+26.6167+151.069+26.6167Z" />
  <path fill="currentColor" d="M154.518+27.6643C154.481+27.6643+154.445+27.6643+154.409+27.6643C154.227+27.592+154.118+27.3753+154.155+27.1947L156.442+20.2592C156.515+20.0786+156.732+19.9702+156.914+20.0063C157.096+20.0786+157.204+20.2953+157.168+20.4759L154.881+27.4114C154.808+27.5559+154.663+27.6643+154.518+27.6643Z" />
  <path fill="currentColor" d="M157.894+28.7841C157.858+28.7841+157.822+28.7841+157.785+28.748C157.604+28.6757+157.495+28.459+157.567+28.2784L160.073+21.4151C160.145+21.2345+160.363+21.1261+160.545+21.1984C160.726+21.2706+160.835+21.4874+160.762+21.668L158.257+28.5312C158.185+28.7119+158.039+28.7841+157.894+28.7841Z" />
  <path fill="currentColor" d="M161.234+30.0845C161.198+30.0845+161.125+30.0845+161.089+30.0484C160.908+29.9761+160.799+29.7594+160.871+29.5788L163.631+22.7878C163.703+22.6072+163.921+22.4988+164.103+22.571C164.284+22.6433+164.393+22.86+164.32+23.0406L161.561+29.8316C161.489+29.9761+161.38+30.0845+161.234+30.0845Z" />
  <path fill="currentColor" d="M164.502+31.4572C164.466+31.4572+164.393+31.4572+164.357+31.4211C164.175+31.3488+164.103+31.1321+164.175+30.9515L167.152+24.2688C167.225+24.0882+167.443+24.016+167.624+24.0882C167.806+24.1604+167.878+24.3772+167.806+24.5578L164.829+31.2404C164.792+31.3849+164.647+31.4572+164.502+31.4572Z" />
  <path fill="currentColor" d="M167.733+32.9382C167.697+32.9382+167.624+32.9382+167.588+32.9021C167.406+32.8298+167.334+32.5769+167.406+32.3963L170.638+25.822C170.71+25.6414+170.964+25.5692+171.146+25.6414C171.328+25.7137+171.4+25.9665+171.328+26.1471L168.096+32.7214C168.024+32.8659+167.878+32.9382+167.733+32.9382Z" />
  <path fill="currentColor" d="M170.928+34.5637C170.855+34.5637+170.819+34.5637+170.747+34.5276C170.565+34.4192+170.492+34.2025+170.601+34.0219L174.05+27.5559C174.159+27.3753+174.377+27.3031+174.559+27.4115C174.74+27.5198+174.813+27.7366+174.704+27.9172L171.255+34.3831C171.182+34.4915+171.073+34.5637+170.928+34.5637Z" />
  <path fill="currentColor" d="M174.05+36.2615C173.978+36.2615+173.941+36.2615+173.869+36.2254C173.687+36.117+173.615+35.9003+173.724+35.7196L177.391+29.3982C177.499+29.2176+177.717+29.1453+177.899+29.2537C178.08+29.3621+178.153+29.5788+178.044+29.7594L174.377+36.0809C174.305+36.2254+174.196+36.2615+174.05+36.2615Z" />
  <path fill="currentColor" d="M177.136+38.1037C177.064+38.1037+176.991+38.1037+176.955+38.0315C176.773+37.9231+176.737+37.7064+176.846+37.5258L180.731+31.3127C180.84+31.1321+181.057+31.096+181.239+31.2043C181.42+31.3127+181.457+31.5294+181.348+31.71L177.463+37.9231C177.391+38.0315+177.245+38.1037+177.136+38.1037Z" />
  <path fill="currentColor" d="M180.114+40.0543C180.041+40.0543+179.968+40.0182+179.896+39.982C179.714+39.8737+179.678+39.6208+179.787+39.4763L183.889+33.4078C183.998+33.2271+184.252+33.191+184.398+33.2994C184.579+33.4078+184.615+33.6606+184.506+33.8051L180.44+39.8737C180.368+39.982+180.259+40.0543+180.114+40.0543Z" />
  <path fill="currentColor" d="M183.054+42.0772C182.982+42.0772+182.909+42.0411+182.836+42.005C182.655+41.8966+182.619+41.6437+182.764+41.4992L187.084+35.5752C187.193+35.3945+187.447+35.3584+187.592+35.5029C187.774+35.6113+187.81+35.8641+187.665+36.0086L183.345+41.9327C183.272+42.005+183.163+42.0772+183.054+42.0772Z" />
  <path fill="currentColor" d="M185.922+44.2084C185.85+44.2084+185.777+44.1723+185.705+44.1362C185.559+44.0278+185.523+43.7749+185.632+43.6304L190.17+37.887C190.279+37.7425+190.533+37.7064+190.678+37.8147C190.824+37.9231+190.86+38.1759+190.751+38.3204L186.213+44.0639C186.14+44.1723+186.031+44.2084+185.922+44.2084Z" />
  <path fill="currentColor" d="M188.682+46.448C188.609+46.448+188.5+46.4119+188.428+46.3757C188.282+46.2312+188.246+46.0145+188.391+45.87L193.111+40.271C193.256+40.1265+193.474+40.0904+193.619+40.2349C193.765+40.3794+193.801+40.5961+193.656+40.7406L188.936+46.3396C188.9+46.4119+188.791+46.448+188.682+46.448Z" />
  <path fill="currentColor" d="M191.405+48.7598C191.332+48.7598+191.223+48.7237+191.15+48.6515C191.005+48.507+190.969+48.2902+191.114+48.1458L196.015+42.7274C196.161+42.5829+196.378+42.5468+196.524+42.6913C196.669+42.8357+196.705+43.0525+196.56+43.197L191.659+48.6153C191.586+48.7237+191.514+48.7598+191.405+48.7598Z" />
  <path fill="currentColor" d="M194.019+51.18C193.91+51.18+193.837+51.1439+193.764+51.0717C193.619+50.9272+193.619+50.7104+193.764+50.566L198.884+45.3282C199.029+45.1837+199.247+45.1837+199.392+45.3282C199.537+45.4727+199.537+45.6894+199.392+45.8339L194.273+51.0717C194.2+51.1439+194.128+51.18+194.019+51.18Z" />
  <path fill="currentColor" d="M196.56+53.7086C196.451+53.7086+196.379+53.6725+196.306+53.6002C196.161+53.4558+196.161+53.2029+196.306+53.0945L201.57+48.0013C201.715+47.8568+201.97+47.8568+202.079+48.0013C202.224+48.1457+202.224+48.3986+202.079+48.507L196.814+53.6002C196.742+53.6725+196.633+53.7086+196.56+53.7086Z" />
  <path fill="currentColor" d="M198.993+56.3094C198.884+56.3094+198.775+56.2733+198.702+56.201C198.557+56.0566+198.593+55.8037+198.738+55.6953L204.184+50.8188C204.33+50.6743+204.584+50.7105+204.693+50.8549C204.838+50.9994+204.801+51.2523+204.656+51.3607L199.21+56.2372C199.174+56.2733+199.065+56.3094+198.993+56.3094Z" />
  <path fill="currentColor" d="M201.316+58.9825C201.207+58.9825+201.098+58.9464+201.026+58.838C200.88+58.6935+200.917+58.4407+201.062+58.3323L206.689+53.6364C206.835+53.4919+207.089+53.528+207.198+53.6725C207.343+53.817+207.307+54.0698+207.161+54.1782L201.534+58.8741C201.498+58.9464+201.425+58.9825+201.316+58.9825Z" />
  <path fill="currentColor" d="M203.603+61.7278C203.495+61.7278+203.386+61.6916+203.313+61.5833C203.204+61.4388+203.204+61.1859+203.386+61.0776L209.158+56.5623C209.303+56.4539+209.558+56.4539+209.666+56.6345C209.775+56.779+209.775+57.0319+209.594+57.1402L203.821+61.6555C203.749+61.6916+203.676+61.7278+203.603+61.7278Z" />
  <path fill="currentColor" d="M205.745+64.5814C205.637+64.5814+205.528+64.5453+205.455+64.437C205.346+64.2563+205.382+64.0396+205.528+63.9312L211.482+59.6327C211.663+59.5243+211.881+59.5604+211.99+59.7049C212.099+59.8855+212.063+60.1023+211.917+60.2106L205.963+64.5092C205.891+64.5453+205.818+64.5814+205.745+64.5814Z" />
  <path fill="currentColor" d="M207.779+67.4713C207.67+67.4713+207.524+67.399+207.488+67.2906C207.379+67.11+207.415+66.8933+207.597+66.7849L213.696+62.7031C213.878+62.5947+214.096+62.6309+214.205+62.8115C214.314+62.9921+214.277+63.2088+214.096+63.3172L207.996+67.399C207.924+67.4713+207.851+67.4713+207.779+67.4713Z" />
  <path fill="currentColor" d="M209.739+70.4694C209.63+70.4694+209.485+70.3972+209.412+70.2888C209.303+70.1082+209.34+69.8915+209.521+69.7831L215.766+65.918C215.947+65.8096+216.165+65.8458+216.274+66.0264C216.383+66.207+216.347+66.4237+216.165+66.5321L209.921+70.3972C209.884+70.4333+209.812+70.4694+209.739+70.4694Z" />
  <path fill="currentColor" d="M211.591+73.5038C211.445+73.5038+211.337+73.4315+211.264+73.3231C211.155+73.1425+211.228+72.9258+211.409+72.8174L217.763+69.169C217.944+69.0607+218.162+69.1329+218.271+69.3135C218.38+69.4941+218.307+69.7109+218.126+69.8192L211.772+73.4676C211.7+73.4676+211.663+73.5038+211.591+73.5038Z" />
  <path fill="currentColor" d="M213.333+76.6103C213.188+76.6103+213.079+76.538+213.007+76.4296C212.898+76.249+212.97+76.0323+213.152+75.9239L219.651+72.4923C219.832+72.3839+220.05+72.4562+220.159+72.6368C220.268+72.8174+220.195+73.0341+220.014+73.1425L213.515+76.5741C213.442+76.6102+213.37+76.6103+213.333+76.6103Z" />
  <path fill="currentColor" d="M214.967+79.789C214.822+79.789+214.713+79.7168+214.64+79.5723C214.568+79.3917+214.64+79.1749+214.822+79.0666L221.429+75.8517C221.611+75.7794+221.829+75.8517+221.938+76.0323C222.01+76.2129+221.938+76.4296+221.756+76.538L215.149+79.7529C215.076+79.7529+215.003+79.789+214.967+79.789Z" />
  <path fill="currentColor" d="M216.456+83.0039C216.31+83.0039+216.165+82.9316+216.129+82.7872C216.056+82.6065+216.129+82.3898+216.31+82.3176L223.027+79.3555C223.209+79.2833+223.426+79.3555+223.499+79.5361C223.572+79.7168+223.499+79.9335+223.317+80.0057L216.601+82.9678C216.565+82.9678+216.528+83.0039+216.456+83.0039Z" />
  <path fill="currentColor" d="M217.872+86.255C217.726+86.255+217.581+86.1827+217.545+86.0382C217.472+85.8576+217.545+85.6409+217.763+85.5686L224.588+82.8234C224.77+82.7511+224.988+82.8234+225.06+83.0401C225.133+83.2207+225.06+83.4374+224.842+83.5097L218.017+86.255C217.981+86.255+217.908+86.255+217.872+86.255Z" />
  <path fill="currentColor" d="M219.142+89.5782C218.997+89.5782+218.852+89.4699+218.779+89.3254C218.707+89.1448+218.816+88.928+218.997+88.8558L225.895+86.3633C226.077+86.2911+226.295+86.3995+226.367+86.5801C226.44+86.7607+226.331+86.9774+226.149+87.0497L219.251+89.5421C219.251+89.5782+219.215+89.5782+219.142+89.5782Z" />
  <path fill="currentColor" d="M220.34+92.938C220.195+92.938+220.05+92.829+219.977+92.685C219.905+92.504+220.014+92.287+220.231+92.215L227.202+89.9394C227.384+89.8672+227.602+89.9756+227.674+90.1923C227.747+90.3729+227.638+90.5896+227.42+90.6619L220.449+92.938C220.413+92.938+220.377+92.938+220.34+92.938Z" />
  <path fill="currentColor" d="M221.357+96.333C221.212+96.333+221.03+96.225+220.994+96.08C220.921+95.9+221.067+95.683+221.248+95.611L228.291+93.588C228.473+93.516+228.691+93.66+228.763+93.841C228.836+94.021+228.691+94.238+228.509+94.31L221.466+96.333C221.43+96.333+221.393+96.333+221.357+96.333Z" />
  <path fill="currentColor" d="M222.301+99.765C222.119+99.765+221.974+99.656+221.938+99.476C221.902+99.295+222.01+99.078+222.192+99.042L229.308+97.272C229.489+97.236+229.707+97.345+229.744+97.525C229.78+97.706+229.671+97.923+229.489+97.959L222.374+99.729C222.374+99.765+222.337+99.765+222.301+99.765Z" />
  <path fill="currentColor" d="M223.1+103.233C222.918+103.233+222.773+103.124+222.737+102.944C222.7+102.727+222.809+102.546+223.027+102.51L230.216+100.993C230.433+100.957+230.615+101.065+230.651+101.282C230.688+101.499+230.579+101.679+230.361+101.715L223.172+103.233C223.172+103.233+223.136+103.233+223.1+103.233Z" />
  <path fill="currentColor" d="M223.789+106.736C223.608+106.736+223.463+106.628+223.426+106.447C223.39+106.231+223.535+106.05+223.717+106.014L230.942+104.75C231.16+104.714+231.341+104.858+231.377+105.039C231.414+105.255+231.268+105.436+231.087+105.472L223.862+106.736C223.826+106.736+223.826+106.736+223.789+106.736Z" />
  <path fill="currentColor" d="M224.37+110.24C224.189+110.24+224.044+110.096+224.007+109.915C223.971+109.698+224.116+109.518+224.334+109.482L231.595+108.47C231.777+108.434+231.995+108.579+232.031+108.795C232.067+109.012+231.922+109.193+231.704+109.229L224.443+110.24C224.407+110.24+224.37+110.24+224.37+110.24Z" />
  <path fill="currentColor" d="M224.806+113.744C224.625+113.744+224.443+113.6+224.443+113.419C224.407+113.202+224.552+113.022+224.77+113.022L232.067+112.263C232.249+112.227+232.466+112.371+232.466+112.588C232.503+112.805+232.358+112.986+232.14+112.986L224.842+113.744L224.806+113.744Z" />
  <path fill="currentColor" d="M225.133+117.284C224.951+117.284+224.77+117.14+224.77+116.923C224.77+116.706+224.915+116.526+225.096+116.526L232.43+116.02C232.612+116.02+232.83+116.164+232.83+116.345C232.83+116.562+232.684+116.742+232.503+116.742L225.133+117.284Z" />
  <path fill="currentColor" d="M225.314+120.86C225.133+120.86+224.951+120.716+224.951+120.499C224.951+120.282+225.096+120.138+225.314+120.102L232.648+119.849C232.83+119.849+233.011+119.993+233.047+120.21C233.047+120.427+232.902+120.571+232.684+120.607L225.314+120.86Z" />
  <path fill="currentColor" d="M232.721+124.4L225.387+124.4C225.169+124.4+225.024+124.22+225.024+124.039C225.024+123.858+225.205+123.678+225.387+123.678L232.721+123.678C232.939+123.678+233.084+123.858+233.084+124.039C233.084+124.22+232.939+124.4+232.721+124.4Z" />
  <path fill="currentColor" d="M232.648+128.229L225.278+127.976C225.06+127.976+224.915+127.796+224.915+127.579C224.915+127.362+225.133+127.182+225.314+127.218L232.648+127.471C232.866+127.471+233.011+127.651+233.011+127.868C233.047+128.049+232.866+128.229+232.648+128.229Z" />
  <path fill="currentColor" d="M232.466+132.022L225.133+131.516C224.915+131.516+224.77+131.336+224.806+131.119C224.806+130.902+224.987+130.758+225.205+130.794L232.539+131.3C232.757+131.3+232.902+131.48+232.866+131.697C232.83+131.878+232.648+132.022+232.466+132.022Z" />
  <path fill="currentColor" d="M232.14+135.815L232.103+135.815L224.806+135.056C224.588+135.02+224.443+134.84+224.479+134.659C224.516+134.442+224.697+134.298+224.879+134.334L232.176+135.093C232.394+135.129+232.539+135.309+232.503+135.49C232.503+135.671+232.321+135.815+232.14+135.815Z" />
  <path fill="currentColor" d="M231.668+139.608L231.632+139.608L224.37+138.596C224.152+138.56+224.044+138.38+224.044+138.163C224.08+137.946+224.261+137.838+224.479+137.838L231.74+138.849C231.958+138.885+232.067+139.066+232.067+139.283C232.031+139.463+231.849+139.608+231.668+139.608Z" />
  <path fill="currentColor" d="M231.087+143.365C231.051+143.365+231.051+143.365+231.014+143.365L223.789+142.1C223.572+142.064+223.463+141.884+223.499+141.667C223.535+141.45+223.717+141.342+223.935+141.378L231.16+142.642C231.377+142.678+231.486+142.859+231.45+143.076C231.414+143.22+231.268+143.365+231.087+143.365Z" />
  <path fill="currentColor" d="M230.361+147.085C230.324+147.085+230.324+147.085+230.288+147.085L223.1+145.568C222.882+145.532+222.773+145.315+222.809+145.135C222.845+144.918+223.063+144.81+223.245+144.846L230.433+146.363C230.651+146.399+230.76+146.616+230.724+146.796C230.688+146.977+230.542+147.085+230.361+147.085Z" />
  <path fill="currentColor" d="M229.489+150.806C229.453+150.806+229.417+150.806+229.417+150.806L222.301+149.036C222.119+149+221.974+148.783+222.047+148.602C222.083+148.422+222.301+148.277+222.482+148.35L229.598+150.12C229.78+150.156+229.925+150.372+229.853+150.553C229.816+150.698+229.671+150.806+229.489+150.806Z" />
  <path fill="currentColor" d="M228.509+154.49C228.473+154.49+228.437+154.49+228.4+154.49L221.357+152.467C221.175+152.395+221.03+152.215+221.103+151.998C221.175+151.817+221.357+151.673+221.575+151.745L228.618+153.768C228.8+153.84+228.945+154.021+228.872+154.237C228.836+154.382+228.691+154.49+228.509+154.49Z" />
  <path fill="currentColor" d="M227.42+158.139C227.384+158.139+227.347+158.139+227.311+158.139L220.34+155.863C220.159+155.791+220.05+155.574+220.086+155.393C220.159+155.213+220.377+155.104+220.558+155.14L227.529+157.416C227.71+157.488+227.819+157.705+227.783+157.886C227.71+158.03+227.565+158.139+227.42+158.139Z" />
  <path fill="currentColor" d="M226.149+161.751C226.113+161.751+226.077+161.751+226.04+161.715L219.142+159.222C218.961+159.15+218.852+158.933+218.925+158.753C218.997+158.572+219.215+158.464+219.396+158.536L226.295+161.028C226.476+161.101+226.585+161.317+226.512+161.498C226.476+161.643+226.331+161.751+226.149+161.751Z" />
  <path fill="currentColor" d="M224.806+165.291C224.77+165.291+224.697+165.291+224.661+165.255L217.835+162.509C217.654+162.437+217.545+162.221+217.617+162.04C217.69+161.859+217.908+161.751+218.089+161.823L224.915+164.568C225.096+164.641+225.205+164.857+225.133+165.038C225.096+165.219+224.951+165.291+224.806+165.291Z" />
  <path fill="currentColor" d="M223.317+168.831C223.281+168.831+223.209+168.831+223.172+168.795L216.456+165.833C216.274+165.761+216.201+165.544+216.274+165.363C216.347+165.183+216.565+165.074+216.746+165.183L223.463+168.145C223.644+168.217+223.717+168.434+223.644+168.614C223.572+168.723+223.463+168.831+223.317+168.831Z" />
  <path fill="currentColor" d="M221.684+172.263C221.647+172.263+221.575+172.263+221.538+172.226L214.931+169.012C214.749+168.939+214.677+168.686+214.749+168.506C214.822+168.325+215.076+168.253+215.258+168.325L221.865+171.54C222.047+171.612+222.119+171.865+222.047+172.046C221.974+172.19+221.829+172.263+221.684+172.263Z" />
  <path fill="currentColor" d="M219.941+175.658C219.868+175.658+219.832+175.658+219.759+175.622L213.261+172.19C213.079+172.082+213.007+171.865+213.116+171.685C213.224+171.504+213.442+171.432+213.624+171.54L220.123+174.972C220.304+175.08+220.377+175.297+220.268+175.477C220.231+175.586+220.086+175.658+219.941+175.658Z" />
  <path fill="currentColor" d="M218.089+179.017C218.017+179.017+217.981+179.017+217.908+178.981L211.554+175.333C211.373+175.225+211.3+175.008+211.409+174.827C211.518+174.647+211.736+174.574+211.917+174.683L218.271+178.331C218.452+178.439+218.525+178.656+218.416+178.837C218.344+178.945+218.235+179.017+218.089+179.017Z" />
  <path fill="currentColor" d="M216.129+182.268C216.056+182.268+215.984+182.268+215.947+182.196L209.703+178.331C209.521+178.223+209.485+178.006+209.594+177.825C209.703+177.645+209.921+177.609+210.102+177.717L216.347+181.582C216.528+181.691+216.565+181.907+216.456+182.088C216.383+182.196+216.274+182.268+216.129+182.268Z" />
  <path fill="currentColor" d="M214.059+185.483C213.987+185.483+213.914+185.447+213.842+185.411L207.742+181.329C207.561+181.221+207.524+180.968+207.633+180.824C207.742+180.643+207.996+180.607+208.142+180.715L214.241+184.797C214.422+184.905+214.459+185.158+214.35+185.303C214.277+185.411+214.168+185.483+214.059+185.483Z" />
  <path fill="currentColor" d="M211.881+188.59C211.809+188.59+211.736+188.554+211.663+188.518L205.709+184.219C205.528+184.111+205.491+183.858+205.637+183.713C205.745+183.533+206+183.497+206.145+183.641L212.099+187.94C212.281+188.048+212.317+188.301+212.172+188.445C212.099+188.554+211.99+188.59+211.881+188.59Z" />
  <path fill="currentColor" d="M209.558+191.624C209.485+191.624+209.412+191.588+209.34+191.552L203.567+187.037C203.422+186.928+203.386+186.675+203.494+186.531C203.603+186.386+203.858+186.35+204.003+186.459L209.775+190.974C209.921+191.082+209.957+191.335+209.848+191.48C209.775+191.588+209.666+191.624+209.558+191.624Z" />
  <path fill="currentColor" d="M207.161+194.622C207.089+194.622+206.98+194.586+206.907+194.55L201.28+189.854C201.135+189.71+201.098+189.493+201.243+189.349C201.389+189.204+201.607+189.168+201.752+189.312L207.379+194.008C207.524+194.153+207.561+194.37+207.415+194.514C207.379+194.55+207.27+194.622+207.161+194.622Z" />
  <path fill="currentColor" d="M204.656+197.476C204.584+197.476+204.475+197.44+204.402+197.368L198.956+192.491C198.811+192.347+198.775+192.13+198.92+191.985C199.065+191.841+199.283+191.841+199.428+191.949L204.874+196.826C205.019+196.97+205.056+197.187+204.91+197.332C204.838+197.44+204.765+197.476+204.656+197.476Z" />
  <path fill="currentColor" d="M202.042+200.257C201.933+200.257+201.861+200.221+201.788+200.149L196.487+195.092C196.342+194.947+196.342+194.731+196.487+194.586C196.633+194.442+196.85+194.442+196.996+194.586L202.26+199.68C202.405+199.824+202.405+200.041+202.26+200.185C202.224+200.221+202.151+200.257+202.042+200.257Z" />
  <path fill="currentColor" d="M199.356+202.967C199.247+202.967+199.174+202.931+199.101+202.858L193.982+197.621C193.837+197.476+193.837+197.223+193.982+197.115C194.128+197.006+194.382+196.97+194.491+197.115L199.61+202.389C199.755+202.533+199.755+202.786+199.61+202.894C199.537+202.931+199.428+202.967+199.356+202.967Z" />
  <path fill="currentColor" d="M196.56+205.568C196.451+205.568+196.342+205.531+196.27+205.459L191.368+200.041C191.223+199.896+191.259+199.643+191.405+199.535C191.55+199.391+191.804+199.427+191.913+199.571L196.814+204.99C196.959+205.134+196.923+205.387+196.778+205.495C196.705+205.531+196.633+205.568+196.56+205.568Z" />
  <path fill="currentColor" d="M193.656+208.096C193.547+208.096+193.438+208.06+193.365+207.952L188.645+202.353C188.5+202.208+188.536+201.955+188.682+201.847C188.827+201.702+189.081+201.739+189.19+201.883L193.91+207.482C194.055+207.626+194.019+207.879+193.873+207.988C193.837+208.06+193.728+208.096+193.656+208.096Z" />
  <path fill="currentColor" d="M190.679+210.48C190.57+210.48+190.461+210.444+190.388+210.336L185.886+204.592C185.777+204.448+185.777+204.195+185.959+204.086C186.104+203.978+186.358+203.978+186.467+204.159L191.005+209.902C191.114+210.047+191.114+210.3+190.933+210.408C190.86+210.444+190.751+210.48+190.679+210.48Z" />
  <path fill="currentColor" d="M187.629+212.792C187.52+212.792+187.411+212.756+187.338+212.647L183.018+206.723C182.909+206.543+182.945+206.326+183.091+206.218C183.272+206.109+183.49+206.146+183.599+206.29L187.919+212.214C188.028+212.395+187.992+212.611+187.847+212.72C187.774+212.756+187.701+212.792+187.629+212.792Z" />
  <path fill="currentColor" d="M184.507+214.959C184.398+214.959+184.252+214.887+184.216+214.815L180.077+208.746C179.968+208.566+180.005+208.349+180.186+208.241C180.368+208.132+180.586+208.168+180.694+208.349L184.797+214.417C184.906+214.598+184.87+214.815+184.688+214.923C184.652+214.959+184.579+214.959+184.507+214.959Z" />
  <path fill="currentColor" d="M181.275+217.054C181.166+217.054+181.021+216.982+180.948+216.874L177.064+210.661C176.955+210.48+176.991+210.263+177.173+210.155C177.354+210.047+177.572+210.083+177.681+210.263L181.566+216.476C181.675+216.657+181.638+216.874+181.457+216.982C181.42+217.018+181.348+217.054+181.275+217.054Z" />
  <path fill="currentColor" d="M178.008+219.005C177.862+219.005+177.754+218.933+177.681+218.824L174.014+212.503C173.905+212.322+173.978+212.106+174.159+211.997C174.341+211.889+174.559+211.961+174.668+212.142L178.334+218.463C178.443+218.644+178.371+218.861+178.189+218.969C178.117+219.005+178.08+219.005+178.008+219.005Z" />
  <path fill="currentColor" d="M174.668+220.847C174.522+220.847+174.413+220.775+174.341+220.667L170.892+214.201C170.783+214.02+170.855+213.803+171.037+213.695C171.218+213.587+171.436+213.659+171.545+213.84L174.994+220.305C175.103+220.486+175.031+220.703+174.849+220.811C174.776+220.847+174.704+220.847+174.668+220.847Z" />
  <path fill="currentColor" d="M171.255+222.617C171.11+222.617+171.001+222.545+170.928+222.401L167.697+215.826C167.624+215.646+167.697+215.429+167.878+215.321C168.06+215.212+168.278+215.321+168.387+215.501L171.618+222.075C171.69+222.256+171.618+222.473+171.436+222.581C171.364+222.581+171.291+222.617+171.255+222.617Z" />
  <path fill="currentColor" d="M167.769+224.207C167.624+224.207+167.479+224.134+167.443+223.99L164.466+217.307C164.393+217.127+164.466+216.91+164.647+216.838C164.829+216.765+165.047+216.838+165.119+217.018L168.096+223.701C168.169+223.882+168.096+224.098+167.915+224.171C167.878+224.207+167.842+224.207+167.769+224.207Z" />
  <path fill="currentColor" d="M164.248+225.724C164.103+225.724+163.957+225.652+163.921+225.507L161.162+218.716C161.089+218.535+161.162+218.319+161.38+218.246C161.561+218.174+161.779+218.246+161.852+218.463L164.611+225.254C164.683+225.435+164.611+225.652+164.393+225.724C164.357+225.688+164.32+225.724+164.248+225.724Z" />
  <path fill="currentColor" d="M160.69+227.096C160.545+227.096+160.399+226.988+160.327+226.844L157.822+219.98C157.749+219.8+157.858+219.583+158.04+219.511C158.221+219.439+158.439+219.547+158.511+219.728L161.017+226.591C161.089+226.771+160.98+226.988+160.799+227.06C160.762+227.06+160.726+227.096+160.69+227.096Z" />
  <path fill="currentColor" d="M157.059+228.325C156.914+228.325+156.769+228.216+156.696+228.072L154.409+221.136C154.336+220.956+154.445+220.739+154.663+220.667C154.845+220.594+155.062+220.703+155.135+220.92L157.422+227.855C157.495+228.036+157.386+228.252+157.168+228.325C157.132+228.325+157.096+228.325+157.059+228.325Z" />
  <path fill="currentColor" d="M153.392+229.444C153.247+229.444+153.066+229.336+153.029+229.192L150.996+222.184C150.924+222.003+151.069+221.787+151.25+221.714C151.468+221.642+151.65+221.787+151.722+221.967L153.755+228.975C153.828+229.155+153.683+229.372+153.501+229.444C153.465+229.444+153.429+229.444+153.392+229.444Z" />
  <path fill="currentColor" d="M149.725+230.42C149.544+230.42+149.399+230.311+149.362+230.131L147.583+223.051C147.547+222.87+147.656+222.653+147.838+222.617C148.019+222.581+148.237+222.69+148.273+222.87L150.052+229.95C150.089+230.131+149.98+230.348+149.798+230.384C149.762+230.42+149.725+230.42+149.725+230.42Z" />
  <path fill="currentColor" d="M145.986+231.287C145.804+231.287+145.659+231.178+145.623+230.998L144.098+223.845C144.062+223.629+144.171+223.448+144.388+223.412C144.606+223.376+144.788+223.484+144.824+223.701L146.349+230.853C146.385+231.07+146.276+231.251+146.059+231.287C146.022+231.287+146.022+231.287+145.986+231.287Z" />
  <path fill="currentColor" d="M142.21+232.045C142.029+232.045+141.883+231.937+141.847+231.756L140.576+224.568C140.54+224.351+140.685+224.171+140.867+224.134C141.085+224.098+141.266+224.243+141.303+224.423L142.573+231.612C142.61+231.829+142.464+232.009+142.283+232.045C142.246+232.045+142.246+232.045+142.21+232.045Z" />
  <path fill="currentColor" d="M138.434+232.623C138.253+232.623+138.108+232.479+138.071+232.298L137.055+225.074C137.018+224.857+137.164+224.676+137.381+224.64C137.563+224.604+137.781+224.748+137.817+224.965L138.834+232.19C138.87+232.407+138.725+232.587+138.507+232.623C138.471+232.623+138.471+232.623+138.434+232.623Z" />
  <path fill="currentColor" d="M134.622+233.093C134.441+233.093+134.259+232.948+134.259+232.768L133.497+225.507C133.46+225.29+133.606+225.11+133.823+225.11C134.041+225.074+134.223+225.218+134.223+225.435L134.985+232.695C135.022+232.912+134.876+233.093+134.658+233.093C134.658+233.093+134.658+233.093+134.622+233.093Z" />
  <path fill="currentColor" d="M130.81+233.454C130.629+233.454+130.447+233.31+130.447+233.093L129.939+225.796C129.939+225.579+130.084+225.399+130.265+225.399C130.483+225.363+130.665+225.543+130.665+225.724L131.173+233.021C131.209+233.237+131.064+233.418+130.81+233.454C130.846+233.454+130.846+233.454+130.81+233.454Z" />
  <path fill="currentColor" d="M126.998+233.635C126.816+233.635+126.635+233.49+126.635+233.273L126.381+225.977C126.381+225.76+126.526+225.615+126.744+225.579C126.925+225.579+127.107+225.724+127.143+225.941L127.397+233.237C127.397+233.454+127.216+233.635+126.998+233.635Z" />
  <path fill="currentColor" d="M123.186+233.707C122.968+233.707+122.823+233.526+122.823+233.346L122.823+226.049C122.823+225.832+123.004+225.688+123.186+225.688C123.367+225.688+123.549+225.868+123.549+226.049L123.549+233.346C123.549+233.562+123.367+233.707+123.186+233.707Z" />
  <path fill="currentColor" d="M119.337+233.671C119.12+233.671+118.974+233.49+118.974+233.273L119.228+225.977C119.228+225.76+119.41+225.615+119.628+225.615C119.846+225.615+119.991+225.796+119.991+226.013L119.737+233.31C119.7+233.49+119.555+233.671+119.337+233.671Z" />
  <path fill="currentColor" d="M115.525+233.454C115.525+233.454+115.489+233.454+115.525+233.454C115.307+233.454+115.126+233.273+115.162+233.057L115.671+225.76C115.671+225.543+115.852+225.399+116.07+225.435C116.288+225.435+116.433+225.615+116.397+225.832L115.888+233.129C115.888+233.31+115.707+233.454+115.525+233.454Z" />
  <path fill="currentColor" d="M111.713+233.129L111.677+233.129C111.459+233.093+111.314+232.912+111.35+232.732L112.113+225.471C112.149+225.254+112.33+225.11+112.512+225.146C112.73+225.182+112.875+225.363+112.839+225.543L112.076+232.804C112.04+232.984+111.895+233.129+111.713+233.129Z" />
  <path fill="currentColor" d="M107.901+232.659L107.865+232.659C107.647+232.623+107.538+232.443+107.538+232.226L108.555+225.001C108.591+224.785+108.772+224.676+108.99+224.676C109.208+224.712+109.317+224.893+109.317+225.11L108.3+232.334C108.228+232.551+108.083+232.659+107.901+232.659Z" />
  <path fill="currentColor" d="M104.125+232.081C104.089+232.081+104.089+232.081+104.053+232.081C103.835+232.045+103.726+231.865+103.762+231.648L105.033+224.46C105.069+224.243+105.251+224.134+105.469+224.171C105.686+224.207+105.795+224.387+105.759+224.604L104.488+231.792C104.452+231.973+104.307+232.081+104.125+232.081Z" />
  <path fill="currentColor" d="M100.349+231.359C100.313+231.359+100.313+231.359+100.277+231.359C100.059+231.323+99.9501+231.106+99.9864+230.926L101.511+223.773C101.548+223.556+101.765+223.448+101.947+223.484C102.165+223.52+102.274+223.737+102.237+223.918L100.712+231.07C100.676+231.251+100.531+231.359+100.349+231.359Z" />
  <path fill="currentColor" d="M96.6099+230.528C96.5736+230.528+96.5373+230.528+96.5373+230.528C96.3558+230.492+96.2105+230.275+96.2832+230.095L98.0622+223.015C98.0985+222.834+98.3163+222.69+98.4978+222.762C98.6794+222.798+98.8246+223.015+98.752+223.195L96.973+230.275C96.9367+230.384+96.7914+230.528+96.6099+230.528Z" />
  <path fill="currentColor" d="M92.943+229.517C92.9067+229.517+92.8704+229.517+92.8341+229.517C92.6526+229.444+92.5074+229.264+92.58+229.047L94.6131+222.039C94.6857+221.859+94.8672+221.714+95.0851+221.787C95.2666+221.859+95.4118+222.039+95.3392+222.256L93.3061+229.264C93.2335+229.408+93.0882+229.517+92.943+229.517Z" />
  <path fill="currentColor" d="M89.2761+228.433C89.2398+228.433+89.2035+228.433+89.1672+228.433C88.9857+228.361+88.8768+228.144+88.9131+227.963L91.2004+221.028C91.273+220.847+91.4545+220.739+91.6723+220.775C91.8539+220.847+91.9628+221.064+91.9265+221.245L89.6392+228.18C89.5666+228.325+89.4214+228.433+89.2761+228.433Z" />
  <path fill="currentColor" d="M85.6455+227.169C85.6092+227.169+85.5729+227.169+85.5366+227.133C85.3551+227.06+85.2461+226.844+85.3188+226.663L87.8239+219.8C87.8965+219.619+88.1143+219.511+88.2959+219.583C88.4774+219.655+88.5863+219.872+88.5137+220.053L86.0086+226.916C85.936+227.096+85.7907+227.169+85.6455+227.169Z" />
  <path fill="currentColor" d="M82.0512+225.832C82.0149+225.832+81.9423+225.832+81.906+225.796C81.7245+225.724+81.6156+225.507+81.6882+225.326L84.4474+218.536C84.52+218.355+84.7379+218.247+84.9194+218.319C85.1009+218.391+85.2098+218.608+85.1372+218.788L82.378+225.579C82.3417+225.724+82.1965+225.832+82.0512+225.832Z" />
  <path fill="currentColor" d="M78.5296+224.351C78.4933+224.351+78.4207+224.351+78.3844+224.315C78.2029+224.243+78.1302+224.026+78.2029+223.845L81.1799+217.163C81.2525+216.982+81.4704+216.91+81.6519+216.982C81.8334+217.054+81.906+217.271+81.8334+217.452L78.8564+224.134C78.82+224.243+78.6748+224.351+78.5296+224.351Z" />
  <path fill="currentColor" d="M75.0806+222.726C75.0442+222.726+74.9716+222.726+74.9353+222.69C74.7538+222.617+74.6812+222.364+74.7538+222.184L77.985+215.61C78.0577+215.429+78.3118+215.357+78.4933+215.429C78.6749+215.501+78.7475+215.754+78.6749+215.935L75.4436+222.509C75.3347+222.653+75.1895+222.726+75.0806+222.726Z" />
  <path fill="currentColor" d="M71.6315+221.028C71.5589+221.028+71.5226+221.028+71.45+220.992C71.2684+220.883+71.1958+220.667+71.3047+220.486L74.7538+214.02C74.8627+213.84+75.0806+213.767+75.2621+213.876C75.4436+213.984+75.5162+214.201+75.4073+214.381L71.9583+220.847C71.9219+220.956+71.7767+221.028+71.6315+221.028Z" />
  <path fill="currentColor" d="M68.2914+219.186C68.2188+219.186+68.1825+219.186+68.1099+219.15C67.9283+219.041+67.8557+218.824+67.9646+218.644L71.6315+212.322C71.7404+212.142+71.9583+212.07+72.1398+212.178C72.3213+212.286+72.3939+212.503+72.285+212.684L68.6181+218.969C68.5455+219.113+68.4366+219.186+68.2914+219.186Z" />
  <path fill="currentColor" d="M65.0238+217.199C64.9512+217.199+64.8786+217.199+64.8423+217.127C64.6608+217.018+64.6245+216.802+64.7334+216.621L68.6181+210.408C68.727+210.227+68.9448+210.191+69.1263+210.299C69.3079+210.408+69.3442+210.625+69.2353+210.805L65.3506+217.018C65.2416+217.163+65.1327+217.199+65.0238+217.199Z" />
  <path fill="currentColor" d="M61.7926+215.14C61.72+215.14+61.6474+215.104+61.5748+215.068C61.3933+214.959+61.357+214.706+61.4659+214.562L65.5684+208.493C65.6773+208.313+65.9315+208.277+66.0767+208.385C66.2582+208.493+66.2945+208.746+66.1856+208.891L62.0831+214.959C62.0468+215.068+61.9015+215.14+61.7926+215.14Z" />
  <path fill="currentColor" d="M58.6703+212.973C58.5977+212.973+58.5251+212.936+58.4525+212.9C58.2709+212.792+58.2346+212.539+58.3799+212.395L62.7002+206.471C62.8092+206.29+63.0633+206.254+63.2085+206.398C63.3901+206.507+63.4264+206.76+63.2811+206.904L58.9607+212.792C58.8881+212.9+58.7792+212.973+58.6703+212.973Z" />
  <path fill="currentColor" d="M55.5843+210.661C55.5117+210.661+55.4391+210.625+55.3664+210.589C55.2212+210.48+55.1849+210.227+55.2938+210.083L59.8321+204.339C59.941+204.195+60.1951+204.159+60.3404+204.267C60.4856+204.375+60.5219+204.628+60.413+204.773L55.8747+210.516C55.8021+210.625+55.6932+210.661+55.5843+210.661Z" />
  <path fill="currentColor" d="M52.6072+208.277C52.5346+208.277+52.4257+208.241+52.3531+208.204C52.2078+208.06+52.1715+207.843+52.3168+207.699L57.0365+202.1C57.1818+201.955+57.3996+201.919+57.5448+202.064C57.69+202.208+57.7263+202.425+57.5811+202.569L52.8614+208.168C52.8251+208.241+52.7161+208.277+52.6072+208.277Z" />
  <path fill="currentColor" d="M49.739+205.784C49.6664+205.784+49.5575+205.748+49.4849+205.676C49.3397+205.531+49.3033+205.315+49.4486+205.17L54.3499+199.752C54.4951+199.607+54.7129+199.571+54.8582+199.716C55.0034+199.86+55.0397+200.077+54.8945+200.221L49.9932+205.64C49.9205+205.748+49.8116+205.784+49.739+205.784Z" />
  <path fill="currentColor" d="M46.9072+203.183C46.7982+203.183+46.7256+203.147+46.653+203.075C46.5078+202.931+46.5078+202.714+46.653+202.569L51.7359+197.332C51.8811+197.187+52.0989+197.187+52.2441+197.332C52.3894+197.476+52.3894+197.693+52.2441+197.837L47.1613+203.075C47.125+203.147+47.0161+203.183+46.9072+203.183Z" />
  <path fill="currentColor" d="M44.2206+200.51C44.1116+200.51+44.039+200.474+43.9664+200.402C43.8212+200.258+43.8212+200.005+43.9664+199.896L49.2308+194.839C49.376+194.695+49.6301+194.695+49.7391+194.839C49.8843+194.984+49.8843+195.236+49.7391+195.345L44.4747+200.402C44.4021+200.474+44.2932+200.51+44.2206+200.51Z" />
  <path fill="currentColor" d="M41.6065+197.729C41.4976+197.729+41.3887+197.693+41.3161+197.621C41.1709+197.476+41.2072+197.223+41.3524+197.115L46.7983+192.238C46.9435+192.094+47.1976+192.13+47.3065+192.274C47.4518+192.419+47.4155+192.672+47.2702+192.78L41.8244+197.657C41.7517+197.693+41.6791+197.729+41.6065+197.729Z" />
  <path fill="currentColor" d="M39.0651+194.839C38.9562+194.839+38.8473+194.803+38.7746+194.695C38.6294+194.55+38.6657+194.297+38.8109+194.189L44.4384+189.493C44.5836+189.349+44.8377+189.385+44.9466+189.529C45.0919+189.674+45.0556+189.926+44.9103+190.035L39.2829+194.731C39.2466+194.803+39.174+194.839+39.0651+194.839Z" />
  <path fill="currentColor" d="M36.6689+191.877C36.56+191.877+36.4511+191.841+36.3785+191.733C36.2696+191.588+36.2696+191.335+36.4511+191.227L42.2237+186.712C42.369+186.603+42.6231+186.603+42.732+186.784C42.8409+186.928+42.8409+187.181+42.6594+187.29L36.8868+191.805C36.8141+191.877+36.7415+191.877+36.6689+191.877Z" />
  <path fill="currentColor" d="M34.3454+188.843C34.2364+188.843+34.1275+188.807+34.0549+188.698C33.946+188.518+33.9823+188.301+34.1275+188.193L40.0817+183.894C40.2632+183.786+40.4811+183.822+40.59+183.966C40.6989+184.147+40.6626+184.364+40.5174+184.472L34.5632+188.77C34.4906+188.807+34.418+188.843+34.3454+188.843Z" />
  <path fill="currentColor" d="M32.167+185.736C32.0581+185.736+31.9128+185.664+31.8765+185.592C31.7676+185.411+31.8039+185.194+31.9855+185.086L38.0848+181.004C38.2664+180.896+38.4842+180.932+38.5931+181.113C38.702+181.293+38.6657+181.51+38.4842+181.618L32.3848+185.7C32.3122+185.7+32.2396+185.736+32.167+185.736Z" />
  <path fill="currentColor" d="M30.0612+182.521C29.9523+182.521+29.8071+182.449+29.7345+182.341C29.6256+182.16+29.6619+181.943+29.8434+181.835L36.088+177.97C36.2696+177.862+36.4874+177.898+36.5963+178.078C36.7052+178.259+36.6689+178.476+36.4874+178.584L30.2428+182.449C30.2065+182.521+30.1339+182.521+30.0612+182.521Z" />
  <path fill="currentColor" d="M28.1007+179.27C27.9555+179.27+27.8466+179.198+27.774+179.09C27.6651+178.909+27.7377+178.692+27.9192+178.584L34.2727+174.936C34.4543+174.827+34.6721+174.9+34.781+175.08C34.8899+175.261+34.8173+175.477+34.6358+175.586L28.2823+179.234C28.2096+179.27+28.137+179.27+28.1007+179.27Z" />
  <path fill="currentColor" d="M26.2128+175.947C26.0676+175.947+25.9587+175.875+25.8861+175.766C25.7772+175.586+25.8498+175.369+26.0313+175.261L32.5301+171.829C32.7116+171.721+32.9294+171.793+33.0384+171.974C33.1473+172.154+33.0747+172.371+32.8931+172.479L26.3944+175.911C26.3581+175.947+26.2855+175.947+26.2128+175.947Z" />
  <path fill="currentColor" d="M24.4701+172.552C24.3249+172.552+24.216+172.479+24.1434+172.335C24.0708+172.154+24.1434+171.937+24.3249+171.829L30.9326+168.614C31.1141+168.506+31.3319+168.614+31.4409+168.795C31.5135+168.975+31.4409+169.192+31.2593+169.301L24.6517+172.515C24.5791+172.552+24.5428+172.552+24.4701+172.552Z" />
  <path fill="currentColor" d="M22.8727+169.084C22.7275+169.084+22.5823+169.012+22.5459+168.867C22.4733+168.686+22.5459+168.47+22.7275+168.397L29.4441+165.435C29.6256+165.363+29.8434+165.435+29.916+165.616C29.9886+165.797+29.916+166.013+29.7345+166.086L23.0179+169.084C22.9453+169.084+22.909+169.084+22.8727+169.084Z" />
  <path fill="currentColor" d="M21.3478+165.58C21.2026+165.58+21.0574+165.508+21.0211+165.363C20.9485+165.183+21.0211+164.966+21.2389+164.894L28.0644+162.148C28.246+162.076+28.4638+162.148+28.5364+162.365C28.609+162.546+28.5364+162.762+28.3186+162.835L21.4931+165.58C21.4568+165.58+21.3841+165.58+21.3478+165.58Z" />
  <path fill="currentColor" d="M19.9682+162.04C19.823+162.04+19.6778+161.932+19.6052+161.787C19.5326+161.606+19.6415+161.39+19.823+161.317L26.7211+158.825C26.9027+158.753+27.1205+158.861+27.1931+159.042C27.2657+159.222+27.1568+159.439+26.9753+159.511L20.0771+162.004C20.0771+162.04+20.0045+162.04+19.9682+162.04Z" />
  <path fill="currentColor" d="M18.7338+158.428C18.5886+158.428+18.4434+158.319+18.3708+158.175C18.2981+157.994+18.4071+157.777+18.6249+157.705L25.5956+155.43C25.7772+155.357+25.995+155.466+26.0676+155.682C26.1402+155.863+26.0313+156.08+25.8135+156.152L18.8427+158.428C18.8064+158.428+18.7701+158.428+18.7338+158.428Z" />
  <path fill="currentColor" d="M17.6084+154.815C17.4631+154.815+17.2816+154.707+17.2453+154.563C17.1727+154.382+17.3179+154.165+17.4994+154.093L24.5428+152.07C24.7243+151.998+24.9422+152.142+25.0148+152.323C25.0874+152.504+24.9421+152.72+24.7606+152.793L17.7173+154.815C17.681+154.779+17.6447+154.815+17.6084+154.815Z" />
  <path fill="currentColor" d="M16.5918+151.131C16.4103+151.131+16.265+151.023+16.2287+150.842C16.1924+150.661+16.3013+150.445+16.4829+150.408L23.5988+148.638C23.7803+148.602+23.9982+148.711+24.0345+148.891C24.0708+149.072+23.9619+149.289+23.7803+149.325L16.7007+151.095C16.6644+151.131+16.6281+151.131+16.5918+151.131Z" />
  <path fill="currentColor" d="M15.7204+147.41C15.5389+147.41+15.3937+147.302+15.3574+147.121C15.3211+146.905+15.43+146.724+15.6478+146.688L22.8364+145.171C23.0542+145.135+23.2358+145.243+23.2721+145.46C23.3084+145.676+23.1995+145.857+22.9816+145.893L15.8294+147.41C15.7931+147.41+15.7568+147.41+15.7204+147.41Z" />
  <path fill="currentColor" d="M14.9943+143.654C14.8128+143.654+14.6676+143.545+14.6313+143.365C14.595+143.148+14.7402+142.967+14.9217+142.931L22.1466+141.667C22.3281+141.631+22.5459+141.775+22.5823+141.956C22.6186+142.173+22.4733+142.353+22.2918+142.389L15.0669+143.654C15.0306+143.654+15.0306+143.654+14.9943+143.654Z" />
  <path fill="currentColor" d="M14.4134+139.897C14.2319+139.897+14.0867+139.752+14.0503+139.572C14.014+139.355+14.1593+139.174+14.3771+139.138L21.6383+138.127C21.8561+138.091+22.0376+138.235+22.0739+138.452C22.1103+138.669+21.965+138.849+21.7472+138.885L14.486+139.897C14.4134+139.897+14.4134+139.897+14.4134+139.897Z" />
  <path fill="currentColor" d="M13.9414+136.14C13.7599+136.14+13.5784+135.996+13.5784+135.815C13.5421+135.598+13.6873+135.418+13.9051+135.418L21.2026+134.659C21.3841+134.623+21.602+134.767+21.602+134.984C21.6383+135.201+21.4931+135.382+21.2752+135.382L13.9777+136.14C13.9414+136.14+13.9414+136.14+13.9414+136.14Z" />
  <path fill="currentColor" d="M13.5784+132.347C13.3969+132.347+13.2153+132.203+13.2153+131.986C13.2153+131.769+13.3606+131.589+13.5421+131.589L20.8759+131.083C21.0574+131.083+21.2752+131.227+21.2752+131.408C21.2752+131.625+21.13+131.805+20.9485+131.805L13.5784+132.347C13.6147+132.347+13.5784+132.347+13.5784+132.347Z" />
  <path fill="currentColor" d="M13.3606+128.518C13.179+128.518+12.9975+128.374+12.9975+128.157C12.9975+127.94+13.1427+127.796+13.3606+127.76L20.6943+127.543C20.8759+127.543+21.0574+127.687+21.0937+127.904C21.0937+128.121+20.9485+128.265+20.7306+128.302L13.3606+128.518C13.3969+128.518+13.3969+128.518+13.3606+128.518Z" />
  <path fill="currentColor" d="M20.658+124.725L13.3242+124.725C13.1064+124.725+12.9612+124.545+12.9612+124.364C12.9612+124.147+13.1427+124.003+13.3242+124.003L20.658+124.003C20.8759+124.003+21.0211+124.184+21.0211+124.364C21.0211+124.545+20.8396+124.725+20.658+124.725Z" />
  <path fill="currentColor" d="M20.6943+121.149L13.3242+120.896C13.1064+120.896+12.9612+120.716+12.9612+120.499C12.9612+120.282+13.179+120.138+13.3606+120.138L20.6943+120.391C20.9122+120.391+21.0574+120.571+21.0574+120.788C21.0574+121.005+20.9122+121.149+20.6943+121.149Z" />
  <path fill="currentColor" d="M20.8759+117.609L13.5421+117.104C13.3242+117.104+13.179+116.923+13.2153+116.706C13.2153+116.489+13.3969+116.345+13.6147+116.381L20.9485+116.887C21.1663+116.887+21.3115+117.067+21.2752+117.284C21.2389+117.465+21.0937+117.609+20.8759+117.609Z" />
  <path fill="currentColor" d="M21.2026+114.069L21.1663+114.069L13.8688+113.311C13.651+113.275+13.5058+113.094+13.5421+112.913C13.5784+112.697+13.7599+112.552+13.9414+112.588L21.2389+113.347C21.4568+113.383+21.602+113.564+21.5657+113.744C21.5294+113.925+21.3842+114.069+21.2026+114.069Z" />
  <path fill="currentColor" d="M21.6383+110.529L21.602+110.529L14.3408+109.518C14.123+109.482+14.0141+109.301+14.0141+109.084C14.0504+108.868+14.2319+108.759+14.4497+108.759L21.7109+109.771C21.9287+109.807+22.0377+109.987+22.0377+110.204C21.9651+110.421+21.8198+110.529+21.6383+110.529Z" />
  <path fill="currentColor" d="M22.1829+107.025C22.1466+107.025+22.1466+107.025+22.1103+107.025L14.8854+105.761C14.6676+105.725+14.5587+105.544+14.595+105.328C14.6313+105.111+14.8128+105.003+15.0306+105.039L22.2555+106.303C22.4733+106.339+22.5823+106.52+22.546+106.736C22.5097+106.917+22.3644+107.025+22.1829+107.025Z" />
  <path fill="currentColor" d="M22.8727+103.521C22.8364+103.521+22.8364+103.521+22.8001+103.521L15.6115+102.004C15.3937+101.968+15.2848+101.752+15.3211+101.571C15.3574+101.354+15.5752+101.246+15.7567+101.282L22.9453+102.799C23.1631+102.835+23.272+103.052+23.2357+103.233C23.1631+103.413+23.0179+103.521+22.8727+103.521Z" />
  <path fill="currentColor" d="M23.6714+100.09C23.6351+100.09+23.5988+100.09+23.5988+100.09L16.4466+98.284C16.265+98.248+16.1198+98.031+16.1924+97.85C16.2287+97.67+16.4466+97.525+16.6281+97.597L23.744+99.367C23.9256+99.404+24.0708+99.62+23.9982+99.801C23.9619+99.945+23.8166+100.09+23.6714+100.09Z" />
  <path fill="currentColor" d="M24.5791+96.622C24.5428+96.622+24.5065+96.622+24.4702+96.622L17.4268+94.599C17.2453+94.527+17.1001+94.346+17.1727+94.13C17.2453+93.949+17.4268+93.805+17.6447+93.877L24.688+95.9C24.8695+95.972+25.0147+96.152+24.9421+96.369C24.8695+96.514+24.7243+96.622+24.5791+96.622Z" />
  <path fill="currentColor" d="M25.5957+93.227C25.5594+93.227+25.523+93.227+25.4867+93.227L18.516+90.9509C18.3345+90.8786+18.2256+90.6619+18.2619+90.4813C18.3345+90.3007+18.5523+90.1923+18.7338+90.2284L25.7046+92.504C25.8861+92.576+25.995+92.793+25.9587+92.974C25.9224+93.154+25.7772+93.227+25.5957+93.227Z" />
  <path fill="currentColor" d="M26.7574+89.8672C26.7211+89.8672+26.6848+89.8672+26.6485+89.8311L19.7504+87.3386C19.5689+87.2664+19.4599+87.0496+19.5325+86.869C19.6052+86.6884+19.823+86.5801+20.0045+86.6523L26.9026+89.1447C27.0842+89.217+27.1931+89.4337+27.1205+89.6143C27.0479+89.7949+26.9389+89.8672+26.7574+89.8672Z" />
  <path fill="currentColor" d="M28.0282+86.5439C27.9919+86.5439+27.9192+86.5439+27.8829+86.5078L21.0574+83.7625C20.8759+83.6902+20.767+83.4735+20.8396+83.2929C20.9122+83.1123+21.13+83.0039+21.3116+83.0762L28.1371+85.8214C28.3186+85.8937+28.4275+86.1104+28.3549+86.291C28.3186+86.4716+28.2097+86.5439+28.0282+86.5439Z" />
  <path fill="currentColor" d="M29.4441+83.2929C29.4077+83.2929+29.3351+83.2929+29.2988+83.2568L22.5822+80.2947C22.4007+80.2225+22.3281+80.0058+22.4007+79.8251C22.4733+79.6445+22.6912+79.5723+22.8727+79.6445L29.5893+82.6066C29.7708+82.6788+29.8434+82.8956+29.7708+83.0762C29.6982+83.1845+29.5893+83.2929+29.4441+83.2929Z" />
  <path fill="currentColor" d="M30.9326+80.0419C30.8963+80.0419+30.8237+80.0419+30.7874+80.0058L24.1797+76.7909C23.9982+76.7186+23.9256+76.4658+23.9982+76.2851C24.0708+76.1045+24.3249+76.0323+24.5065+76.1045L31.1141+79.3195C31.2957+79.3917+31.3683+79.6446+31.2957+79.8252C31.2231+79.9697+31.0778+80.0419+30.9326+80.0419Z" />
  <path fill="currentColor" d="M32.5664+76.8993C32.4937+76.8993+32.4574+76.8993+32.3848+76.8631L25.8861+73.4315C25.7046+73.3231+25.6319+73.1064+25.7409+72.9258C25.8498+72.7451+26.0676+72.6729+26.2491+72.7813L32.7479+76.2129C32.9294+76.3213+33.002+76.538+32.8931+76.7187C32.8205+76.827+32.6753+76.8993+32.5664+76.8993Z" />
  <path fill="currentColor" d="M34.2727+73.7566C34.2001+73.7566+34.1638+73.7566+34.0912+73.7205L27.7377+70.0721C27.5561+69.9637+27.4835+69.747+27.5924+69.5664C27.7014+69.3858+27.9192+69.3135+28.1007+69.4219L34.4543+73.0702C34.6358+73.1786+34.7084+73.3954+34.5995+73.576C34.5269+73.7205+34.4179+73.7566+34.2727+73.7566Z" />
  <path fill="currentColor" d="M36.1244+70.7223C36.0517+70.7223+35.9791+70.7223+35.9428+70.65L29.6982+66.7849C29.5167+66.6766+29.4804+66.4598+29.5893+66.2792C29.6982+66.0986+29.916+66.0625+30.0976+66.1709L36.3422+70.036C36.5237+70.1443+36.56+70.3611+36.4511+70.5417C36.3785+70.65+36.2333+70.7223+36.1244+70.7223Z" />
  <path fill="currentColor" d="M38.0486+67.7241C37.976+67.7241+37.9033+67.688+37.8307+67.6519L31.7313+63.57C31.5498+63.4617+31.5135+63.2088+31.6224+63.0643C31.7313+62.8837+31.9855+62.8476+32.1307+62.9559L38.2301+67.0378C38.4116+67.1462+38.4479+67.399+38.339+67.5435C38.3027+67.688+38.1938+67.7241+38.0486+67.7241Z" />
  <path fill="currentColor" d="M40.118+64.8343C40.0454+64.8343+39.9728+64.7982+39.9001+64.7621L33.946+60.4635C33.7645+60.3551+33.7281+60.1023+33.8734+59.9578C33.9823+59.7772+34.2364+59.7411+34.3816+59.8855L40.3358+64.1841C40.5173+64.2925+40.5536+64.5453+40.4084+64.6898C40.3358+64.7621+40.2269+64.8343+40.118+64.8343Z" />
  <path fill="currentColor" d="M42.26+61.9806C42.1874+61.9806+42.1148+61.9445+42.0422+61.9084L36.2696+57.3931C36.1243+57.2847+36.088+57.0318+36.1969+56.8874C36.3059+56.7429+36.56+56.7067+36.7052+56.8151L42.4779+61.3304C42.6231+61.4388+42.6594+61.6917+42.5505+61.8361C42.4779+61.9445+42.369+61.9806+42.26+61.9806Z" />
  <path fill="currentColor" d="M44.511+59.1992C44.4384+59.1992+44.3295+59.1631+44.2568+59.127L38.6294+54.4311C38.4842+54.2866+38.4479+54.0698+38.5931+53.9253C38.7384+53.7809+38.9562+53.7447+39.1014+53.8892L44.7288+58.5851C44.874+58.7296+44.9104+58.9464+44.7651+59.0909C44.6925+59.1631+44.6199+59.1992+44.511+59.1992Z" />
  <path fill="currentColor" d="M46.8346+56.5262C46.762+56.5262+46.6531+56.4901+46.5804+56.4178L41.1346+51.5413C40.9893+51.3968+40.953+51.18+41.0983+51.0355C41.2435+50.8911+41.4613+50.8549+41.6065+50.9994L47.0524+55.876C47.1976+56.0205+47.234+56.2372+47.0887+56.3817C47.0524+56.49+46.9435+56.5262+46.8346+56.5262Z" />
  <path fill="currentColor" d="M49.267+53.9253C49.1581+53.9253+49.0855+53.8892+49.0129+53.817L43.7486+48.7237C43.6033+48.5792+43.6033+48.3625+43.7486+48.218C43.8938+48.0735+44.1116+48.0735+44.2568+48.218L49.5212+53.3113C49.6664+53.4557+49.6664+53.6725+49.5212+53.817C49.4486+53.8892+49.376+53.9253+49.267+53.9253Z" />
  <path fill="currentColor" d="M51.8085+51.3967C51.6996+51.3967+51.6269+51.3606+51.5543+51.2884L46.4352+46.0506C46.29+45.9061+46.29+45.6533+46.4352+45.5449C46.5804+45.4004+46.8346+45.4004+46.9435+45.5449L52.0626+50.7827C52.2078+50.9272+52.2078+51.18+52.0626+51.2884C51.99+51.3606+51.8811+51.3967+51.8085+51.3967Z" />
  <path fill="currentColor" d="M54.3862+48.9765C54.2773+48.9765+54.1684+48.9404+54.0958+48.8682L49.1945+43.4498C49.0493+43.3053+49.0856+43.0525+49.2308+42.9441C49.376+42.7996+49.6301+42.8357+49.7391+42.9802L54.6404+48.3986C54.7856+48.5431+54.7493+48.7959+54.604+48.9043C54.5677+48.9404+54.4951+48.9765+54.3862+48.9765Z" />
  <path fill="currentColor" d="M57.1092+46.6286C57.0002+46.6286+56.8913+46.5925+56.8187+46.4841L52.0989+40.8851C51.9537+40.7407+51.99+40.4878+52.1352+40.3794C52.2805+40.2349+52.5346+40.2711+52.6435+40.4156L57.3633+46.0145C57.5085+46.159+57.4722+46.4119+57.327+46.5202C57.2544+46.6286+57.1818+46.6286+57.1092+46.6286Z" />
  <path fill="currentColor" d="M59.8684+44.389C59.7595+44.389+59.6505+44.3529+59.5779+44.2445L55.0397+38.501C54.9308+38.3565+54.9308+38.1037+55.1123+37.9953C55.2575+37.8869+55.5117+37.8869+55.6206+38.0676L60.1588+43.811C60.2677+43.9555+60.2677+44.2084+60.0862+44.3168C60.0136+44.389+59.941+44.389+59.8684+44.389Z" />
  <path fill="currentColor" d="M62.7366+42.2578C62.6277+42.2578+62.5187+42.2217+62.4461+42.1133L58.0894+36.1892C57.9805+36.0086+58.0168+35.7919+58.162+35.6835C58.3435+35.5751+58.5614+35.6112+58.6703+35.7557L62.9907+41.6798C63.0996+41.8604+63.0633+42.0772+62.9181+42.1855C62.8818+42.2217+62.8092+42.2578+62.7366+42.2578Z" />
  <path fill="currentColor" d="M65.641+40.1988C65.5321+40.1988+65.3869+40.1266+65.3506+40.0182L61.2117+33.9857C61.1028+33.8051+61.1391+33.5884+61.3206+33.48C61.5022+33.3717+61.72+33.4078+61.8289+33.5884L65.9314+39.657C66.0404+39.8376+66.0041+40.0543+65.8225+40.1627C65.7862+40.1988+65.7136+40.1988+65.641+40.1988Z" />
  <path fill="currentColor" d="M68.6544+38.2843C68.5455+38.2843+68.4003+38.2121+68.3276+38.1037L64.4429+31.8906C64.334+31.71+64.3703+31.4933+64.5518+31.3849C64.7334+31.2766+64.9512+31.3127+65.0601+31.4933L68.9448+37.7063C69.0538+37.887+69.0175+38.1037+68.8359+38.2121C68.7633+38.2482+68.6907+38.2843+68.6544+38.2843Z" />
  <path fill="currentColor" d="M71.7041+36.4421C71.5589+36.4421+71.45+36.3698+71.3773+36.2615L67.7105+29.94C67.6015+29.7594+67.6741+29.5427+67.8557+29.4343C68.0372+29.3259+68.255+29.3982+68.364+29.5788L72.0308+35.9002C72.1398+36.0808+72.0672+36.2976+71.8856+36.4059C71.813+36.4059+71.7767+36.4421+71.7041+36.4421Z" />
  <path fill="currentColor" d="M74.8264+34.7082C74.6812+34.7082+74.5723+34.6359+74.4996+34.5276L71.0506+28.0616C70.9417+27.881+71.0143+27.6643+71.1958+27.5559C71.3773+27.4476+71.5952+27.5198+71.7041+27.7004L75.1532+34.1663C75.2621+34.347+75.1895+34.5637+75.0079+34.6721C74.9353+34.7082+74.8627+34.7082+74.8264+34.7082Z" />
  <path fill="currentColor" d="M77.985+33.0827C77.8398+33.0827+77.7309+33.0104+77.6583+32.8659L74.427+26.2916C74.3544+26.111+74.427+25.8943+74.6085+25.7859C74.7901+25.7137+75.0079+25.7859+75.1168+25.9665L78.3481+32.5408C78.4207+32.7214+78.3481+32.9382+78.1665+33.0466C78.0939+33.0827+78.0576+33.0827+77.985+33.0827Z" />
  <path fill="currentColor" d="M81.2526+31.5655C81.1073+31.5655+80.9621+31.4933+80.9258+31.3488L77.9487+24.6661C77.8761+24.4855+77.9487+24.2688+78.1302+24.1965C78.3118+24.1243+78.5296+24.1965+78.6022+24.3772L81.5793+31.0598C81.6519+31.2404+81.5793+31.4572+81.3978+31.5294C81.3252+31.5655+81.2889+31.5655+81.2526+31.5655Z" />
  <path fill="currentColor" d="M84.5201+30.1928C84.3748+30.1928+84.2296+30.1206+84.1933+29.9761L81.4341+23.1851C81.3614+23.0045+81.4341+22.7878+81.6519+22.7155C81.8334+22.6433+82.0513+22.7155+82.1239+22.9322L84.8831+29.7233C84.9557+29.9039+84.8831+30.1206+84.6653+30.1928C84.629+30.1928+84.5564+30.1928+84.5201+30.1928Z" />
  <path fill="currentColor" d="M87.8602+28.8924C87.715+28.8924+87.5698+28.7841+87.4971+28.6396L84.9921+21.7763C84.9194+21.5957+85.0284+21.379+85.2099+21.3067C85.3914+21.2345+85.6092+21.3428+85.6819+21.5235L88.187+28.3867C88.2596+28.5673+88.1507+28.7841+87.9691+28.8563C87.9328+28.8924+87.8965+28.8924+87.8602+28.8924Z" />
  <path fill="currentColor" d="M91.2367+27.7365C91.0914+27.7365+90.9462+27.6282+90.8736+27.4837L88.5863+20.5482C88.5137+20.3676+88.6226+20.1508+88.8405+20.0786C89.022+20.0063+89.2398+20.1147+89.3124+20.3315L91.5997+27.267C91.6723+27.4476+91.5634+27.6643+91.3456+27.7365C91.3093+27.7365+91.273+27.7365+91.2367+27.7365Z" />
  <path fill="currentColor" d="M94.6494+26.689C94.5042+26.689+94.3227+26.5806+94.2864+26.4361L92.2532+19.4283C92.1806+19.2477+92.3259+19.031+92.5074+18.9588C92.6889+18.8865+92.9067+19.031+92.9794+19.2116L95.0125+26.2194C95.0851+26.4+94.9399+26.6167+94.7583+26.689C94.722+26.689+94.6857+26.689+94.6494+26.689Z" />
  <path fill="currentColor" d="M98.0984+25.7859C97.9169+25.7859+97.7717+25.6776+97.7354+25.497L95.9564+18.417C95.9201+18.2363+96.029+18.0196+96.2105+17.9835C96.3921+17.9474+96.6099+18.0557+96.6462+18.2363L98.4252+25.3163C98.4615+25.497+98.3526+25.7137+98.171+25.7498C98.171+25.7859+98.1347+25.7859+98.0984+25.7859Z" />
  <path fill="currentColor" d="M101.584+24.9551C101.402+24.9551+101.257+24.8468+101.221+24.6662L99.6959+17.5139C99.6596+17.2972+99.7685+17.1165+99.9864+17.0804C100.204+17.0443+100.386+17.1527+100.422+17.3694L101.947+24.5217C101.983+24.7384+101.874+24.919+101.656+24.9551C101.62+24.9551+101.62+24.9551+101.584+24.9551Z" />
  <path fill="currentColor" d="M105.069+24.2688C104.888+24.2688+104.742+24.1604+104.706+23.9798L103.435+16.7914C103.399+16.5747+103.544+16.3941+103.726+16.358C103.944+16.3218+104.125+16.4663+104.162+16.6469L105.432+23.8353C105.469+24.052+105.323+24.2326+105.142+24.2688C105.142+24.2688+105.106+24.2688+105.069+24.2688Z" />
  <path fill="currentColor" d="M108.627+23.7269C108.446+23.7269+108.3+23.5824+108.264+23.4018L107.248+16.1773C107.211+15.9606+107.356+15.78+107.574+15.7439C107.792+15.7078+107.974+15.8522+108.01+16.069L109.027+23.2935C109.063+23.5102+108.918+23.6908+108.7+23.7269C108.663+23.7269+108.627+23.7269+108.627+23.7269Z" />
  <path fill="currentColor" d="M112.149+23.2935C111.967+23.2935+111.786+23.149+111.786+22.9684L111.023+15.7077C110.987+15.491+111.132+15.3104+111.35+15.3104C111.532+15.2743+111.749+15.4188+111.749+15.6355L112.512+22.8961C112.548+23.1129+112.403+23.2935+112.185+23.2935C112.185+23.2935+112.185+23.2935+112.149+23.2935Z" />
  <path fill="currentColor" d="M115.707+22.9684C115.525+22.9684+115.344+22.8239+115.344+22.6072L114.835+15.3104C114.835+15.0937+114.981+14.9131+115.162+14.9131C115.38+14.9131+115.562+15.0576+115.562+15.2382L116.07+22.5349C116.106+22.7878+115.961+22.9684+115.707+22.9684C115.743+22.9684+115.743+22.9684+115.707+22.9684Z" />
  <path fill="currentColor" d="M119.301+22.7877C119.12+22.7877+118.938+22.6433+118.938+22.4265L118.684+15.1298C118.684+14.9131+118.829+14.7686+119.047+14.7324C119.228+14.6963+119.41+14.8769+119.446+15.0937L119.7+22.3904C119.664+22.6071+119.519+22.7877+119.301+22.7877Z" />
  <path fill="currentColor" d="M123.367+56.2733L123.73+186.314L123.367+56.2733Z" />
  <path fill="currentColor" d="M123.731+56.2729L123.005+56.2749L123.366+186.316L124.092+186.314L123.731+56.2729Z" />
  <path fill="currentColor" d="M188.9+121.836L58.1983+122.197L188.9+121.836Z" />
  <path fill="currentColor" d="M188.899+121.467L58.1978+121.844L58.1999+122.567L188.901+122.189L188.899+121.467Z" />
</svg>
