<svg viewBox="0 0 15 22" fill="none" xmlns="http://www.w3.org/2000/svg">
  <path fill="currentColor" stroke="currentColor" d="M7.09221 1.24047L7.09196 1.24031L7.08768 1.24779C7.01577 1.37363 6.85625 1.62966 6.63234 1.98902C6.43102 2.31212 6.17766 2.71875 5.88913 3.1894C5.2819 4.17992 4.52349 5.44678 3.7821 6.79163C3.04092 8.13609 2.31558 9.56059 1.77521 10.8661C1.23662 12.1674 0.875 13.366 0.875 14.253C0.875 18.0398 3.96022 21.125 7.74699 21.125C11.5338 21.125 14.619 18.0398 14.619 14.253C14.619 13.366 14.2574 12.1674 13.7188 10.8661C13.1784 9.56059 12.4531 8.13609 11.7119 6.79163C10.9705 5.44678 10.2121 4.17992 9.60485 3.1894C9.31632 2.71875 9.06295 2.31212 8.86164 1.98902C8.64348 1.63889 8.48644 1.38685 8.41201 1.25775C8.31648 0.991778 8.05148 0.875 7.79862 0.875C7.5401 0.875 7.25673 0.993695 7.09221 1.24047ZM4.45033 8.92272C5.50994 6.85317 6.79363 4.70267 7.74699 3.19547C8.70034 4.70267 9.98403 6.85317 11.0436 8.92272C11.5933 9.99626 12.0816 11.0459 12.4322 11.9716C12.7841 12.9009 12.992 13.6919 12.992 14.253H12.9919L12.9922 14.2587C13.1265 17.2134 10.7084 19.6358 7.74699 19.6358C4.9265 19.6358 2.50194 17.2153 2.50194 14.253C2.50194 13.6919 2.70984 12.9009 3.06182 11.9716C3.41239 11.0459 3.90068 9.99626 4.45033 8.92272Z" stroke-width="0.25"/>
</svg>
