<svg viewBox="0 0 20 17" xmlns="http://www.w3.org/2000/svg">
  <path fill="currentColor" d="M3.20086 9.50002H14.0624C14.5801 9.50002 14.9999 9.08027 14.9999 8.56252C14.9999 8.04477 14.5801 7.62502 14.0624 7.62502H3.20086L4.41299 6.4129C4.77911 6.04678 4.77911 5.45322 4.41299 5.08709C4.04692 4.72097 3.4533 4.72097 3.08718 5.08709L0.274809 7.89952C0.252871 7.92146 0.232121 7.94446 0.212497 7.96846C0.203934 7.9789 0.196497 7.98996 0.188434 8.00065C0.178122 8.0144 0.167497 8.02783 0.157934 8.04215C0.149184 8.05521 0.141622 8.06877 0.133622 8.08214C0.125934 8.09502 0.117872 8.10758 0.110809 8.12083C0.103434 8.13458 0.0972468 8.14871 0.0906218 8.16271C0.0841218 8.17639 0.0773094 8.18989 0.0714969 8.20389C0.0658719 8.21758 0.0612469 8.23152 0.0563094 8.24539C0.0508719 8.26039 0.045122 8.27521 0.040497 8.29052C0.0363095 8.30439 0.033247 8.31846 0.029747 8.33252C0.0258095 8.34808 0.0214345 8.36358 0.0183095 8.37946C0.015122 8.39564 0.0131845 8.41202 0.010872 8.42833C0.00887205 8.44227 0.00618455 8.45602 0.00480956 8.47014C0.00180957 8.50039 0.00024707 8.53083 0.00018457 8.56121C0.00018457 8.56164 0.00012207 8.56214 0.00012207 8.56258C0.00012207 8.56302 0.00018457 8.56352 0.00018457 8.56396C0.00024707 8.59439 0.00180957 8.62477 0.00480956 8.65508C0.00618455 8.66902 0.00880955 8.68258 0.010747 8.69639C0.013122 8.71289 0.0150595 8.72939 0.0183095 8.74577C0.0214345 8.76152 0.025747 8.77677 0.0296845 8.7922C0.033247 8.80639 0.036372 8.8207 0.040622 8.83477C0.0451844 8.84983 0.0508719 8.86439 0.0561219 8.87914C0.0611844 8.89327 0.0658094 8.90745 0.0715594 8.92133C0.0772469 8.93508 0.0839343 8.94827 0.0903093 8.9617C0.0970593 8.97602 0.103434 8.99045 0.110934 9.00452C0.117809 9.01733 0.125622 9.02952 0.133059 9.04195C0.141247 9.05577 0.149059 9.0697 0.158059 9.08314C0.167184 9.09683 0.177372 9.10964 0.187184 9.12283C0.195684 9.13414 0.203559 9.14583 0.212622 9.15683C0.231309 9.17958 0.251121 9.20139 0.271809 9.22233C0.272809 9.22333 0.273621 9.22445 0.274621 9.22545L3.08711 12.038C3.27024 12.2211 3.51011 12.3126 3.75005 12.3126C3.98992 12.3126 4.22992 12.2211 4.41292 12.0381C4.77905 11.6719 4.77905 11.0784 4.41299 10.7123L3.20086 9.50002Z" />
  <path fill="currentColor" d="M19.0626 0.124981H7.18768C6.66993 0.124981 6.25018 0.54473 6.25018 1.06248V4.81247C6.25018 5.33021 6.66993 5.74996 7.18768 5.74996C7.70543 5.74996 8.12518 5.33021 8.12518 4.81247V1.99997H18.1251V15.125H8.12518V12.3124C8.12518 11.7947 7.70543 11.3749 7.18768 11.3749C6.66993 11.3749 6.25018 11.7947 6.25018 12.3124V16.0625C6.25018 16.5802 6.66993 17 7.18768 17H19.0626C19.5804 17 20.0001 16.5802 20.0001 16.0625V1.06248C20.0001 0.54473 19.5804 0.124981 19.0626 0.124981Z" />
</svg>
