<svg viewBox="0 0 40 40" fill="none" xmlns="http://www.w3.org/2000/svg">
  <path fill="currentColor" d="M28.0187 9.14649V2.40244C28.0187 1.32731 27.1394 0.447647 26.0639 0.447647H1.9548C0.879658 0.447647 0 1.32731 0 2.40244V3.67306V29.1506V30.0305C0 30.747 0.423539 31.4312 1.04256 31.757L15.899 39.4461C16.5506 39.7719 17.3325 39.3161 17.3325 38.5665V31.0731H26.0639C27.1394 31.0731 28.0187 30.1938 28.0187 29.1183V18.4321H24.1091V26.1861C24.1091 26.74 23.6856 27.1635 23.1317 27.1635H17.3651V17.1289V10.7758V10.5803C17.3651 9.86357 16.9416 9.17939 16.3225 8.85359L7.55854 4.35756H23.1317C23.6856 4.35756 24.1091 4.7811 24.1091 5.33496V9.17939H28.0187V9.14649Z"/>
  <path fill="currentColor" d="M33.0361 5.95333L39.3892 12.3064C40.2037 13.1209 40.2037 14.3264 39.3892 15.1409L33.0361 21.4939C32.2216 22.3084 30.9832 22.3413 30.1687 21.5269C29.3871 20.7453 29.4845 19.4417 30.2342 18.6598L33.1009 15.8254H21.9915C21.438 15.8254 20.8838 15.5973 20.5254 15.1738C19.6132 14.1964 19.8412 12.4696 21.0141 11.818C21.3073 11.6551 21.6657 11.5574 21.9915 11.5574H33.1012C33.1012 11.5574 30.2671 8.72295 30.2345 8.72295C29.4849 7.97361 29.3871 6.63783 30.169 5.88849C30.951 5.10658 32.2216 5.13883 33.0361 5.95333Z"/>
</svg>
