<svg viewBox="0 0 24 24" xmlns="http://www.w3.org/2000/svg">
  <path fill="currentColor" d="M14.5577+0.273336C15.0433+0.378828+15.3516+0.858108+15.2461+1.34383C15.1406+1.82957+14.6614+2.13782+14.1756+2.03234C13.4666+1.87838+12.7387+1.8+12+1.8C6.3667+1.8+1.8+6.3667+1.8+12C1.8+17.6333+6.3667+22.2+12+22.2C17.6333+22.2+22.2+17.6333+22.2+12C22.2+11.2924+22.1281+10.5947+21.9866+9.91392C21.8856+9.4273+22.1982+8.95082+22.6848+8.84974C23.1715+8.74865+23.648+9.06121+23.7491+9.54788C23.9154+10.3488+24+11.1692+24+12C24+18.6274+18.6274+24+12+24C5.37258+24+0+18.6274+0+12C0+5.37258+5.37258+0+12+0C12.8674+0+13.7233+0.0921719+14.5577+0.273336Z"/>
  <path fill="currentColor" d="M13.6176+10.384C13.9691+10.7353+14.539+10.7352+14.8903+10.3837L19.2365+6.0363C19.588+5.68478+19.5878+5.11493+19.2364+4.76351C18.8848+4.41209+18.3149+4.41217+17.9635+4.7637L13.6174+9.11111C13.266+9.46264+13.266+10.0325+13.6176+10.384ZM7.46353+16.5364C7.81498+16.8878+8.38482+16.8878+8.73634+16.5365L10.237+15.0361C10.5884+14.6848+10.5886+14.1149+10.2371+13.7634C9.8856+13.4119+9.31578+13.4118+8.96428+13.7633L7.46366+15.2635C7.11216+15.615+7.1121+16.1849+7.46353+16.5364Z" fill-rule="evenodd"/>
  <path fill="currentColor" d="M15.3+4.5C15.3+4.00295+15.703+3.6+16.2+3.6L19.5+3.6C19.997+3.6+20.4+4.00295+20.4+4.5C20.4+4.99705+19.997+5.4+19.5+5.4L16.2+5.4C15.703+5.4+15.3+4.99705+15.3+4.5Z" fill-rule="evenodd"/>
  <path fill="currentColor" d="M18.6+4.5C18.6+4.00295+19.003+3.6+19.5+3.6C19.997+3.6+20.4+4.00295+20.4+4.5L20.4+7.8C20.4+8.29705+19.997+8.7+19.5+8.7C19.003+8.7+18.6+8.29705+18.6+7.8L18.6+4.5Z" fill-rule="evenodd"/>
  <path fill="currentColor" d="M8.4+12C8.4+13.9883+10.0117+15.6+12+15.6C13.9883+15.6+15.6+13.9883+15.6+12C15.6+10.0117+13.9883+8.4+12+8.4C10.0117+8.4+8.4+10.0117+8.4+12ZM13.8+12C13.8+12.9941+12.9941+13.8+12+13.8C11.0059+13.8+10.2+12.9941+10.2+12C10.2+11.0059+11.0059+10.2+12+10.2C12.9941+10.2+13.8+11.0059+13.8+12Z" fill-rule="evenodd"/>
</svg>
