<svg viewBox="0 0 24 24" fill="none" xmlns="http://www.w3.org/2000/svg">
  <path fill="currentColor" stroke="currentColor" d="M8.85715 6.29376C8.4596 6.1552 8.00879 6.08653 7.62625 6.08653C5.09047 6.08653 2.98881 8.28136 2.98881 10.9704C2.98881 13.6594 5.09047 15.8542 7.62625 15.8542H17.4825V15.8543L17.4866 15.8541C19.9334 15.7698 22.1199 13.581 22.1199 10.9704C22.1199 8.47784 20.1513 6.30604 17.8182 6.17269C17.2051 4.2785 15.4573 2.88429 13.378 2.88326C11.2282 2.80166 9.40637 4.25783 8.85715 6.29376ZM9.56902 7.46376L9.58644 7.45505L9.60021 7.44128L9.60364 7.43785C9.68567 7.35586 9.7967 7.24488 9.79957 7.03616C10.0416 5.20734 11.5523 3.86248 13.2936 3.86248C14.9597 3.86248 16.4663 5.05097 16.7877 6.7118C16.7955 6.95331 17.0285 7.14788 17.3182 7.14788H17.4003C19.2988 7.14788 20.9764 8.89438 20.9764 10.9704C20.9764 13.0464 19.2988 14.7929 17.4003 14.7929H7.54663C5.64599 14.7122 4.05016 12.9639 4.05016 10.9704C4.05016 8.8926 5.64736 7.14788 7.62625 7.14788C8.09995 7.14788 8.5685 7.22584 9.036 7.45631C9.10438 7.51528 9.19321 7.53803 9.27922 7.53803C9.37297 7.53803 9.47341 7.51157 9.56902 7.46376Z"  stroke-width="0.24"/>
  <path fill="currentColor" stroke="currentColor" d="M6.99448 16.9125L6.98577 16.8951L6.972 16.8813C6.76087 16.6702 6.43848 16.6702 6.22735 16.8813L4.17397 18.9347C3.96284 19.1458 3.96284 19.4682 4.17397 19.6794C4.29168 19.7971 4.4216 19.7969 4.5683 19.7967C4.57462 19.7967 4.58098 19.7966 4.58736 19.7966H4.58943C4.63013 19.7966 4.69991 19.7967 4.77136 19.7847C4.84129 19.7731 4.93309 19.747 5.00076 19.6794L7.05414 17.626L7.08928 17.5908V17.5411V17.5407C7.08928 17.4989 7.08928 17.392 7.07852 17.2736C7.06814 17.1594 7.04643 17.0164 6.99448 16.9125Z"  stroke-width="0.24"/>
  <path fill="currentColor" stroke="currentColor" d="M10.2798 16.9125L10.2711 16.8951L10.2573 16.8813C10.0462 16.6702 9.72381 16.6702 9.51267 16.8813L7.45929 18.9347C7.24816 19.1458 7.24816 19.4682 7.45929 19.6794C7.577 19.7971 7.70693 19.7969 7.85362 19.7967C7.85995 19.7967 7.8663 19.7966 7.87269 19.7966H7.87476C7.91546 19.7966 7.98523 19.7967 8.05669 19.7847C8.12661 19.7731 8.21841 19.747 8.28608 19.6794L10.3395 17.626L10.3746 17.5908V17.5411V17.5407C10.3746 17.4989 10.3746 17.392 10.3638 17.2736C10.3535 17.1594 10.3317 17.0164 10.2798 16.9125Z"  stroke-width="0.24"/>
  <path fill="currentColor" stroke="currentColor" d="M13.5653 16.9125L13.5566 16.8951L13.5428 16.8813C13.3317 16.6702 13.0093 16.6702 12.7982 16.8813L10.7448 18.9347C10.5337 19.1458 10.5337 19.4682 10.7448 19.6794C10.8625 19.7971 10.9924 19.7969 11.1391 19.7967C11.1455 19.7967 11.1518 19.7966 11.1582 19.7966H11.1603C11.201 19.7966 11.2708 19.7967 11.3422 19.7847C11.4121 19.7731 11.5039 19.747 11.5716 19.6794L13.625 17.626L13.6601 17.5908V17.5411V17.5407C13.6601 17.4989 13.6601 17.392 13.6494 17.2736C13.639 17.1594 13.6173 17.0164 13.5653 16.9125Z"  stroke-width="0.24"/>
  <path fill="currentColor" stroke="currentColor" d="M16.0325 16.8589L16.0151 16.8676L16.0013 16.8814L13.9479 18.9348C13.7368 19.1459 13.7368 19.4683 13.9479 19.6794C14.0657 19.7971 14.1956 19.7969 14.3423 19.7967C14.3486 19.7967 14.3549 19.7967 14.3613 19.7967H14.3634C14.4041 19.7967 14.4739 19.7967 14.5453 19.7848C14.6153 19.7731 14.7071 19.7471 14.7747 19.6794L16.8281 17.626C17.0392 17.4149 17.0392 17.0925 16.8281 16.8814L16.8143 16.8676L16.7969 16.8589C16.6913 16.8061 16.5471 16.7846 16.4147 16.7846C16.2824 16.7846 16.1381 16.8061 16.0325 16.8589Z"  stroke-width="0.24"/>
  <path fill="currentColor" stroke="currentColor" d="M12.747 20.1442L12.7296 20.1529L12.7159 20.1667L11.8945 20.988C11.6834 21.1992 11.6834 21.5216 11.8945 21.7327C12.0122 21.8504 12.1421 21.8502 12.2888 21.85C12.2952 21.85 12.3015 21.85 12.3079 21.85L12.31 21.85C12.3507 21.85 12.4204 21.85 12.4919 21.8381C12.5618 21.8264 12.6536 21.8004 12.7213 21.7327L13.5426 20.9113C13.7538 20.7002 13.7538 20.3778 13.5426 20.1667L13.5289 20.1529L13.5115 20.1442C13.4059 20.0914 13.2616 20.0699 13.1293 20.0699C12.9969 20.0699 12.8526 20.0914 12.747 20.1442Z"  stroke-width="0.24"/>
  <path fill="currentColor" stroke="currentColor" d="M9.46174 20.1445L9.44432 20.1532L9.43055 20.167L8.6092 20.9883C8.40259 21.1949 8.39816 21.5081 8.59591 21.7192C8.71424 21.9329 8.93791 21.9325 9.01733 21.9324C9.01916 21.9324 9.02092 21.9324 9.02259 21.9324L9.02466 21.9324C9.06536 21.9324 9.13513 21.9324 9.20659 21.9205C9.27651 21.9088 9.36831 21.8828 9.43598 21.8151L10.2573 20.9938C10.4685 20.7826 10.4685 20.4602 10.2573 20.2491C10.1479 20.1397 9.99327 20.0925 9.85391 20.0809C9.71446 20.0693 9.5681 20.0913 9.46174 20.1445Z"  stroke-width="0.24"/>
  <path fill="currentColor" stroke="currentColor" d="M6.17621 20.1445L6.1588 20.1532L6.14503 20.167L5.32367 20.9883C5.11707 21.1949 5.11264 21.5081 5.31039 21.7192C5.42872 21.9329 5.65239 21.9325 5.73181 21.9324C5.73364 21.9324 5.73539 21.9324 5.73707 21.9324L5.73914 21.9324C5.77984 21.9324 5.84961 21.9324 5.92107 21.9205C5.99099 21.9088 6.08279 21.8828 6.15046 21.8151L6.97181 20.9938C7.18295 20.7826 7.18295 20.4602 6.97181 20.2491C6.86242 20.1397 6.70775 20.0925 6.56839 20.0809C6.42894 20.0693 6.28258 20.0913 6.17621 20.1445Z"  stroke-width="0.24"/>
  <path fill="currentColor" stroke="currentColor" d="M2.89089 20.1445L2.87347 20.1532L2.8597 20.167L2.03835 20.9883C1.83174 21.1949 1.82731 21.5081 2.02506 21.7192C2.14339 21.9329 2.36707 21.9325 2.44648 21.9324C2.44831 21.9324 2.45007 21.9324 2.45174 21.9324L2.45381 21.9324C2.49451 21.9324 2.56428 21.9324 2.63574 21.9205C2.70567 21.9088 2.79747 21.8828 2.86514 21.8151L3.68649 20.9938C3.89762 20.7826 3.89762 20.4602 3.68649 20.2491C3.5771 20.1397 3.42243 20.0925 3.28306 20.0809C3.14362 20.0693 2.99726 20.0913 2.89089 20.1445Z"  stroke-width="0.24"/>
</svg>
