<svg viewBox="0 0 16 16" xmlns="http://www.w3.org/2000/svg">
  <path fill="currentColor" d="M9.79167 12.4583H3.54167V10.6667H9.79167V12.4583ZM12.4583 8.875H3.54167V7.125H12.4583V8.875ZM12.4583 5.33333H3.54167V3.54167H12.4583V5.33333ZM14.2083 0H1.79167C1.29167 0 0.861111 0.180556 0.5 0.541667C0.166667 0.875 0 1.29167 0 1.79167V14.2083C0 14.7083 0.166667 15.1389 0.5 15.5C0.861111 15.8333 1.29167 16 1.79167 16H14.2083C14.7083 16 15.125 15.8333 15.4583 15.5C15.8194 15.1389 16 14.7083 16 14.2083V1.79167C16 1.29167 15.8194 0.875 15.4583 0.541667C15.125 0.180556 14.7083 0 14.2083 0Z"/>
</svg>
