<svg viewBox="0 0 16 16" xmlns="http://www.w3.org/2000/svg">
  <path fill="currentColor" d="M7.81221 10.8169C7.03599 10.8169 6.37246 10.5415 5.8216 9.99061C5.27074 9.43975 4.99531 8.77621 4.99531 8C4.99531 7.22379 5.27074 6.56025 5.8216 6.00939C6.37246 5.45853 7.03599 5.1831 7.81221 5.1831C8.58842 5.1831 9.25196 5.45853 9.80282 6.00939C10.3537 6.56025 10.6291 7.22379 10.6291 8C10.6291 8.77621 10.3537 9.43975 9.80282 9.99061C9.25196 10.5415 8.58842 10.8169 7.81221 10.8169ZM13.784 8.78873C13.8091 8.48826 13.8216 8.22535 13.8216 8C13.8216 7.77465 13.8091 7.51174 13.784 7.21127L15.4742 5.89671C15.5493 5.8216 15.5869 5.74648 15.5869 5.67136C15.6119 5.57121 15.5994 5.47105 15.5493 5.37089L13.9343 2.59155C13.9092 2.51643 13.8466 2.46635 13.7465 2.44131C13.6463 2.39124 13.5462 2.39124 13.446 2.44131L11.4554 3.23005C11.0047 2.8795 10.554 2.61659 10.1033 2.44131L9.80282 0.338028C9.80282 0.237872 9.76526 0.162754 9.69014 0.112676C9.61502 0.0375587 9.52739 0 9.42723 0H6.19718C6.09703 0 6.00939 0.0375587 5.93427 0.112676C5.85915 0.162754 5.8216 0.237872 5.8216 0.338028L5.52113 2.44131C5.07042 2.61659 4.61972 2.8795 4.16901 3.23005L2.1784 2.44131C2.07825 2.39124 1.97809 2.39124 1.87793 2.44131C1.77778 2.46635 1.71518 2.51643 1.69014 2.59155L0.0751174 5.37089C0.0250391 5.47105 0 5.57121 0 5.67136C0.0250391 5.74648 0.0751174 5.8216 0.150235 5.89671L1.84038 7.21127C1.81534 7.51174 1.80282 7.77465 1.80282 8C1.80282 8.22535 1.81534 8.48826 1.84038 8.78873L0.150235 10.1033C0.0751174 10.1784 0.0250391 10.266 0 10.3662C0 10.4413 0.0250391 10.529 0.0751174 10.6291L1.69014 13.4085C1.71518 13.4836 1.77778 13.5462 1.87793 13.5962C1.97809 13.6213 2.07825 13.6088 2.1784 13.5587L4.16901 12.77C4.61972 13.1205 5.07042 13.3834 5.52113 13.5587L5.8216 15.662C5.8216 15.7621 5.85915 15.8372 5.93427 15.8873C6.00939 15.9624 6.09703 16 6.19718 16H9.42723C9.52739 16 9.61502 15.9624 9.69014 15.8873C9.76526 15.8372 9.80282 15.7621 9.80282 15.662L10.1033 13.5587C10.579 13.3584 11.0297 13.0955 11.4554 12.77L13.446 13.5587C13.5462 13.6088 13.6463 13.6213 13.7465 13.5962C13.8466 13.5462 13.9092 13.4836 13.9343 13.4085L15.5493 10.6291C15.5994 10.529 15.6119 10.4413 15.5869 10.3662C15.5869 10.266 15.5493 10.1784 15.4742 10.1033L13.784 8.78873Z" />
</svg>
