<svg viewBox="0 0 18 22" xmlns="http://www.w3.org/2000/svg">
  <path fill="currentColor" d="M9.86212 12.2217V3.68251C9.86212 1.65132 8.2108 0 6.18184 0C4.15288 0 2.49933 1.65132 2.49933 3.68251V12.2239C2.10605 12.568 1.76417 12.9658 1.48038 13.4082C0.903872 14.3043 0.599976 15.3478 0.599976 16.4181C0.599976 19.4951 3.10489 22 6.18184 22C9.25879 22 11.7637 19.4951 11.7637 16.4181C11.7637 15.3478 11.4598 14.3043 10.8811 13.406C10.5973 12.9635 10.2554 12.5658 9.86212 12.2217ZM6.18184 20.8246C3.75067 20.8246 1.77534 18.8493 1.77534 16.4181C1.77534 15.5712 2.01667 14.7489 2.47028 14.0406C2.73619 13.6272 3.0669 13.263 3.45124 12.9591C3.59202 12.8474 3.67469 12.6775 3.67469 12.4988V3.68251C3.67469 2.29934 4.79866 1.17537 6.18184 1.17537C7.56502 1.17537 8.68899 2.29934 8.68899 3.68251V12.4988C8.68899 12.6775 8.77166 12.8474 8.91244 12.9591C9.29678 13.263 9.62749 13.6272 9.8934 14.0406C10.3492 14.7512 10.5883 15.5735 10.5883 16.4181C10.5883 18.8493 8.61301 20.8246 6.18184 20.8246Z"/>
  <path fill="currentColor" d="M12.1761 4.43434H14.1972C14.5213 4.43434 14.7849 4.17066 14.7849 3.84665C14.7849 3.52265 14.5213 3.25897 14.1972 3.25897H12.1761C11.8521 3.25897 11.5884 3.52265 11.5884 3.84665C11.5884 4.1729 11.8521 4.43434 12.1761 4.43434Z"/>
  <path fill="currentColor" d="M16.7942 5.36166H12.1761C11.8521 5.36166 11.5884 5.62534 11.5884 5.94935C11.5884 6.27335 11.8521 6.53703 12.1761 6.53703H16.7942C17.1182 6.53703 17.3819 6.27335 17.3819 5.94935C17.3819 5.62534 17.1204 5.36166 16.7942 5.36166Z"/>
  <path fill="currentColor" d="M16.7942 1H12.1761C11.8521 1 11.5884 1.26368 11.5884 1.58768C11.5884 1.91169 11.8521 2.17536 12.1761 2.17536H16.7942C17.1182 2.17536 17.3819 1.91169 17.3819 1.58768C17.3819 1.26368 17.1204 1 16.7942 1Z"/>
  <path fill="currentColor" d="M12.1761 8.63524H14.1972C14.5213 8.63524 14.7849 8.37156 14.7849 8.04755C14.7849 7.72354 14.5213 7.45987 14.1972 7.45987H12.1761C11.8521 7.45987 11.5884 7.72354 11.5884 8.04755C11.5884 8.37156 11.8521 8.63524 12.1761 8.63524Z"/>
  <path fill="currentColor" d="M16.7942 9.56033H12.1761C11.8521 9.56033 11.5884 9.82401 11.5884 10.148C11.5884 10.472 11.8521 10.7357 12.1761 10.7357H16.7942C17.1182 10.7357 17.3819 10.472 17.3819 10.148C17.3819 9.82401 17.1204 9.56033 16.7942 9.56033Z"/>
  <path fill="currentColor" d="M7.632 13.397V7.40402H4.73157V13.397C3.6076 13.9378 2.83221 15.0863 2.83221 16.4181C2.83221 18.2683 4.33159 19.7699 6.18402 19.7699C8.03421 19.7699 9.53582 18.2706 9.53582 16.4181C9.53359 15.0863 8.75597 13.9378 7.632 13.397Z"/>
</svg>
