<svg viewBox="0 0 16 16" xmlns="http://www.w3.org/2000/svg">
  <path fill="currentColor" d="M8 0C9.09162 0 10.0273 0.389864 10.807 1.16959C11.5867 1.94932 11.9766 2.90058 11.9766 4.02339C11.9766 5.11501 11.5867 6.05068 10.807 6.83041C10.0273 7.61014 9.09162 8 8 8C6.90838 8 5.97271 7.61014 5.19298 6.83041C4.41326 6.05068 4.02339 5.11501 4.02339 4.02339C4.02339 2.90058 4.41326 1.94932 5.19298 1.16959C5.97271 0.389864 6.90838 0 8 0ZM8 10.0117C9.4347 10.0117 10.7602 10.1988 11.9766 10.5731C13.2242 10.9162 14.2066 11.3996 14.924 12.0234C15.6413 12.616 16 13.271 16 13.9883V16H0V13.9883C0 13.271 0.358674 12.616 1.07602 12.0234C1.79337 11.3996 2.76023 10.9162 3.97661 10.5731C5.22417 10.1988 6.5653 10.0117 8 10.0117Z" />
</svg>
