<svg viewBox="0 0 22 20" xmlns="http://www.w3.org/2000/svg">
  <path fill="currentColor" d="M19.25 0.916611C19.25 0.410385 18.8396 0 18.3334 0H14.6666C14.1604 0 13.75 0.410385 13.75 0.916611V2.75H19.25V0.916611Z"/>
  <path fill="currentColor" d="M8.25 0.916611C8.25 0.410385 7.83961 0 7.33339 0H3.66661C3.16039 0 2.75 0.410385 2.75 0.916611V2.75H8.25V0.916611Z"/>
  <path fill="currentColor" d="M0 3.66663V17.4166C0 17.9229 0.410385 18.3334 0.916611 18.3334H2.75V19.25H4.58339V18.3334H17.4166V19.25H19.25V18.3334H21.0834C21.5896 18.3334 22 17.9229 22 17.4166V3.66663H0ZM7.33339 16.5L9.16661 11H6.41661L12.8334 5.50002L11 11H13.75L7.33339 16.5Z"/>
</svg>
