<svg viewBox="0 0 24 24" fill="none" xmlns="http://www.w3.org/2000/svg">
  <path fill="currentColor" d="M3.13052+4.6957C3.13052+7.285+5.2373+9.3913+7.82617+9.3913C8.11417+9.3913+8.34791+9.1581+8.34791+8.8696C8.34791+8.581+8.11417+8.3478+7.82617+8.3478C5.81226+8.3478+4.17399+6.709+4.17399+4.6957C4.17399+2.6823+5.81226+1.0435+7.82617+1.0435C9.84008+1.0435+11.4783+2.68231+11.4783+4.6957L11.4783+23.4783C11.4783+23.7663+11.7121+24+12.0001+24C12.2881+24+12.5218+23.7663+12.5218+23.4783L12.5218+4.6957C12.5218+2.10631+10.415+4.32028e-06+7.82617+3.199e-06C5.2373+2.07769e-06+3.13052+2.1063+3.13052+4.6957Z" />
  <path fill="currentColor" d="M2.087+14.6087C2.087+16.6226+3.72526+18.2609+5.73917+18.2609C6.02717+18.2609+6.26091+18.0271+6.26091+17.7391C6.26091+17.4511+6.02717+17.2174+5.73917+17.2174C4.30074+17.2174+3.13048+16.0471+3.13048+14.6087C3.13048+13.1703+4.30074+12+5.73918+12C7.17761+12+8.34787+13.1703+8.34787+14.6087L8.34787+23.4783C8.34787+23.7663+8.58161+24+8.86961+24C9.15761+24+9.39135+23.7663+9.39135+23.4783L9.39135+14.6087C9.39136+12.5948+7.7531+10.9565+5.73918+10.9565C3.72527+10.9565+2.087+12.5948+2.087+14.6087Z" />
  <path fill="currentColor" d="M14.6087+5.73911L14.6087+23.4783C14.6087+23.7663+14.8424+24+15.1304+24C15.4184+24+15.6521+23.7663+15.6521+23.4783L15.6521+5.73911C15.6521+4.30071+16.8224+3.13041+18.2608+3.13041C19.6993+3.13041+20.8695+4.30071+20.8695+5.73911C20.8695+7.17761+19.6993+8.34781+18.2608+8.34781C17.9728+8.34781+17.7391+8.58101+17.7391+8.86961C17.7391+9.15811+17.9728+9.39131+18.2608+9.39131C20.2748+9.39131+21.913+7.75251+21.913+5.73911C21.913+3.72571+20.2748+2.08701+18.2608+2.08701C16.2469+2.08701+14.6087+3.72571+14.6087+5.73911Z" />
</svg>
