<svg viewBox="0 0 24 24" fill="none" xmlns="http://www.w3.org/2000/svg">
  <path fill="currentColor" d="M20.4872+20.4834C25.1649+15.8036+25.1632+8.19057+20.4834+3.51284C15.8036-1.16491+8.19057-1.16321+3.51284+3.5166C-1.16491+8.19642-1.16322+15.8094+3.5166+20.4872C8.1964+25.1649+15.8094+25.1632+20.4872+20.4834ZM4.07865+4.08216C8.44448-0.285611+15.5501-0.28718+19.9178+4.07866C24.2856+8.4445+24.2872+15.5501+19.9213+19.9178C15.5555+24.2856+8.44993+24.2872+4.08216+19.9214C-0.285618+15.5555-0.287192+8.44993+4.07865+4.08216Z" />
  <path fill="currentColor" d="M2.44625+8.65976L18.8535+19.4042C19.0119+19.5077+19.2215+19.4864+19.3555+19.3523C19.4896+19.2182+19.5107+19.0086+19.4072+18.8502L8.6555+2.44776C8.55477+2.29392+8.36242+2.22891+8.18935+2.28946C8.01627+2.35002+7.90627+2.52061+7.92271+2.70333L8.44614+8.44772L2.70149+7.92686C2.58015+7.91586+2.46448+7.96029+2.38247+8.04233C2.3409+8.08392+2.3081+8.13484+2.28775+8.19367C2.22755+8.36707+2.29264+8.55939+2.44625+8.65976Z" />
</svg>
