<svg viewBox="0 0 24 24" fill="none" xmlns="http://www.w3.org/2000/svg">
  <path fill="currentColor" d="M19.3043 3.13052C16.715 3.13052 14.6087 5.2373 14.6087 7.82617C14.6087 8.11417 14.8419 8.34791 15.1304 8.34791C15.419 8.34791 15.6522 8.11417 15.6522 7.82617C15.6522 5.81226 17.291 4.17399 19.3043 4.17399C21.3177 4.17399 22.9565 5.81226 22.9565 7.82617C22.9565 9.84008 21.3177 11.4783 19.3043 11.4783H0.521739C0.233739 11.4783 0 11.7121 0 12.0001C0 12.2881 0.233739 12.5218 0.521739 12.5218H19.3043C21.8937 12.5218 24 10.415 24 7.82617C24 5.2373 21.8937 3.13052 19.3043 3.13052Z" />
  <path fill="currentColor" d="M9.3913 2.08701C7.37739 2.08701 5.73913 3.72527 5.73913 5.73918C5.73913 6.02718 5.97287 6.26092 6.26087 6.26092C6.54887 6.26092 6.78261 6.02718 6.78261 5.73918C6.78261 4.30075 7.95287 3.13049 9.3913 3.13049C10.8297 3.13049 12 4.30075 12 5.73918C12 7.17762 10.8297 8.34788 9.3913 8.34788H0.521739C0.233739 8.34788 0 8.58162 0 8.86962C0 9.15762 0.233739 9.39136 0.521739 9.39136H9.3913C11.4052 9.39136 13.0435 7.7531 13.0435 5.73918C13.0435 3.72527 11.4052 2.08701 9.3913 2.08701Z" />
  <path fill="currentColor" d="M18.2609 14.6087H0.521739C0.233739 14.6087 0 14.8424 0 15.1304C0 15.4184 0.233739 15.6521 0.521739 15.6521H18.2609C19.6993 15.6521 20.8696 16.8224 20.8696 18.2608C20.8696 19.6993 19.6993 20.8695 18.2609 20.8695C16.8224 20.8695 15.6522 19.6993 15.6522 18.2608C15.6522 17.9728 15.419 17.7391 15.1304 17.7391C14.8419 17.7391 14.6087 17.9728 14.6087 18.2608C14.6087 20.2748 16.2475 21.913 18.2609 21.913C20.2743 21.913 21.913 20.2748 21.913 18.2608C21.913 16.2469 20.2743 14.6087 18.2609 14.6087Z" />
</svg>
